{
customParameters = (
{
name = unicodeRanges;
value = (
    60
);
},
{
name = glyphOrder;
value = (
    ".notdef",
    NULL,
    CR,
    space,
    "sf.arrow.down",
    "sf.arrow.left",
    "sf.arrow.right",
    "sf.arrow.up",
    "sf.chevron.down",
    "sf.chevron.left",
    "sf.chevron.right",
    "sf.chevron.up",
    "sf.triangle.down",
    "sf.triangle.left",
    "sf.triangle.right",
    "sf.triangle.up",
    "sf.triangle.down.circle",
    "sf.triangle.left.circle",
    "sf.triangle.right.circle",
    "sf.triangle.up.circle",
    "sf.chevron.down.circle",
    "sf.chevron.left.circle",
    "sf.chevron.right.circle",
    "sf.chevron.up.circle",
    "sf.triangle.down.circle.o",
    "sf.triangle.left.circle.o",
    "sf.triangle.right.circle.o",
    "sf.triangle.up.circle.o",
    "sf.chevron.down.circle.o",
    "sf.chevron.left.circle.o",
    "sf.chevron.right.circle.o",
    "sf.chevron.up.circle.o",
    "sf.empty.circle",
    "sf.plus.circle",
    "sf.minus.circle",
    "sf.checked.circle",
    "sf.x.circle",
    "sf.empty.circle.o",
    "sf.plus.circle.o",
    "sf.minus.circle.o",
    "sf.checked.circle.o",
    "sf.x.circle.o",
    "sf.empty.square",
    "sf.plus.square",
    "sf.minus.square",
    "sf.checked.square",
    "sf.x.square",
    "sf.empty.square.o",
    "sf.plus.square.o",
    "sf.minus.square.o",
    "sf.checked.square.o",
    "sf.x.square.o",
    "sf.calendar",
    "sf.calendar.day",
    "sf.calendar.day.o",
    "sf.calendar.o",
    "sf.alarm.clock",
    "sf.alarm.clock.o",
    "sf.clock",
    "sf.clock.o",
    "sf.clock.reverse",
    "sf.stopwatch",
    "sf.stopwatch.o",
    "sf.dribbble",
    "sf.facebook",
    "sf.google.plus",
    "sf.linkedin",
    "sf.twitter",
    "sf.comment",
    "sf.comment.o",
    "sf.reply",
    "sf.reply.o",
    "sf.compass",
    "sf.compass.o",
    "sf.direction",
    "sf.direction.o",
    "sf.poi",
    "sf.poi.o",
    "sf.star",
    "sf.star.o",
    "sf.half.star",
    "sf.half.star.o",
    "sf.reorder",

glyphs = (
{
glyphname = sf.arrow.down;
lastChange = "2014-08-08 15:40:38 +0000";
layers = (
{
hints = (
{
origin = "{0, 19}";
target = "{0, 28}";
}
);
layerId = "7BDE272C-C7FB-4166-8673-7B6B584E769E";
name = Regular;
paths = (
{
closed = 1;
nodes = (
"368 -76 OFFCURVE",
"361 -79 OFFCURVE",
"354 -79 CURVE SMOOTH",
"346 -79 OFFCURVE",
"339 -76 OFFCURVE",
"334 -71 CURVE SMOOTH",
"58 205 LINE SMOOTH",
"53 210 OFFCURVE",
"50 217 OFFCURVE",
"50 225 CURVE SMOOTH",
"50 229 OFFCURVE",
"51 232 OFFCURVE",
"52 236 CURVE",
"57 247 OFFCURVE",
"65 253 OFFCURVE",
"78 253 CURVE SMOOTH",
"197 253 LINE SMOOTH",
"212 253 OFFCURVE",
"225 266 OFFCURVE",
"225 281 CURVE SMOOTH",
"225 551 LINE SMOOTH",
"225 566 OFFCURVE",
"238 579 OFFCURVE",
"253 579 CURVE SMOOTH",
"453 579 LINE SMOOTH",
"468 579 OFFCURVE",
"481 566 OFFCURVE",
"481 551 CURVE SMOOTH",
"481 281 LINE SMOOTH",
"481 266 OFFCURVE",
"494 253 OFFCURVE",
"509 253 CURVE SMOOTH",
"629 253 LINE SMOOTH",
"642 253 OFFCURVE",
"650 247 OFFCURVE",
"655 236 CURVE",
"656 233 OFFCURVE",
"657 230 OFFCURVE",
"657 225 CURVE SMOOTH",
"657 217 OFFCURVE",
"654 210 OFFCURVE",
"649 205 CURVE SMOOTH",
"373 -71 LINE SMOOTH"
);
}
);
width = 707;
}
);
unicode = E009;
},
{
glyphname = sf.arrow.left;
lastChange = "2014-08-08 15:40:38 +0000";
layers = (
{
hints = (
{
horizontal = 1;
origin = "{0, 27}";
target = "{0, 20}";
}
);
layerId = "7BDE272C-C7FB-4166-8673-7B6B584E769E";
name = Regular;
paths = (
{
closed = 1;
nodes = (
"53 238 OFFCURVE",
"50 245 OFFCURVE",
"50 252 CURVE SMOOTH",
"50 260 OFFCURVE",
"53 267 OFFCURVE",
"58 272 CURVE SMOOTH",
"334 548 LINE SMOOTH",
"339 553 OFFCURVE",
"346 556 OFFCURVE",
"353 556 CURVE SMOOTH",
"357 556 OFFCURVE",
"360 555 OFFCURVE",
"364 554 CURVE",
"375 548 OFFCURVE",
"381 539 OFFCURVE",
"381 528 CURVE SMOOTH",
"381 409 LINE SMOOTH",
"381 394 OFFCURVE",
"394 381 OFFCURVE",
"409 381 CURVE SMOOTH",
"679 381 LINE SMOOTH",
"695 381 OFFCURVE",
"707 368 OFFCURVE",
"707 353 CURVE SMOOTH",
"707 153 LINE SMOOTH",
"707 138 OFFCURVE",
"695 125 OFFCURVE",
"679 125 CURVE SMOOTH",
"409 125 LINE SMOOTH",
"394 125 OFFCURVE",
"381 112 OFFCURVE",
"381 97 CURVE SMOOTH",
"381 -23 LINE SMOOTH",
"381 -36 OFFCURVE",
"375 -44 OFFCURVE",
"364 -49 CURVE",
"361 -50 OFFCURVE",
"358 -51 OFFCURVE",
"353 -51 CURVE SMOOTH",
"346 -51 OFFCURVE",
"339 -48 OFFCURVE",
"334 -43 CURVE SMOOTH",
"58 233 LINE SMOOTH"
);
}
);
width = 757;
}
);
unicode = E00B;
},
{
glyphname = sf.arrow.right;
lastChange = "2014-08-08 15:40:38 +0000";
layers = (
{
layerId = "7BDE272C-C7FB-4166-8673-7B6B584E769E";
name = Regular;
paths = (
{
closed = 1;
nodes = (
"423 -43 LINE SMOOTH",
"418 -48 OFFCURVE",
"411 -51 OFFCURVE",
"404 -51 CURVE SMOOTH",
"399 -51 OFFCURVE",
"396 -50 OFFCURVE",
"393 -49 CURVE",
"382 -44 OFFCURVE",
"376 -36 OFFCURVE",
"376 -23 CURVE SMOOTH",
"376 97 LINE SMOOTH",
"376 112 OFFCURVE",
"363 125 OFFCURVE",
"348 125 CURVE SMOOTH",
"78 125 LINE SMOOTH",
"62 125 OFFCURVE",
"50 138 OFFCURVE",
"50 153 CURVE SMOOTH",
"50 353 LINE SMOOTH",
"50 368 OFFCURVE",
"62 381 OFFCURVE",
"78 381 CURVE SMOOTH",
"348 381 LINE SMOOTH",
"363 381 OFFCURVE",
"376 394 OFFCURVE",
"376 409 CURVE SMOOTH",
"376 528 LINE SMOOTH",
"376 539 OFFCURVE",
"382 548 OFFCURVE",
"393 554 CURVE",
"397 555 OFFCURVE",
"400 556 OFFCURVE",
"404 556 CURVE SMOOTH",
"411 556 OFFCURVE",
"418 553 OFFCURVE",
"423 548 CURVE SMOOTH",
"699 272 LINE SMOOTH",
"704 267 OFFCURVE",
"707 260 OFFCURVE",
"707 252 CURVE SMOOTH",
"707 245 OFFCURVE",
"704 238 OFFCURVE",
"699 233 CURVE SMOOTH"
);
}
);
width = 757;
}
);
unicode = E00A;
},
{
glyphname = sf.arrow.up;
lastChange = "2014-08-08 15:40:38 +0000";
layers = (
{
layerId = "7BDE272C-C7FB-4166-8673-7B6B584E769E";
name = Regular;
paths = (
{
closed = 1;
nodes = (
"649 295 LINE SMOOTH",
"654 290 OFFCURVE",
"657 283 OFFCURVE",
"657 275 CURVE SMOOTH",
"657 270 OFFCURVE",
"656 267 OFFCURVE",
"655 264 CURVE",
"650 253 OFFCURVE",
"642 247 OFFCURVE",
"629 247 CURVE SMOOTH",
"509 247 LINE SMOOTH",
"494 247 OFFCURVE",
"481 234 OFFCURVE",
"481 219 CURVE SMOOTH",
"481 -51 LINE SMOOTH",
"481 -66 OFFCURVE",
"468 -79 OFFCURVE",
"453 -79 CURVE SMOOTH",
"253 -79 LINE SMOOTH",
"238 -79 OFFCURVE",
"225 -66 OFFCURVE",
"225 -51 CURVE SMOOTH",
"225 219 LINE SMOOTH",
"225 234 OFFCURVE",
"212 247 OFFCURVE",
"197 247 CURVE SMOOTH",
"78 247 LINE SMOOTH",
"65 247 OFFCURVE",
"57 253 OFFCURVE",
"52 264 CURVE",
"51 268 OFFCURVE",
"50 271 OFFCURVE",
"50 275 CURVE SMOOTH",
"50 283 OFFCURVE",
"53 290 OFFCURVE",
"58 295 CURVE SMOOTH",
"334 571 LINE SMOOTH",
"339 576 OFFCURVE",
"346 579 OFFCURVE",
"354 579 CURVE SMOOTH",
"361 579 OFFCURVE",
"368 576 OFFCURVE",
"373 571 CURVE SMOOTH"
);
}
);
width = 707;
}
);
unicode = E008;
},
{
glyphname = sf.chevron.down;
lastChange = "2014-08-08 15:40:38 +0000";
layers = (
{
layerId = "7BDE272C-C7FB-4166-8673-7B6B584E769E";
name = Regular;
paths = (
{
closed = 1;
nodes = (
"508 408 LINE",
"515 413 OFFCURVE",
"521 416 OFFCURVE",
"528 416 CURVE SMOOTH",
"628 416 LINE SMOOTH",
"653 416 OFFCURVE",
"667 387 OFFCURVE",
"648 367 CURVE SMOOTH",
"373 92 LINE SMOOTH",
"368 87 OFFCURVE",
"361 84 OFFCURVE",
"353 84 CURVE SMOOTH",
"346 84 OFFCURVE",
"340 87 OFFCURVE",
"333 92 CURVE",
"58 367 LINE",
"41 386 OFFCURVE",
"54 416 OFFCURVE",
"78 416 CURVE SMOOTH",
"178 416 LINE SMOOTH",
"186 416 OFFCURVE",
"193 413 OFFCURVE",
"198 408 CURVE SMOOTH",
"333 272 LINE SMOOTH",
"338 267 OFFCURVE",
"345 264 OFFCURVE",
"353 264 CURVE SMOOTH",
"361 264 OFFCURVE",
"368 267 OFFCURVE",
"373 272 CURVE SMOOTH"
);
}
);
width = 706.824;
}
);
unicode = E005;
},
{
glyphname = sf.chevron.left;
lastChange = "2014-08-08 15:40:38 +0000";
layers = (
{
layerId = "7BDE272C-C7FB-4166-8673-7B6B584E769E";
name = Regular;
paths = (
{
closed = 1;
nodes = (
"374 95 LINE SMOOTH",
"379 90 OFFCURVE",
"382 83 OFFCURVE",
"382 75 CURVE SMOOTH",
"382 -25 LINE SMOOTH",
"382 -38 OFFCURVE",
"376 -46 OFFCURVE",
"364 -51 CURVE",
"353 -55 OFFCURVE",
"341 -53 OFFCURVE",
"333 -45 CURVE SMOOTH",
"58 230 LINE SMOOTH",
"53 235 OFFCURVE",
"50 242 OFFCURVE",
"50 250 CURVE SMOOTH",
"50 258 OFFCURVE",
"53 265 OFFCURVE",
"58 270 CURVE SMOOTH",
"333 545 LINE SMOOTH",
"341 553 OFFCURVE",
"353 555 OFFCURVE",
"364 551 CURVE",
"376 546 OFFCURVE",
"382 538 OFFCURVE",
"382 525 CURVE SMOOTH",
"382 425 LINE SMOOTH",
"382 416 OFFCURVE",
"379 410 OFFCURVE",
"373 405 CURVE",
"238 270 LINE SMOOTH",
"233 265 OFFCURVE",
"230 258 OFFCURVE",
"230 250 CURVE SMOOTH",
"230 242 OFFCURVE",
"233 235 OFFCURVE",
"238 230 CURVE SMOOTH"
);
}
);
width = 432;
}
);
unicode = E006;
},
{
glyphname = sf.chevron.right;
lastChange = "2014-08-08 15:40:38 +0000";
layers = (
{
layerId = "7BDE272C-C7FB-4166-8673-7B6B584E769E";
name = Regular;
paths = (
{
closed = 1;
nodes = (
"199 235 OFFCURVE",
"202 242 OFFCURVE",
"202 250 CURVE SMOOTH",
"202 258 OFFCURVE",
"199 265 OFFCURVE",
"194 270 CURVE SMOOTH",
"59 405 LINE",
"53 410 OFFCURVE",
"50 416 OFFCURVE",
"50 425 CURVE SMOOTH",
"50 525 LINE SMOOTH",
"50 538 OFFCURVE",
"56 546 OFFCURVE",
"68 551 CURVE",
"79 555 OFFCURVE",
"91 553 OFFCURVE",
"99 545 CURVE SMOOTH",
"374 270 LINE SMOOTH",
"379 265 OFFCURVE",
"382 258 OFFCURVE",
"382 250 CURVE SMOOTH",
"382 242 OFFCURVE",
"379 235 OFFCURVE",
"374 230 CURVE SMOOTH",
"99 -45 LINE SMOOTH",
"91 -53 OFFCURVE",
"79 -55 OFFCURVE",
"68 -51 CURVE",
"56 -46 OFFCURVE",
"50 -38 OFFCURVE",
"50 -25 CURVE SMOOTH",
"50 75 LINE SMOOTH",
"50 83 OFFCURVE",
"53 90 OFFCURVE",
"58 95 CURVE SMOOTH",
"194 230 LINE SMOOTH"
);
}
);
width = 432;
}
);
unicode = E007;
},
{
glyphname = sf.chevron.up;
lastChange = "2014-08-08 15:40:38 +0000";
layers = (
{
layerId = "7BDE272C-C7FB-4166-8673-7B6B584E769E";
name = Regular;
paths = (
{
closed = 1;
nodes = (
"198 92 LINE SMOOTH",
"193 87 OFFCURVE",
"186 84 OFFCURVE",
"178 84 CURVE SMOOTH",
"78 84 LINE SMOOTH",
"54 84 OFFCURVE",
"41 115 OFFCURVE",
"58 132 CURVE SMOOTH",
"333 408 LINE",
"340 413 OFFCURVE",
"346 416 OFFCURVE",
"353 416 CURVE SMOOTH",
"361 416 OFFCURVE",
"368 413 OFFCURVE",
"373 408 CURVE SMOOTH",
"648 132 LINE SMOOTH",
"667 113 OFFCURVE",
"653 84 OFFCURVE",
"628 84 CURVE SMOOTH",
"528 84 LINE SMOOTH",
"521 84 OFFCURVE",
"515 87 OFFCURVE",
"508 92 CURVE",
"373 227 LINE",
"368 233 OFFCURVE",
"361 236 OFFCURVE",
"353 236 CURVE SMOOTH",
"344 236 OFFCURVE",
"338 233 OFFCURVE",
"333 227 CURVE"
);
}
);
width = 706.824;
}
);
unicode = E004;
},
{
glyphname = sf.triangle.down;
lastChange = "2014-08-08 15:40:38 +0000";
layers = (
{
layerId = "7BDE272C-C7FB-4166-8673-7B6B584E769E";
name = Regular;
paths = (
{
closed = 1;
nodes = (
"629 416 LINE SMOOTH",
"640 416 OFFCURVE",
"649 410 OFFCURVE",
"655 399 CURVE",
"656 395 OFFCURVE",
"657 392 OFFCURVE",
"657 388 CURVE SMOOTH",
"657 380 OFFCURVE",
"654 373 OFFCURVE",
"649 368 CURVE SMOOTH",
"373 92 LINE SMOOTH",
"368 87 OFFCURVE",
"361 84 OFFCURVE",
"353 84 CURVE SMOOTH",
"346 84 OFFCURVE",
"340 87 OFFCURVE",
"333 92 CURVE",
"58 368 LINE SMOOTH",
"53 373 OFFCURVE",
"50 380 OFFCURVE",
"50 388 CURVE SMOOTH",
"50 393 OFFCURVE",
"51 396 OFFCURVE",
"52 399 CURVE",
"57 410 OFFCURVE",
"65 416 OFFCURVE",
"78 416 CURVE SMOOTH"
);
}
);
width = 707;
}
);
unicode = E002;
},
{
glyphname = sf.triangle.left;
lastChange = "2014-08-08 15:40:38 +0000";
layers = (
{
layerId = "7BDE272C-C7FB-4166-8673-7B6B584E769E";
name = Regular;
paths = (
{
closed = 1;
nodes = (
"382 -37 OFFCURVE",
"376 -46 OFFCURVE",
"365 -51 CURVE",
"361 -52 OFFCURVE",
"358 -53 OFFCURVE",
"354 -53 CURVE SMOOTH",
"346 -53 OFFCURVE",
"339 -50 OFFCURVE",
"334 -45 CURVE SMOOTH",
"58 231 LINE SMOOTH",
"53 236 OFFCURVE",
"50 243 OFFCURVE",
"50 251 CURVE SMOOTH",
"50 258 OFFCURVE",
"53 264 OFFCURVE",
"58 271 CURVE",
"334 546 LINE SMOOTH",
"339 551 OFFCURVE",
"346 554 OFFCURVE",
"354 554 CURVE SMOOTH",
"359 554 OFFCURVE",
"362 553 OFFCURVE",
"365 552 CURVE",
"376 547 OFFCURVE",
"382 539 OFFCURVE",
"382 526 CURVE SMOOTH",
"382 -25 LINE SMOOTH"
);
}
);
width = 432;
}
);
unicode = E003;
},
{
glyphname = sf.triangle.right;
lastChange = "2014-08-08 15:40:38 +0000";
layers = (
{
layerId = "7BDE272C-C7FB-4166-8673-7B6B584E769E";
name = Regular;
paths = (
{
closed = 1;
nodes = (
"50 526 LINE SMOOTH",
"50 539 OFFCURVE",
"56 547 OFFCURVE",
"67 552 CURVE",
"70 553 OFFCURVE",
"73 554 OFFCURVE",
"78 554 CURVE SMOOTH",
"86 554 OFFCURVE",
"93 551 OFFCURVE",
"98 546 CURVE SMOOTH",
"374 271 LINE",
"379 264 OFFCURVE",
"382 258 OFFCURVE",
"382 251 CURVE SMOOTH",
"382 243 OFFCURVE",
"379 236 OFFCURVE",
"374 231 CURVE SMOOTH",
"98 -45 LINE SMOOTH",
"93 -50 OFFCURVE",
"86 -53 OFFCURVE",
"78 -53 CURVE SMOOTH",
"74 -53 OFFCURVE",
"71 -52 OFFCURVE",
"67 -51 CURVE",
"56 -46 OFFCURVE",
"50 -37 OFFCURVE",
"50 -25 CURVE SMOOTH"
);
}
);
width = 432;
}
);
unicode = E001;
},
{
glyphname = sf.triangle.up;
lastChange = "2014-08-08 15:40:38 +0000";
layers = (
{
layerId = "7BDE272C-C7FB-4166-8673-7B6B584E769E";
name = Regular;
paths = (
{
closed = 1;
nodes = (
"78 84 LINE SMOOTH",
"65 84 OFFCURVE",
"57 90 OFFCURVE",
"52 101 CURVE",
"51 104 OFFCURVE",
"50 107 OFFCURVE",
"50 112 CURVE SMOOTH",
"50 120 OFFCURVE",
"53 127 OFFCURVE",
"58 132 CURVE SMOOTH",
"333 408 LINE",
"340 413 OFFCURVE",
"346 416 OFFCURVE",
"353 416 CURVE SMOOTH",
"361 416 OFFCURVE",
"368 413 OFFCURVE",
"373 408 CURVE SMOOTH",
"649 132 LINE SMOOTH",
"654 127 OFFCURVE",
"657 120 OFFCURVE",
"657 112 CURVE SMOOTH",
"657 108 OFFCURVE",
"656 105 OFFCURVE",
"655 101 CURVE",
"649 90 OFFCURVE",
"640 84 OFFCURVE",
"629 84 CURVE SMOOTH"
);
}
);
width = 707;
}
);
unicode = E000;
},
{
glyphname = sf.triangle.down.circle;
lastChange = "2014-08-08 15:40:38 +0000";
layers = (
{
layerId = "7BDE272C-C7FB-4166-8673-7B6B584E769E";
name = Regular;
paths = (
{
closed = 1;
nodes = (
"50 369 OFFCURVE",
"99 476 OFFCURVE",
"177 554 CURVE SMOOTH",
"255 632 OFFCURVE",
"361 680 OFFCURVE",
"480 680 CURVE SMOOTH",
"599 680 OFFCURVE",
"706 632 OFFCURVE",
"784 554 CURVE SMOOTH",
"862 476 OFFCURVE",
"910 369 OFFCURVE",
"910 250 CURVE SMOOTH",
"910 131 OFFCURVE",
"862 25 OFFCURVE",
"784 -53 CURVE SMOOTH",
"706 -131 OFFCURVE",
"599 -180 OFFCURVE",
"480 -180 CURVE SMOOTH",
"361 -180 OFFCURVE",
"255 -131 OFFCURVE",
"177 -53 CURVE SMOOTH",
"99 25 OFFCURVE",
"50 131 OFFCURVE",
"50 250 CURVE SMOOTH"
);
},
{
closed = 1;
nodes = (
"285 340 LINE SMOOTH",
"276 340 OFFCURVE",
"270 336 OFFCURVE",
"267 328 CURVE",
"266 325 OFFCURVE",
"265 323 OFFCURVE",
"265 320 CURVE SMOOTH",
"265 314 OFFCURVE",
"267 310 OFFCURVE",
"271 307 CURVE",
"466 111 LINE SMOOTH",
"470 107 OFFCURVE",
"475 105 OFFCURVE",
"480 105 CURVE SMOOTH",
"484 105 OFFCURVE",
"489 107 OFFCURVE",
"494 111 CURVE",
"689 307 LINE",
"693 310 OFFCURVE",
"695 314 OFFCURVE",
"695 320 CURVE SMOOTH",
"695 323 OFFCURVE",
"694 325 OFFCURVE",
"693 328 CURVE",
"690 336 OFFCURVE",
"684 340 OFFCURVE",
"675 340 CURVE SMOOTH"
);
}
);
width = 960;
}
);
unicode = E00C;
},
{
glyphname = sf.triangle.left.circle;
lastChange = "2014-08-08 15:40:38 +0000";
layers = (
{
layerId = "7BDE272C-C7FB-4166-8673-7B6B584E769E";
name = Regular;
paths = (
{
closed = 1;
nodes = (
"361 -180 OFFCURVE",
"255 -131 OFFCURVE",
"177 -53 CURVE SMOOTH",
"99 25 OFFCURVE",
"50 131 OFFCURVE",
"50 250 CURVE SMOOTH",
"50 369 OFFCURVE",
"99 476 OFFCURVE",
"177 554 CURVE SMOOTH",
"255 632 OFFCURVE",
"361 680 OFFCURVE",
"480 680 CURVE SMOOTH",
"599 680 OFFCURVE",
"706 632 OFFCURVE",
"784 554 CURVE SMOOTH",
"862 476 OFFCURVE",
"910 369 OFFCURVE",
"910 250 CURVE SMOOTH",
"910 131 OFFCURVE",
"862 25 OFFCURVE",
"784 -53 CURVE SMOOTH",
"706 -131 OFFCURVE",
"599 -180 OFFCURVE",
"480 -180 CURVE SMOOTH"
);
},
{
closed = 1;
nodes = (
"570 454 OFFCURVE",
"566 460 OFFCURVE",
"558 463 CURVE",
"555 464 OFFCURVE",
"553 465 OFFCURVE",
"550 465 CURVE SMOOTH",
"544 465 OFFCURVE",
"540 463 OFFCURVE",
"537 459 CURVE",
"341 264 LINE",
"337 259 OFFCURVE",
"335 254 OFFCURVE",
"335 250 CURVE SMOOTH",
"335 245 OFFCURVE",
"337 240 OFFCURVE",
"341 236 CURVE SMOOTH",
"537 41 LINE",
"540 37 OFFCURVE",
"544 35 OFFCURVE",
"550 35 CURVE SMOOTH",
"553 35 OFFCURVE",
"555 36 OFFCURVE",
"558 37 CURVE",
"566 40 OFFCURVE",
"570 46 OFFCURVE",
"570 55 CURVE SMOOTH",
"570 445 LINE SMOOTH"
);
}
);
width = 960;
}
);
unicode = E00F;
},
{
glyphname = sf.triangle.right.circle;
lastChange = "2014-08-08 15:40:38 +0000";
layers = (
{
layerId = "7BDE272C-C7FB-4166-8673-7B6B584E769E";
name = Regular;
paths = (
{
closed = 1;
nodes = (
"361 -180 OFFCURVE",
"254 -131 OFFCURVE",
"176 -53 CURVE SMOOTH",
"98 25 OFFCURVE",
"50 131 OFFCURVE",
"50 250 CURVE SMOOTH",
"50 369 OFFCURVE",
"98 476 OFFCURVE",
"176 554 CURVE SMOOTH",
"254 632 OFFCURVE",
"361 680 OFFCURVE",
"480 680 CURVE SMOOTH",
"599 680 OFFCURVE",
"705 632 OFFCURVE",
"783 554 CURVE SMOOTH",
"861 476 OFFCURVE",
"910 369 OFFCURVE",
"910 250 CURVE SMOOTH",
"910 131 OFFCURVE",
"861 25 OFFCURVE",
"783 -53 CURVE SMOOTH",
"705 -131 OFFCURVE",
"599 -180 OFFCURVE",
"480 -180 CURVE SMOOTH"
);
},
{
closed = 1;
nodes = (
"390 55 LINE SMOOTH",
"390 46 OFFCURVE",
"394 40 OFFCURVE",
"402 37 CURVE",
"405 36 OFFCURVE",
"407 35 OFFCURVE",
"410 35 CURVE SMOOTH",
"416 35 OFFCURVE",
"420 37 OFFCURVE",
"423 41 CURVE",
"619 236 LINE SMOOTH",
"623 240 OFFCURVE",
"625 245 OFFCURVE",
"625 250 CURVE SMOOTH",
"625 254 OFFCURVE",
"623 259 OFFCURVE",
"619 264 CURVE",
"423 459 LINE",
"420 463 OFFCURVE",
"416 465 OFFCURVE",
"410 465 CURVE SMOOTH",
"407 465 OFFCURVE",
"405 464 OFFCURVE",
"402 463 CURVE",
"394 460 OFFCURVE",
"390 454 OFFCURVE",
"390 445 CURVE SMOOTH"
);
}
);
width = 960;
}
);
unicode = E00E;
},
{
glyphname = sf.triangle.up.circle;
lastChange = "2014-08-08 15:40:38 +0000";
layers = (
{
layerId = "7BDE272C-C7FB-4166-8673-7B6B584E769E";
name = Regular;
paths = (
{
closed = 1;
nodes = (
"910 131 OFFCURVE",
"861 24 OFFCURVE",
"783 -54 CURVE SMOOTH",
"705 -132 OFFCURVE",
"599 -180 OFFCURVE",
"480 -180 CURVE SMOOTH",
"361 -180 OFFCURVE",
"254 -132 OFFCURVE",
"176 -54 CURVE SMOOTH",
"98 24 OFFCURVE",
"50 131 OFFCURVE",
"50 250 CURVE SMOOTH",
"50 369 OFFCURVE",
"98 475 OFFCURVE",
"176 553 CURVE SMOOTH",
"254 631 OFFCURVE",
"361 680 OFFCURVE",
"480 680 CURVE SMOOTH",
"599 680 OFFCURVE",
"705 631 OFFCURVE",
"783 553 CURVE SMOOTH",
"861 475 OFFCURVE",
"910 369 OFFCURVE",
"910 250 CURVE SMOOTH"
);
},
{
closed = 1;
nodes = (
"675 160 LINE SMOOTH",
"684 160 OFFCURVE",
"690 164 OFFCURVE",
"693 172 CURVE",
"694 175 OFFCURVE",
"695 177 OFFCURVE",
"695 180 CURVE SMOOTH",
"695 186 OFFCURVE",
"693 190 OFFCURVE",
"689 193 CURVE",
"494 389 LINE SMOOTH",
"490 393 OFFCURVE",
"485 395 OFFCURVE",
"480 395 CURVE SMOOTH",
"476 395 OFFCURVE",
"471 393 OFFCURVE",
"466 389 CURVE",
"271 193 LINE",
"267 190 OFFCURVE",
"265 186 OFFCURVE",
"265 180 CURVE SMOOTH",
"265 177 OFFCURVE",
"266 175 OFFCURVE",
"267 172 CURVE",
"270 164 OFFCURVE",
"276 160 OFFCURVE",
"285 160 CURVE SMOOTH"
);
}
);
width = 960;
}
);
unicode = E00D;
},
{
glyphname = sf.chevron.down.circle;
lastChange = "2014-08-08 15:40:38 +0000";
layers = (
{
layerId = "7BDE272C-C7FB-4166-8673-7B6B584E769E";
name = Regular;
paths = (
{
closed = 1;
nodes = (
"361 -180 OFFCURVE",
"254 -131 OFFCURVE",
"176 -53 CURVE SMOOTH",
"98 25 OFFCURVE",
"50 131 OFFCURVE",
"50 250 CURVE SMOOTH",
"50 369 OFFCURVE",
"98 477 OFFCURVE",
"176 555 CURVE SMOOTH",
"254 633 OFFCURVE",
"361 680 OFFCURVE",
"480 680 CURVE SMOOTH",
"599 680 OFFCURVE",
"705 633 OFFCURVE",
"783 555 CURVE SMOOTH",
"861 477 OFFCURVE",
"910 369 OFFCURVE",
"910 250 CURVE SMOOTH",
"910 131 OFFCURVE",
"861 25 OFFCURVE",
"783 -53 CURVE SMOOTH",
"705 -131 OFFCURVE",
"599 -180 OFFCURVE",
"480 -180 CURVE SMOOTH"
);
},
{
closed = 1;
nodes = (
"266 315 OFFCURVE",
"265 312 OFFCURVE",
"265 308 CURVE SMOOTH",
"265 299 OFFCURVE",
"268 293 OFFCURVE",
"274 288 CURVE",
"460 101 LINE SMOOTH",
"465 96 OFFCURVE",
"471 93 OFFCURVE",
"480 93 CURVE SMOOTH",
"489 93 OFFCURVE",
"495 96 OFFCURVE",
"500 101 CURVE SMOOTH",
"686 288 LINE",
"692 293 OFFCURVE",
"695 299 OFFCURVE",
"695 308 CURVE SMOOTH",
"695 312 OFFCURVE",
"694 315 OFFCURVE",
"693 319 CURVE",
"688 331 OFFCURVE",
"679 337 OFFCURVE",
"666 337 CURVE SMOOTH",
"567 337 LINE SMOOTH",
"559 337 OFFCURVE",
"552 334 OFFCURVE",
"547 328 CURVE",
"500 281 LINE SMOOTH",
"495 276 OFFCURVE",
"488 273 OFFCURVE",
"480 273 CURVE SMOOTH",
"472 273 OFFCURVE",
"465 276 OFFCURVE",
"460 281 CURVE SMOOTH",
"413 328 LINE",
"408 334 OFFCURVE",
"402 337 OFFCURVE",
"393 337 CURVE SMOOTH",
"294 337 LINE SMOOTH",
"281 337 OFFCURVE",
"272 331 OFFCURVE",
"267 319 CURVE"
);
}
);
width = 960;
}
);
unicode = E014;
},
{
glyphname = sf.chevron.left.circle;
lastChange = "2014-08-08 15:40:38 +0000";
layers = (
{
layerId = "7BDE272C-C7FB-4166-8673-7B6B584E769E";
name = Regular;
paths = (
{
closed = 1;
nodes = (
"50 369 OFFCURVE",
"99 476 OFFCURVE",
"177 554 CURVE SMOOTH",
"255 632 OFFCURVE",
"361 680 OFFCURVE",
"480 680 CURVE SMOOTH",
"599 680 OFFCURVE",
"707 632 OFFCURVE",
"785 554 CURVE SMOOTH",
"863 476 OFFCURVE",
"910 369 OFFCURVE",
"910 250 CURVE SMOOTH",
"910 131 OFFCURVE",
"863 25 OFFCURVE",
"785 -53 CURVE SMOOTH",
"707 -131 OFFCURVE",
"599 -180 OFFCURVE",
"480 -180 CURVE SMOOTH",
"361 -180 OFFCURVE",
"255 -131 OFFCURVE",
"177 -53 CURVE SMOOTH",
"99 25 OFFCURVE",
"50 131 OFFCURVE",
"50 250 CURVE SMOOTH"
);
},
{
closed = 1;
nodes = (
"545 464 OFFCURVE",
"542 465 OFFCURVE",
"538 465 CURVE SMOOTH",
"529 465 OFFCURVE",
"523 462 OFFCURVE",
"518 456 CURVE",
"331 270 LINE SMOOTH",
"326 265 OFFCURVE",
"323 259 OFFCURVE",
"323 250 CURVE SMOOTH",
"323 241 OFFCURVE",
"326 235 OFFCURVE",
"331 230 CURVE SMOOTH",
"518 44 LINE",
"523 38 OFFCURVE",
"529 35 OFFCURVE",
"538 35 CURVE SMOOTH",
"542 35 OFFCURVE",
"545 36 OFFCURVE",
"549 37 CURVE",
"561 42 OFFCURVE",
"567 51 OFFCURVE",
"567 64 CURVE SMOOTH",
"567 163 LINE SMOOTH",
"567 171 OFFCURVE",
"564 178 OFFCURVE",
"558 183 CURVE",
"511 230 LINE SMOOTH",
"506 235 OFFCURVE",
"503 242 OFFCURVE",
"503 250 CURVE SMOOTH",
"503 258 OFFCURVE",
"506 265 OFFCURVE",
"511 270 CURVE SMOOTH",
"558 317 LINE",
"564 322 OFFCURVE",
"567 328 OFFCURVE",
"567 337 CURVE SMOOTH",
"567 436 LINE SMOOTH",
"567 449 OFFCURVE",
"561 458 OFFCURVE",
"549 463 CURVE"
);
}
);
width = 960;
}
);
unicode = E016;
},
{
glyphname = sf.chevron.right.circle;
lastChange = "2014-08-08 15:40:38 +0000";
layers = (
{
layerId = "7BDE272C-C7FB-4166-8673-7B6B584E769E";
name = Regular;
paths = (
{
closed = 1;
nodes = (
"910 131 OFFCURVE",
"861 24 OFFCURVE",
"783 -54 CURVE SMOOTH",
"705 -132 OFFCURVE",
"599 -180 OFFCURVE",
"480 -180 CURVE SMOOTH",
"361 -180 OFFCURVE",
"253 -132 OFFCURVE",
"175 -54 CURVE SMOOTH",
"97 24 OFFCURVE",
"50 131 OFFCURVE",
"50 250 CURVE SMOOTH",
"50 369 OFFCURVE",
"97 475 OFFCURVE",
"175 553 CURVE SMOOTH",
"253 631 OFFCURVE",
"361 680 OFFCURVE",
"480 680 CURVE SMOOTH",
"599 680 OFFCURVE",
"705 631 OFFCURVE",
"783 553 CURVE SMOOTH",
"861 475 OFFCURVE",
"910 369 OFFCURVE",
"910 250 CURVE SMOOTH"
);
},
{
closed = 1;
nodes = (
"415 36 OFFCURVE",
"418 35 OFFCURVE",
"422 35 CURVE SMOOTH",
"431 35 OFFCURVE",
"437 38 OFFCURVE",
"442 44 CURVE",
"629 230 LINE SMOOTH",
"634 235 OFFCURVE",
"637 241 OFFCURVE",
"637 250 CURVE SMOOTH",
"637 259 OFFCURVE",
"634 265 OFFCURVE",
"629 270 CURVE SMOOTH",
"442 456 LINE",
"437 462 OFFCURVE",
"431 465 OFFCURVE",
"422 465 CURVE SMOOTH",
"418 465 OFFCURVE",
"415 464 OFFCURVE",
"411 463 CURVE",
"399 458 OFFCURVE",
"393 449 OFFCURVE",
"393 436 CURVE SMOOTH",
"393 337 LINE SMOOTH",
"393 329 OFFCURVE",
"396 322 OFFCURVE",
"402 317 CURVE",
"449 270 LINE SMOOTH",
"454 265 OFFCURVE",
"457 258 OFFCURVE",
"457 250 CURVE SMOOTH",
"457 242 OFFCURVE",
"454 235 OFFCURVE",
"449 230 CURVE SMOOTH",
"402 183 LINE",
"396 178 OFFCURVE",
"393 172 OFFCURVE",
"393 163 CURVE SMOOTH",
"393 64 LINE SMOOTH",
"393 51 OFFCURVE",
"399 42 OFFCURVE",
"411 37 CURVE"
);
}
);
width = 960;
}
);
unicode = E017;
},
{
glyphname = sf.chevron.up.circle;
lastChange = "2014-08-08 15:40:38 +0000";
layers = (
{
layerId = "7BDE272C-C7FB-4166-8673-7B6B584E769E";
name = Regular;
paths = (
{
closed = 1;
nodes = (
"599 680 OFFCURVE",
"706 631 OFFCURVE",
"784 553 CURVE SMOOTH",
"862 475 OFFCURVE",
"910 369 OFFCURVE",
"910 250 CURVE SMOOTH",
"910 131 OFFCURVE",
"862 23 OFFCURVE",
"784 -55 CURVE SMOOTH",
"706 -133 OFFCURVE",
"599 -180 OFFCURVE",
"480 -180 CURVE SMOOTH",
"361 -180 OFFCURVE",
"255 -133 OFFCURVE",
"177 -55 CURVE SMOOTH",
"99 23 OFFCURVE",
"50 131 OFFCURVE",
"50 250 CURVE SMOOTH",
"50 369 OFFCURVE",
"99 475 OFFCURVE",
"177 553 CURVE SMOOTH",
"255 631 OFFCURVE",
"361 680 OFFCURVE",
"480 680 CURVE SMOOTH"
);
},
{
closed = 1;
nodes = (
"694 185 OFFCURVE",
"695 188 OFFCURVE",
"695 192 CURVE SMOOTH",
"695 201 OFFCURVE",
"692 207 OFFCURVE",
"686 212 CURVE",
"500 399 LINE SMOOTH",
"495 404 OFFCURVE",
"489 407 OFFCURVE",
"480 407 CURVE SMOOTH",
"471 407 OFFCURVE",
"465 404 OFFCURVE",
"460 399 CURVE SMOOTH",
"274 212 LINE",
"268 207 OFFCURVE",
"265 201 OFFCURVE",
"265 192 CURVE SMOOTH",
"265 188 OFFCURVE",
"266 185 OFFCURVE",
"267 181 CURVE",
"272 169 OFFCURVE",
"281 163 OFFCURVE",
"294 163 CURVE SMOOTH",
"393 163 LINE SMOOTH",
"401 163 OFFCURVE",
"408 166 OFFCURVE",
"413 172 CURVE",
"460 219 LINE SMOOTH",
"465 224 OFFCURVE",
"472 227 OFFCURVE",
"480 227 CURVE SMOOTH",
"488 227 OFFCURVE",
"495 224 OFFCURVE",
"500 219 CURVE SMOOTH",
"547 172 LINE",
"552 166 OFFCURVE",
"558 163 OFFCURVE",
"567 163 CURVE SMOOTH",
"666 163 LINE SMOOTH",
"679 163 OFFCURVE",
"688 169 OFFCURVE",
"693 181 CURVE"
);
}
);
width = 960;
}
);
unicode = E015;
},
{
glyphname = sf.triangle.down.circle.o;
lastChange = "2014-08-08 15:40:38 +0000";
layers = (
{
layerId = "7BDE272C-C7FB-4166-8673-7B6B584E769E";
name = Regular;
paths = (
{
closed = 1;
nodes = (
"675 338 LINE SMOOTH",
"684 338 OFFCURVE",
"690 334 OFFCURVE",
"693 326 CURVE",
"694 323 OFFCURVE",
"695 321 OFFCURVE",
"695 318 CURVE SMOOTH",
"695 312 OFFCURVE",
"693 308 OFFCURVE",
"689 305 CURVE",
"494 109 LINE",
"489 105 OFFCURVE",
"484 103 OFFCURVE",
"480 103 CURVE SMOOTH",
"475 103 OFFCURVE",
"470 105 OFFCURVE",
"466 109 CURVE SMOOTH",
"271 304 LINE SMOOTH",
"267 308 OFFCURVE",
"265 313 OFFCURVE",
"265 318 CURVE SMOOTH",
"265 321 OFFCURVE",
"266 323 OFFCURVE",
"267 326 CURVE",
"270 334 OFFCURVE",
"276 338 OFFCURVE",
"285 338 CURVE SMOOTH"
);
},
{
closed = 1;
nodes = (
"361 -170 OFFCURVE",
"255 -122 OFFCURVE",
"177 -44 CURVE SMOOTH",
"99 34 OFFCURVE",
"50 141 OFFCURVE",
"50 260 CURVE SMOOTH",
"50 379 OFFCURVE",
"99 486 OFFCURVE",
"177 564 CURVE SMOOTH",
"255 642 OFFCURVE",
"361 690 OFFCURVE",
"480 690 CURVE SMOOTH",
"599 690 OFFCURVE",
"706 642 OFFCURVE",
"784 564 CURVE SMOOTH",
"862 486 OFFCURVE",
"910 379 OFFCURVE",
"910 260 CURVE SMOOTH",
"910 141 OFFCURVE",
"862 34 OFFCURVE",
"784 -44 CURVE SMOOTH",
"706 -122 OFFCURVE",
"599 -170 OFFCURVE",
"480 -170 CURVE SMOOTH"
);
},
{
closed = 1;
nodes = (
"150 169 OFFCURVE",
"187 87 OFFCURVE",
"247 27 CURVE SMOOTH",
"307 -33 OFFCURVE",
"389 -70 OFFCURVE",
"480 -70 CURVE SMOOTH",
"571 -70 OFFCURVE",
"653 -33 OFFCURVE",
"713 27 CURVE SMOOTH",
"773 87 OFFCURVE",
"810 169 OFFCURVE",
"810 260 CURVE SMOOTH",
"810 351 OFFCURVE",
"773 433 OFFCURVE",
"713 493 CURVE SMOOTH",
"653 553 OFFCURVE",
"571 590 OFFCURVE",
"480 590 CURVE SMOOTH",
"389 590 OFFCURVE",
"307 553 OFFCURVE",
"247 493 CURVE SMOOTH",
"187 433 OFFCURVE",
"150 351 OFFCURVE",
"150 260 CURVE SMOOTH"
);
}
);
width = 960;
}
);
unicode = E010;
},
{
glyphname = sf.triangle.left.circle.o;
lastChange = "2014-08-08 15:40:38 +0000";
layers = (
{
layerId = "7BDE272C-C7FB-4166-8673-7B6B584E769E";
name = Regular;
paths = (
{
closed = 1;
nodes = (
"558 65 LINE SMOOTH",
"558 56 OFFCURVE",
"554 50 OFFCURVE",
"546 47 CURVE",
"543 46 OFFCURVE",
"541 45 OFFCURVE",
"538 45 CURVE SMOOTH",
"532 45 OFFCURVE",
"528 47 OFFCURVE",
"525 51 CURVE",
"329 246 LINE",
"325 251 OFFCURVE",
"323 256 OFFCURVE",
"323 260 CURVE SMOOTH",
"323 265 OFFCURVE",
"325 270 OFFCURVE",
"329 274 CURVE SMOOTH",
"524 469 LINE SMOOTH",
"528 473 OFFCURVE",
"533 475 OFFCURVE",
"538 475 CURVE SMOOTH",
"541 475 OFFCURVE",
"543 474 OFFCURVE",
"546 473 CURVE",
"554 470 OFFCURVE",
"558 464 OFFCURVE",
"558 455 CURVE SMOOTH"
);
},
{
closed = 1;
nodes = (
"50 379 OFFCURVE",
"98 485 OFFCURVE",
"176 563 CURVE SMOOTH",
"254 641 OFFCURVE",
"361 690 OFFCURVE",
"480 690 CURVE SMOOTH",
"599 690 OFFCURVE",
"706 641 OFFCURVE",
"784 563 CURVE SMOOTH",
"862 485 OFFCURVE",
"910 379 OFFCURVE",
"910 260 CURVE SMOOTH",
"910 141 OFFCURVE",
"862 34 OFFCURVE",
"784 -44 CURVE SMOOTH",
"706 -122 OFFCURVE",
"599 -170 OFFCURVE",
"480 -170 CURVE SMOOTH",
"361 -170 OFFCURVE",
"254 -122 OFFCURVE",
"176 -44 CURVE SMOOTH",
"98 34 OFFCURVE",
"50 141 OFFCURVE",
"50 260 CURVE SMOOTH"
);
},
{
closed = 1;
nodes = (
"389 590 OFFCURVE",
"307 553 OFFCURVE",
"247 493 CURVE SMOOTH",
"187 433 OFFCURVE",
"150 351 OFFCURVE",
"150 260 CURVE SMOOTH",
"150 169 OFFCURVE",
"187 87 OFFCURVE",
"247 27 CURVE SMOOTH",
"307 -33 OFFCURVE",
"389 -70 OFFCURVE",
"480 -70 CURVE SMOOTH",
"571 -70 OFFCURVE",
"653 -33 OFFCURVE",
"713 27 CURVE SMOOTH",
"773 87 OFFCURVE",
"810 169 OFFCURVE",
"810 260 CURVE SMOOTH",
"810 351 OFFCURVE",
"773 433 OFFCURVE",
"713 493 CURVE SMOOTH",
"653 553 OFFCURVE",
"571 590 OFFCURVE",
"480 590 CURVE SMOOTH"
);
}
);
width = 960;
}
);
unicode = E012;
},
{
glyphname = sf.triangle.right.circle.o;
lastChange = "2014-08-08 15:40:38 +0000";
layers = (
{
layerId = "7BDE272C-C7FB-4166-8673-7B6B584E769E";
name = Regular;
paths = (
{
closed = 1;
nodes = (
"402 455 LINE SMOOTH",
"402 464 OFFCURVE",
"406 470 OFFCURVE",
"414 473 CURVE",
"417 474 OFFCURVE",
"419 475 OFFCURVE",
"422 475 CURVE SMOOTH",
"428 475 OFFCURVE",
"432 473 OFFCURVE",
"435 469 CURVE",
"631 274 LINE",
"635 269 OFFCURVE",
"637 264 OFFCURVE",
"637 260 CURVE SMOOTH",
"637 255 OFFCURVE",
"635 250 OFFCURVE",
"631 246 CURVE SMOOTH",
"436 51 LINE SMOOTH",
"432 47 OFFCURVE",
"427 45 OFFCURVE",
"422 45 CURVE SMOOTH",
"419 45 OFFCURVE",
"417 46 OFFCURVE",
"414 47 CURVE",
"406 50 OFFCURVE",
"402 56 OFFCURVE",
"402 65 CURVE SMOOTH"
);
},
{
closed = 1;
nodes = (
"910 141 OFFCURVE",
"862 35 OFFCURVE",
"784 -43 CURVE SMOOTH",
"706 -121 OFFCURVE",
"599 -170 OFFCURVE",
"480 -170 CURVE SMOOTH",
"361 -170 OFFCURVE",
"254 -121 OFFCURVE",
"176 -43 CURVE SMOOTH",
"98 35 OFFCURVE",
"50 141 OFFCURVE",
"50 260 CURVE SMOOTH",
"50 379 OFFCURVE",
"98 486 OFFCURVE",
"176 564 CURVE SMOOTH",
"254 642 OFFCURVE",
"361 690 OFFCURVE",
"480 690 CURVE SMOOTH",
"599 690 OFFCURVE",
"706 642 OFFCURVE",
"784 564 CURVE SMOOTH",
"862 486 OFFCURVE",
"910 379 OFFCURVE",
"910 260 CURVE SMOOTH"
);
},
{
closed = 1;
nodes = (
"571 -70 OFFCURVE",
"653 -33 OFFCURVE",
"713 27 CURVE SMOOTH",
"773 87 OFFCURVE",
"810 169 OFFCURVE",
"810 260 CURVE SMOOTH",
"810 351 OFFCURVE",
"773 433 OFFCURVE",
"713 493 CURVE SMOOTH",
"653 553 OFFCURVE",
"571 590 OFFCURVE",
"480 590 CURVE SMOOTH",
"389 590 OFFCURVE",
"307 553 OFFCURVE",
"247 493 CURVE SMOOTH",
"187 433 OFFCURVE",
"150 351 OFFCURVE",
"150 260 CURVE SMOOTH",
"150 169 OFFCURVE",
"187 87 OFFCURVE",
"247 27 CURVE SMOOTH",
"307 -33 OFFCURVE",
"389 -70 OFFCURVE",
"480 -70 CURVE SMOOTH"
);
}
);
width = 960;
}
);
unicode = E013;
},
{
glyphname = sf.triangle.up.circle.o;
lastChange = "2014-08-08 15:40:38 +0000";
layers = (
{
layerId = "7BDE272C-C7FB-4166-8673-7B6B584E769E";
name = Regular;
paths = (
{
closed = 1;
nodes = (
"285 182 LINE SMOOTH",
"276 182 OFFCURVE",
"270 186 OFFCURVE",
"267 194 CURVE",
"266 197 OFFCURVE",
"265 199 OFFCURVE",
"265 202 CURVE SMOOTH",
"265 208 OFFCURVE",
"267 212 OFFCURVE",
"271 215 CURVE",
"466 411 LINE",
"471 415 OFFCURVE",
"476 417 OFFCURVE",
"480 417 CURVE SMOOTH",
"485 417 OFFCURVE",
"490 415 OFFCURVE",
"494 411 CURVE SMOOTH",
"689 216 LINE SMOOTH",
"693 212 OFFCURVE",
"695 207 OFFCURVE",
"695 202 CURVE SMOOTH",
"695 199 OFFCURVE",
"694 197 OFFCURVE",
"693 194 CURVE",
"690 186 OFFCURVE",
"684 182 OFFCURVE",
"675 182 CURVE SMOOTH"
);
},
{
closed = 1;
nodes = (
"599 690 OFFCURVE",
"705 642 OFFCURVE",
"783 564 CURVE SMOOTH",
"861 486 OFFCURVE",
"910 379 OFFCURVE",
"910 260 CURVE SMOOTH",
"910 141 OFFCURVE",
"861 34 OFFCURVE",
"783 -44 CURVE SMOOTH",
"705 -122 OFFCURVE",
"599 -170 OFFCURVE",
"480 -170 CURVE SMOOTH",
"361 -170 OFFCURVE",
"254 -122 OFFCURVE",
"176 -44 CURVE SMOOTH",
"98 34 OFFCURVE",
"50 141 OFFCURVE",
"50 260 CURVE SMOOTH",
"50 379 OFFCURVE",
"98 486 OFFCURVE",
"176 564 CURVE SMOOTH",
"254 642 OFFCURVE",
"361 690 OFFCURVE",
"480 690 CURVE SMOOTH"
);
},
{
closed = 1;
nodes = (
"810 351 OFFCURVE",
"773 433 OFFCURVE",
"713 493 CURVE SMOOTH",
"653 553 OFFCURVE",
"571 590 OFFCURVE",
"480 590 CURVE SMOOTH",
"389 590 OFFCURVE",
"307 553 OFFCURVE",
"247 493 CURVE SMOOTH",
"187 433 OFFCURVE",
"150 351 OFFCURVE",
"150 260 CURVE SMOOTH",
"150 169 OFFCURVE",
"187 87 OFFCURVE",
"247 27 CURVE SMOOTH",
"307 -33 OFFCURVE",
"389 -70 OFFCURVE",
"480 -70 CURVE SMOOTH",
"571 -70 OFFCURVE",
"653 -33 OFFCURVE",
"713 27 CURVE SMOOTH",
"773 87 OFFCURVE",
"810 169 OFFCURVE",
"810 260 CURVE SMOOTH"
);
}
);
width = 960;
}
);
unicode = E011;
},
{
glyphname = sf.chevron.down.circle.o;
lastChange = "2014-08-08 15:40:38 +0000";
layers = (
{
layerId = "7BDE272C-C7FB-4166-8673-7B6B584E769E";
name = Regular;
paths = (
{
closed = 1;
nodes = (
"620 697 OFFCURVE",
"731 647 OFFCURVE",
"812 566 CURVE SMOOTH",
"893 485 OFFCURVE",
"943 374 OFFCURVE",
"943 250 CURVE SMOOTH",
"943 126 OFFCURVE",
"893 15 OFFCURVE",
"812 -65 CURVE SMOOTH",
"731 -146 OFFCURVE",
"620 -196 OFFCURVE",
"496 -196 CURVE SMOOTH",
"373 -196 OFFCURVE",
"261 -146 OFFCURVE",
"181 -65 CURVE SMOOTH",
"100 15 OFFCURVE",
"50 126 OFFCURVE",
"50 250 CURVE SMOOTH",
"50 374 OFFCURVE",
"100 485 OFFCURVE",
"181 566 CURVE SMOOTH",
"261 647 OFFCURVE",
"373 697 OFFCURVE",
"496 697 CURVE SMOOTH"
);
},
{
closed = 1;
nodes = (
"592 -96 OFFCURVE",
"678 -58 OFFCURVE",
"742 5 CURVE SMOOTH",
"805 68 OFFCURVE",
"843 154 OFFCURVE",
"843 250 CURVE SMOOTH",
"843 346 OFFCURVE",
"805 432 OFFCURVE",
"742 495 CURVE SMOOTH",
"678 558 OFFCURVE",
"592 597 OFFCURVE",
"496 597 CURVE SMOOTH",
"400 597 OFFCURVE",
"314 558 OFFCURVE",
"251 495 CURVE SMOOTH",
"188 432 OFFCURVE",
"150 346 OFFCURVE",
"150 250 CURVE SMOOTH",
"150 154 OFFCURVE",
"188 68 OFFCURVE",
"251 5 CURVE SMOOTH",
"314 -58 OFFCURVE",
"400 -96 OFFCURVE",
"496 -96 CURVE SMOOTH"
);
},
{
closed = 1;
nodes = (
"290 287 LINE",
"285 294 OFFCURVE",
"282 301 OFFCURVE",
"282 308 CURVE SMOOTH",
"282 313 OFFCURVE",
"283 316 OFFCURVE",
"284 319 CURVE",
"289 331 OFFCURVE",
"297 337 OFFCURVE",
"310 337 CURVE SMOOTH",
"410 337 LINE SMOOTH",
"417 337 OFFCURVE",
"423 334 OFFCURVE",
"429 328 CURVE SMOOTH",
"476 281 LINE SMOOTH",
"481 276 OFFCURVE",
"488 273 OFFCURVE",
"496 273 CURVE SMOOTH",
"504 273 OFFCURVE",
"511 276 OFFCURVE",
"516 281 CURVE SMOOTH",
"563 328 LINE SMOOTH",
"569 334 OFFCURVE",
"576 337 OFFCURVE",
"583 337 CURVE SMOOTH",
"683 337 LINE SMOOTH",
"695 337 OFFCURVE",
"704 331 OFFCURVE",
"709 319 CURVE",
"710 315 OFFCURVE",
"711 312 OFFCURVE",
"711 308 CURVE SMOOTH",
"711 301 OFFCURVE",
"708 294 OFFCURVE",
"703 287 CURVE",
"516 101 LINE",
"511 95 OFFCURVE",
"504 92 OFFCURVE",
"496 92 CURVE SMOOTH",
"489 92 OFFCURVE",
"482 95 OFFCURVE",
"476 101 CURVE SMOOTH"
);
}
);
width = 993;
}
);
unicode = E018;
},
{
glyphname = sf.chevron.left.circle.o;
lastChange = "2014-08-08 15:40:38 +0000";
layers = (
{
layerId = "7BDE272C-C7FB-4166-8673-7B6B584E769E";
name = Regular;
paths = (
{
closed = 1;
nodes = (
"943 127 OFFCURVE",
"893 16 OFFCURVE",
"812 -65 CURVE SMOOTH",
"731 -146 OFFCURVE",
"620 -196 OFFCURVE",
"496 -196 CURVE SMOOTH",
"372 -196 OFFCURVE",
"261 -146 OFFCURVE",
"181 -65 CURVE SMOOTH",
"100 16 OFFCURVE",
"50 127 OFFCURVE",
"50 251 CURVE SMOOTH",
"50 374 OFFCURVE",
"100 486 OFFCURVE",
"181 566 CURVE SMOOTH",
"261 647 OFFCURVE",
"372 697 OFFCURVE",
"496 697 CURVE SMOOTH",
"620 697 OFFCURVE",
"731 647 OFFCURVE",
"812 566 CURVE SMOOTH",
"893 486 OFFCURVE",
"943 374 OFFCURVE",
"943 251 CURVE SMOOTH"
);
},
{
closed = 1;
nodes = (
"150 155 OFFCURVE",
"188 69 OFFCURVE",
"251 5 CURVE SMOOTH",
"314 -58 OFFCURVE",
"400 -96 OFFCURVE",
"496 -96 CURVE SMOOTH",
"592 -96 OFFCURVE",
"678 -58 OFFCURVE",
"741 5 CURVE SMOOTH",
"804 69 OFFCURVE",
"843 155 OFFCURVE",
"843 251 CURVE SMOOTH",
"843 347 OFFCURVE",
"804 433 OFFCURVE",
"741 496 CURVE SMOOTH",
"678 559 OFFCURVE",
"592 597 OFFCURVE",
"496 597 CURVE SMOOTH",
"400 597 OFFCURVE",
"314 559 OFFCURVE",
"251 496 CURVE SMOOTH",
"188 433 OFFCURVE",
"150 347 OFFCURVE",
"150 251 CURVE SMOOTH"
);
},
{
closed = 1;
nodes = (
"533 457 LINE",
"540 462 OFFCURVE",
"547 465 OFFCURVE",
"554 465 CURVE SMOOTH",
"559 465 OFFCURVE",
"562 464 OFFCURVE",
"565 463 CURVE",
"577 458 OFFCURVE",
"583 450 OFFCURVE",
"583 437 CURVE SMOOTH",
"583 337 LINE SMOOTH",
"583 330 OFFCURVE",
"580 324 OFFCURVE",
"574 318 CURVE SMOOTH",
"527 271 LINE SMOOTH",
"522 266 OFFCURVE",
"519 259 OFFCURVE",
"519 251 CURVE SMOOTH",
"519 243 OFFCURVE",
"522 236 OFFCURVE",
"527 231 CURVE SMOOTH",
"574 184 LINE SMOOTH",
"580 178 OFFCURVE",
"583 171 OFFCURVE",
"583 164 CURVE SMOOTH",
"583 64 LINE SMOOTH",
"583 52 OFFCURVE",
"577 43 OFFCURVE",
"565 38 CURVE",
"561 37 OFFCURVE",
"558 36 OFFCURVE",
"554 36 CURVE SMOOTH",
"547 36 OFFCURVE",
"540 39 OFFCURVE",
"533 44 CURVE",
"347 231 LINE",
"341 236 OFFCURVE",
"338 243 OFFCURVE",
"338 251 CURVE SMOOTH",
"338 258 OFFCURVE",
"341 265 OFFCURVE",
"347 271 CURVE SMOOTH"
);
}
);
width = 993;
}
);
unicode = E01A;
},
{
glyphname = sf.chevron.right.circle.o;
lastChange = "2014-08-08 15:40:38 +0000";
layers = (
{
layerId = "7BDE272C-C7FB-4166-8673-7B6B584E769E";
name = Regular;
paths = (
{
closed = 1;
nodes = (
"50 374 OFFCURVE",
"100 485 OFFCURVE",
"181 566 CURVE SMOOTH",
"262 647 OFFCURVE",
"373 697 OFFCURVE",
"497 697 CURVE SMOOTH",
"621 697 OFFCURVE",
"732 647 OFFCURVE",
"812 566 CURVE SMOOTH",
"893 485 OFFCURVE",
"943 374 OFFCURVE",
"943 250 CURVE SMOOTH",
"943 127 OFFCURVE",
"893 15 OFFCURVE",
"812 -65 CURVE SMOOTH",
"732 -146 OFFCURVE",
"621 -196 OFFCURVE",
"497 -196 CURVE SMOOTH",
"373 -196 OFFCURVE",
"262 -146 OFFCURVE",
"181 -65 CURVE SMOOTH",
"100 15 OFFCURVE",
"50 127 OFFCURVE",
"50 250 CURVE SMOOTH"
);
},
{
closed = 1;
nodes = (
"843 346 OFFCURVE",
"805 432 OFFCURVE",
"742 496 CURVE SMOOTH",
"679 559 OFFCURVE",
"593 597 OFFCURVE",
"497 597 CURVE SMOOTH",
"401 597 OFFCURVE",
"315 559 OFFCURVE",
"252 496 CURVE SMOOTH",
"189 432 OFFCURVE",
"150 346 OFFCURVE",
"150 250 CURVE SMOOTH",
"150 154 OFFCURVE",
"189 68 OFFCURVE",
"252 5 CURVE SMOOTH",
"315 -58 OFFCURVE",
"401 -96 OFFCURVE",
"497 -96 CURVE SMOOTH",
"593 -96 OFFCURVE",
"679 -58 OFFCURVE",
"742 5 CURVE SMOOTH",
"805 68 OFFCURVE",
"843 154 OFFCURVE",
"843 250 CURVE SMOOTH"
);
},
{
closed = 1;
nodes = (
"460 44 LINE",
"453 39 OFFCURVE",
"446 36 OFFCURVE",
"439 36 CURVE SMOOTH",
"434 36 OFFCURVE",
"431 37 OFFCURVE",
"428 38 CURVE",
"416 43 OFFCURVE",
"410 51 OFFCURVE",
"410 64 CURVE SMOOTH",
"410 164 LINE SMOOTH",
"410 171 OFFCURVE",
"413 177 OFFCURVE",
"419 183 CURVE SMOOTH",
"466 230 LINE SMOOTH",
"471 235 OFFCURVE",
"474 242 OFFCURVE",
"474 250 CURVE SMOOTH",
"474 258 OFFCURVE",
"471 265 OFFCURVE",
"466 270 CURVE SMOOTH",
"419 317 LINE SMOOTH",
"413 323 OFFCURVE",
"410 330 OFFCURVE",
"410 337 CURVE SMOOTH",
"410 437 LINE SMOOTH",
"410 449 OFFCURVE",
"416 458 OFFCURVE",
"428 463 CURVE",
"432 464 OFFCURVE",
"435 465 OFFCURVE",
"439 465 CURVE SMOOTH",
"446 465 OFFCURVE",
"453 462 OFFCURVE",
"460 457 CURVE",
"646 270 LINE",
"652 265 OFFCURVE",
"655 258 OFFCURVE",
"655 250 CURVE SMOOTH",
"655 243 OFFCURVE",
"652 236 OFFCURVE",
"646 230 CURVE SMOOTH"
);
}
);
width = 993;
}
);
unicode = E01B;
},
{
glyphname = sf.chevron.up.circle.o;
lastChange = "2014-08-08 15:40:38 +0000";
layers = (
{
layerId = "7BDE272C-C7FB-4166-8673-7B6B584E769E";
name = Regular;
paths = (
{
closed = 1;
nodes = (
"373 -196 OFFCURVE",
"262 -146 OFFCURVE",
"181 -65 CURVE SMOOTH",
"100 16 OFFCURVE",
"50 127 OFFCURVE",
"50 251 CURVE SMOOTH",
"50 375 OFFCURVE",
"100 486 OFFCURVE",
"181 566 CURVE SMOOTH",
"262 647 OFFCURVE",
"373 697 OFFCURVE",
"497 697 CURVE SMOOTH",
"620 697 OFFCURVE",
"732 647 OFFCURVE",
"812 566 CURVE SMOOTH",
"893 486 OFFCURVE",
"943 375 OFFCURVE",
"943 251 CURVE SMOOTH",
"943 127 OFFCURVE",
"893 16 OFFCURVE",
"812 -65 CURVE SMOOTH",
"732 -146 OFFCURVE",
"620 -196 OFFCURVE",
"497 -196 CURVE SMOOTH"
);
},
{
closed = 1;
nodes = (
"401 597 OFFCURVE",
"315 559 OFFCURVE",
"251 496 CURVE SMOOTH",
"188 433 OFFCURVE",
"150 347 OFFCURVE",
"150 251 CURVE SMOOTH",
"150 155 OFFCURVE",
"188 69 OFFCURVE",
"251 6 CURVE SMOOTH",
"315 -57 OFFCURVE",
"401 -96 OFFCURVE",
"497 -96 CURVE SMOOTH",
"593 -96 OFFCURVE",
"679 -57 OFFCURVE",
"742 6 CURVE SMOOTH",
"805 69 OFFCURVE",
"843 155 OFFCURVE",
"843 251 CURVE SMOOTH",
"843 347 OFFCURVE",
"805 433 OFFCURVE",
"742 496 CURVE SMOOTH",
"679 559 OFFCURVE",
"593 597 OFFCURVE",
"497 597 CURVE SMOOTH"
);
},
{
closed = 1;
nodes = (
"703 214 LINE",
"708 207 OFFCURVE",
"711 200 OFFCURVE",
"711 193 CURVE SMOOTH",
"711 188 OFFCURVE",
"710 185 OFFCURVE",
"709 182 CURVE",
"704 170 OFFCURVE",
"696 164 OFFCURVE",
"683 164 CURVE SMOOTH",
"583 164 LINE SMOOTH",
"576 164 OFFCURVE",
"570 167 OFFCURVE",
"564 173 CURVE SMOOTH",
"517 220 LINE SMOOTH",
"512 225 OFFCURVE",
"505 228 OFFCURVE",
"497 228 CURVE SMOOTH",
"489 228 OFFCURVE",
"482 225 OFFCURVE",
"477 220 CURVE SMOOTH",
"430 173 LINE SMOOTH",
"424 167 OFFCURVE",
"417 164 OFFCURVE",
"410 164 CURVE SMOOTH",
"310 164 LINE SMOOTH",
"298 164 OFFCURVE",
"289 170 OFFCURVE",
"284 182 CURVE",
"283 186 OFFCURVE",
"282 189 OFFCURVE",
"282 193 CURVE SMOOTH",
"282 200 OFFCURVE",
"285 207 OFFCURVE",
"290 214 CURVE",
"477 400 LINE",
"482 406 OFFCURVE",
"489 409 OFFCURVE",
"497 409 CURVE SMOOTH",
"504 409 OFFCURVE",
"511 406 OFFCURVE",
"517 400 CURVE SMOOTH"
);
}
);
width = 993;
}
);
unicode = E019;
},
{
glyphname = sf.empty.circle;
lastChange = "2014-08-08 15:40:38 +0000";
layers = (
{
layerId = "7BDE272C-C7FB-4166-8673-7B6B584E769E";
name = Regular;
paths = (
{
closed = 1;
nodes = (
"910 131 OFFCURVE",
"862 25 OFFCURVE",
"784 -53 CURVE SMOOTH",
"706 -131 OFFCURVE",
"599 -180 OFFCURVE",
"480 -180 CURVE SMOOTH",
"361 -180 OFFCURVE",
"255 -131 OFFCURVE",
"177 -53 CURVE SMOOTH",
"99 25 OFFCURVE",
"50 131 OFFCURVE",
"50 250 CURVE SMOOTH",
"50 369 OFFCURVE",
"99 476 OFFCURVE",
"177 554 CURVE SMOOTH",
"255 632 OFFCURVE",
"361 680 OFFCURVE",
"480 680 CURVE SMOOTH",
"599 680 OFFCURVE",
"706 632 OFFCURVE",
"784 554 CURVE SMOOTH",
"862 476 OFFCURVE",
"910 369 OFFCURVE",
"910 250 CURVE SMOOTH"
);
}
);
width = 960;
}
);
unicode = E021;
},
{
glyphname = sf.plus.circle;
lastChange = "2014-08-08 15:40:38 +0000";
layers = (
{
layerId = "7BDE272C-C7FB-4166-8673-7B6B584E769E";
name = Regular;
paths = (
{
closed = 1;
nodes = (
"599 680 OFFCURVE",
"706 632 OFFCURVE",
"784 554 CURVE SMOOTH",
"862 476 OFFCURVE",
"910 369 OFFCURVE",
"910 250 CURVE SMOOTH",
"910 131 OFFCURVE",
"862 25 OFFCURVE",
"784 -53 CURVE SMOOTH",
"706 -131 OFFCURVE",
"599 -180 OFFCURVE",
"480 -180 CURVE SMOOTH",
"361 -180 OFFCURVE",
"255 -131 OFFCURVE",
"177 -53 CURVE SMOOTH",
"99 25 OFFCURVE",
"50 131 OFFCURVE",
"50 250 CURVE SMOOTH",
"50 369 OFFCURVE",
"99 476 OFFCURVE",
"177 554 CURVE SMOOTH",
"255 632 OFFCURVE",
"361 680 OFFCURVE",
"480 680 CURVE SMOOTH"
);
},
{
closed = 1;
nodes = (
"770 280 LINE SMOOTH",
"770 303 OFFCURVE",
"753 320 OFFCURVE",
"730 320 CURVE SMOOTH",
"551 320 LINE",
"551 500 LINE SMOOTH",
"551 523 OFFCURVE",
"534 540 OFFCURVE",
"511 540 CURVE SMOOTH",
"451 540 LINE SMOOTH",
"428 540 OFFCURVE",
"411 523 OFFCURVE",
"411 500 CURVE SMOOTH",
"411 320 LINE",
"230 320 LINE SMOOTH",
"207 320 OFFCURVE",
"190 303 OFFCURVE",
"190 280 CURVE SMOOTH",
"190 220 LINE SMOOTH",
"190 197 OFFCURVE",
"207 180 OFFCURVE",
"230 180 CURVE SMOOTH",
"411 180 LINE",
"411 0 LINE SMOOTH",
"411 -23 OFFCURVE",
"428 -40 OFFCURVE",
"451 -40 CURVE SMOOTH",
"511 -40 LINE SMOOTH",
"534 -40 OFFCURVE",
"551 -23 OFFCURVE",
"551 0 CURVE SMOOTH",
"551 180 LINE",
"730 180 LINE SMOOTH",
"753 180 OFFCURVE",
"770 197 OFFCURVE",
"770 220 CURVE SMOOTH"
);
}
);
width = 960;
}
);
unicode = E024;
},
{
glyphname = sf.minus.circle;
lastChange = "2014-08-08 15:40:38 +0000";
layers = (
{
layerId = "7BDE272C-C7FB-4166-8673-7B6B584E769E";
name = Regular;
paths = (
{
closed = 1;
nodes = (
"599 680 OFFCURVE",
"706 632 OFFCURVE",
"784 554 CURVE SMOOTH",
"862 476 OFFCURVE",
"910 369 OFFCURVE",
"910 250 CURVE SMOOTH",
"910 131 OFFCURVE",
"862 25 OFFCURVE",
"784 -53 CURVE SMOOTH",
"706 -131 OFFCURVE",
"599 -180 OFFCURVE",
"480 -180 CURVE SMOOTH",
"361 -180 OFFCURVE",
"255 -131 OFFCURVE",
"177 -53 CURVE SMOOTH",
"99 25 OFFCURVE",
"50 131 OFFCURVE",
"50 250 CURVE SMOOTH",
"50 369 OFFCURVE",
"99 476 OFFCURVE",
"177 554 CURVE SMOOTH",
"255 632 OFFCURVE",
"361 680 OFFCURVE",
"480 680 CURVE SMOOTH"
);
},
{
closed = 1;
nodes = (
"770 280 LINE SMOOTH",
"770 303 OFFCURVE",
"753 320 OFFCURVE",
"730 320 CURVE SMOOTH",
"230 320 LINE SMOOTH",
"207 320 OFFCURVE",
"190 303 OFFCURVE",
"190 280 CURVE SMOOTH",
"190 220 LINE SMOOTH",
"190 197 OFFCURVE",
"207 180 OFFCURVE",
"230 180 CURVE SMOOTH",
"730 180 LINE SMOOTH",
"753 180 OFFCURVE",
"770 197 OFFCURVE",
"770 220 CURVE SMOOTH"
);
}
);
width = 960;
}
);
unicode = E023;
},
{
glyphname = sf.checked.circle;
lastChange = "2014-08-08 15:40:38 +0000";
layers = (
{
layerId = "7BDE272C-C7FB-4166-8673-7B6B584E769E";
name = Regular;
paths = (
{
closed = 1;
nodes = (
"599 680 OFFCURVE",
"706 632 OFFCURVE",
"784 554 CURVE SMOOTH",
"862 476 OFFCURVE",
"910 369 OFFCURVE",
"910 250 CURVE SMOOTH",
"910 131 OFFCURVE",
"862 25 OFFCURVE",
"784 -53 CURVE SMOOTH",
"706 -131 OFFCURVE",
"599 -180 OFFCURVE",
"480 -180 CURVE SMOOTH",
"361 -180 OFFCURVE",
"255 -131 OFFCURVE",
"177 -53 CURVE SMOOTH",
"99 25 OFFCURVE",
"50 131 OFFCURVE",
"50 250 CURVE SMOOTH",
"50 369 OFFCURVE",
"99 476 OFFCURVE",
"177 554 CURVE SMOOTH",
"255 632 OFFCURVE",
"361 680 OFFCURVE",
"480 680 CURVE SMOOTH"
);
},
{
closed = 1;
nodes = (
"738 349 LINE",
"745 355 OFFCURVE",
"748 363 OFFCURVE",
"748 372 CURVE SMOOTH",
"748 381 OFFCURVE",
"745 389 OFFCURVE",
"738 396 CURVE SMOOTH",
"693 442 LINE",
"685 449 OFFCURVE",
"677 452 OFFCURVE",
"669 452 CURVE SMOOTH",
"660 452 OFFCURVE",
"653 449 OFFCURVE",
"646 442 CURVE SMOOTH",
"401 197 LINE",
"292 306 LINE",
"284 313 OFFCURVE",
"276 316 OFFCURVE",
"268 316 CURVE SMOOTH",
"259 316 OFFCURVE",
"252 313 OFFCURVE",
"245 306 CURVE SMOOTH",
"199 261 LINE SMOOTH",
"192 254 OFFCURVE",
"189 246 OFFCURVE",
"189 237 CURVE SMOOTH",
"189 228 OFFCURVE",
"192 220 OFFCURVE",
"199 214 CURVE",
"377 35 LINE",
"383 28 OFFCURVE",
"391 25 OFFCURVE",
"400 25 CURVE SMOOTH",
"409 25 OFFCURVE",
"417 28 OFFCURVE",
"424 35 CURVE SMOOTH"
);
}
);
width = 960;
}
);
unicode = E022;
},
{
glyphname = sf.x.circle;
lastChange = "2014-08-08 15:40:38 +0000";
layers = (
{
layerId = "7BDE272C-C7FB-4166-8673-7B6B584E769E";
name = Regular;
paths = (
{
closed = 1;
nodes = (
"599 680 OFFCURVE",
"706 632 OFFCURVE",
"784 554 CURVE SMOOTH",
"862 476 OFFCURVE",
"910 369 OFFCURVE",
"910 250 CURVE SMOOTH",
"910 131 OFFCURVE",
"862 25 OFFCURVE",
"784 -53 CURVE SMOOTH",
"706 -131 OFFCURVE",
"599 -180 OFFCURVE",
"480 -180 CURVE SMOOTH",
"361 -180 OFFCURVE",
"255 -131 OFFCURVE",
"177 -53 CURVE SMOOTH",
"99 25 OFFCURVE",
"50 131 OFFCURVE",
"50 250 CURVE SMOOTH",
"50 369 OFFCURVE",
"99 476 OFFCURVE",
"177 554 CURVE SMOOTH",
"255 632 OFFCURVE",
"361 680 OFFCURVE",
"480 680 CURVE SMOOTH"
);
},
{
closed = 1;
nodes = (
"579 246 LINE",
"707 373 LINE",
"715 380 OFFCURVE",
"719 390 OFFCURVE",
"719 401 CURVE SMOOTH",
"719 412 OFFCURVE",
"715 422 OFFCURVE",
"707 430 CURVE SMOOTH",
"664 472 LINE SMOOTH",
"656 480 OFFCURVE",
"646 484 OFFCURVE",
"635 484 CURVE SMOOTH",
"624 484 OFFCURVE",
"615 480 OFFCURVE",
"608 472 CURVE",
"480 345 LINE",
"352 473 LINE SMOOTH",
"344 481 OFFCURVE",
"335 485 OFFCURVE",
"324 485 CURVE SMOOTH",
"313 485 OFFCURVE",
"303 481 OFFCURVE",
"296 473 CURVE",
"253 431 LINE",
"245 424 OFFCURVE",
"241 414 OFFCURVE",
"241 403 CURVE SMOOTH",
"241 392 OFFCURVE",
"245 382 OFFCURVE",
"253 374 CURVE SMOOTH",
"381 246 LINE",
"254 119 LINE SMOOTH",
"246 111 OFFCURVE",
"242 101 OFFCURVE",
"242 90 CURVE SMOOTH",
"242 79 OFFCURVE",
"246 70 OFFCURVE",
"254 62 CURVE SMOOTH",
"297 20 LINE SMOOTH",
"305 12 OFFCURVE",
"314 8 OFFCURVE",
"325 8 CURVE SMOOTH",
"336 8 OFFCURVE",
"345 12 OFFCURVE",
"353 20 CURVE SMOOTH",
"480 147 LINE",
"607 21 LINE SMOOTH",
"615 13 OFFCURVE",
"624 9 OFFCURVE",
"635 9 CURVE SMOOTH",
"646 9 OFFCURVE",
"655 13 OFFCURVE",
"663 21 CURVE SMOOTH",
"706 63 LINE SMOOTH",
"714 71 OFFCURVE",
"718 80 OFFCURVE",
"718 91 CURVE SMOOTH",
"718 102 OFFCURVE",
"714 112 OFFCURVE",
"706 120 CURVE SMOOTH"
);
}
);
width = 960;
}
);
unicode = E025;
},
{
glyphname = sf.empty.circle.o;
lastChange = "2014-08-08 15:40:38 +0000";
layers = (
{
layerId = "7BDE272C-C7FB-4166-8673-7B6B584E769E";
name = Regular;
paths = (
{
closed = 1;
nodes = (
"899 365 OFFCURVE",
"910 309 OFFCURVE",
"910 250 CURVE SMOOTH",
"910 133 OFFCURVE",
"864 25 OFFCURVE",
"784 -55 CURVE SMOOTH",
"705 -134 OFFCURVE",
"596 -180 OFFCURVE",
"480 -180 CURVE SMOOTH",
"363 -180 OFFCURVE",
"255 -134 OFFCURVE",
"175 -54 CURVE SMOOTH",
"96 25 OFFCURVE",
"50 133 OFFCURVE",
"50 250 CURVE SMOOTH",
"50 366 OFFCURVE",
"96 475 OFFCURVE",
"176 555 CURVE SMOOTH",
"255 634 OFFCURVE",
"363 680 OFFCURVE",
"480 680 CURVE SMOOTH",
"596 680 OFFCURVE",
"705 634 OFFCURVE",
"785 554 CURVE SMOOTH",
"825 514 OFFCURVE",
"855 468 OFFCURVE",
"876 417 CURVE SMOOTH"
);
},
{
closed = 1;
nodes = (
"801 163 OFFCURVE",
"810 205 OFFCURVE",
"810 250 CURVE SMOOTH",
"810 339 OFFCURVE",
"773 424 OFFCURVE",
"713 484 CURVE SMOOTH",
"654 543 OFFCURVE",
"569 580 OFFCURVE",
"480 580 CURVE SMOOTH",
"391 580 OFFCURVE",
"306 543 OFFCURVE",
"246 483 CURVE SMOOTH",
"187 424 OFFCURVE",
"150 339 OFFCURVE",
"150 250 CURVE SMOOTH",
"150 161 OFFCURVE",
"187 76 OFFCURVE",
"247 16 CURVE SMOOTH",
"306 -43 OFFCURVE",
"391 -80 OFFCURVE",
"480 -80 CURVE SMOOTH",
"569 -80 OFFCURVE",
"654 -43 OFFCURVE",
"714 17 CURVE SMOOTH",
"743 46 OFFCURVE",
"767 81 OFFCURVE",
"784 122 CURVE SMOOTH"
);
}
);
width = 960;
}
);
unicode = E02B;
},
{
glyphname = sf.plus.circle.o;
lastChange = "2014-08-08 15:40:38 +0000";
layers = (
{
layerId = "7BDE272C-C7FB-4166-8673-7B6B584E769E";
name = Regular;
paths = (
{
closed = 1;
nodes = (
"650 320 LINE SMOOTH",
"673 320 OFFCURVE",
"690 303 OFFCURVE",
"690 280 CURVE SMOOTH",
"690 220 LINE SMOOTH",
"690 197 OFFCURVE",
"673 180 OFFCURVE",
"650 180 CURVE SMOOTH",
"551 180 LINE",
"551 80 LINE SMOOTH",
"551 57 OFFCURVE",
"534 40 OFFCURVE",
"511 40 CURVE SMOOTH",
"451 40 LINE SMOOTH",
"428 40 OFFCURVE",
"411 57 OFFCURVE",
"411 80 CURVE SMOOTH",
"411 180 LINE",
"310 180 LINE SMOOTH",
"287 180 OFFCURVE",
"270 197 OFFCURVE",
"270 220 CURVE SMOOTH",
"270 280 LINE SMOOTH",
"270 303 OFFCURVE",
"287 320 OFFCURVE",
"310 320 CURVE SMOOTH",
"411 320 LINE",
"411 420 LINE SMOOTH",
"411 443 OFFCURVE",
"428 460 OFFCURVE",
"451 460 CURVE SMOOTH",
"511 460 LINE SMOOTH",
"534 460 OFFCURVE",
"551 443 OFFCURVE",
"551 420 CURVE SMOOTH",
"551 320 LINE"
);
},
{
closed = 1;
nodes = (
"899 365 OFFCURVE",
"910 309 OFFCURVE",
"910 250 CURVE SMOOTH",
"910 133 OFFCURVE",
"864 25 OFFCURVE",
"784 -55 CURVE SMOOTH",
"744 -95 OFFCURVE",
"699 -125 OFFCURVE",
"648 -146 CURVE SMOOTH",
"595 -169 OFFCURVE",
"539 -180 OFFCURVE",
"480 -180 CURVE SMOOTH",
"421 -180 OFFCURVE",
"365 -169 OFFCURVE",
"313 -146 CURVE",
"210 -105 OFFCURVE",
"128 -21 OFFCURVE",
"84 83 CURVE SMOOTH",
"61 138 OFFCURVE",
"50 193 OFFCURVE",
"50 250 CURVE SMOOTH",
"50 363 OFFCURVE",
"97 475 OFFCURVE",
"176 554 CURVE SMOOTH",
"256 634 OFFCURVE",
"361 680 OFFCURVE",
"480 680 CURVE SMOOTH",
"539 680 OFFCURVE",
"595 669 OFFCURVE",
"648 646 CURVE SMOOTH",
"749 603 OFFCURVE",
"835 520 OFFCURVE",
"876 417 CURVE"
);
},
{
closed = 1;
nodes = (
"801 163 OFFCURVE",
"810 205 OFFCURVE",
"810 250 CURVE SMOOTH",
"810 339 OFFCURVE",
"777 420 OFFCURVE",
"714 483 CURVE SMOOTH",
"654 543 OFFCURVE",
"568 580 OFFCURVE",
"480 580 CURVE SMOOTH",
"391 580 OFFCURVE",
"304 543 OFFCURVE",
"247 483 CURVE SMOOTH",
"186 422 OFFCURVE",
"150 339 OFFCURVE",
"150 250 CURVE SMOOTH",
"150 161 OFFCURVE",
"186 78 OFFCURVE",
"247 17 CURVE SMOOTH",
"304 -43 OFFCURVE",
"391 -80 OFFCURVE",
"480 -80 CURVE SMOOTH",
"568 -80 OFFCURVE",
"654 -43 OFFCURVE",
"714 17 CURVE SMOOTH",
"745 48 OFFCURVE",
"769 83 OFFCURVE",
"784 122 CURVE SMOOTH"
);
}
);
width = 960;
}
);
unicode = E02D;
},
{
glyphname = sf.minus.circle.o;
lastChange = "2014-08-08 15:40:38 +0000";
layers = (
{
layerId = "7BDE272C-C7FB-4166-8673-7B6B584E769E";
name = Regular;
paths = (
{
closed = 1;
nodes = (
"689 220 LINE SMOOTH",
"689 197 OFFCURVE",
"672 180 OFFCURVE",
"649 180 CURVE SMOOTH",
"309 180 LINE SMOOTH",
"286 180 OFFCURVE",
"269 197 OFFCURVE",
"269 220 CURVE SMOOTH",
"269 280 LINE SMOOTH",
"269 303 OFFCURVE",
"286 320 OFFCURVE",
"309 320 CURVE SMOOTH",
"649 320 LINE SMOOTH",
"672 320 OFFCURVE",
"689 303 OFFCURVE",
"689 280 CURVE SMOOTH"
);
},
{
closed = 1;
nodes = (
"899 362 OFFCURVE",
"910 307 OFFCURVE",
"910 250 CURVE SMOOTH",
"910 137 OFFCURVE",
"863 25 OFFCURVE",
"784 -54 CURVE SMOOTH",
"703 -135 OFFCURVE",
"599 -180 OFFCURVE",
"480 -180 CURVE SMOOTH",
"421 -180 OFFCURVE",
"365 -169 OFFCURVE",
"312 -146 CURVE SMOOTH",
"209 -105 OFFCURVE",
"127 -21 OFFCURVE",
"83 83 CURVE SMOOTH",
"61 136 OFFCURVE",
"50 191 OFFCURVE",
"50 250 CURVE SMOOTH",
"50 366 OFFCURVE",
"96 475 OFFCURVE",
"176 555 CURVE SMOOTH",
"215 594 OFFCURVE",
"261 625 OFFCURVE",
"312 646 CURVE SMOOTH",
"365 669 OFFCURVE",
"421 680 OFFCURVE",
"480 680 CURVE SMOOTH",
"599 680 OFFCURVE",
"703 634 OFFCURVE",
"784 554 CURVE SMOOTH",
"823 515 OFFCURVE",
"854 469 OFFCURVE",
"876 417 CURVE SMOOTH"
);
},
{
closed = 1;
nodes = (
"801 163 OFFCURVE",
"810 205 OFFCURVE",
"810 250 CURVE SMOOTH",
"810 339 OFFCURVE",
"774 422 OFFCURVE",
"713 483 CURVE SMOOTH",
"682 514 OFFCURVE",
"647 537 OFFCURVE",
"608 554 CURVE SMOOTH",
"567 571 OFFCURVE",
"525 580 OFFCURVE",
"480 580 CURVE SMOOTH",
"392 580 OFFCURVE",
"306 543 OFFCURVE",
"246 483 CURVE SMOOTH",
"185 422 OFFCURVE",
"150 342 OFFCURVE",
"150 250 CURVE SMOOTH",
"150 158 OFFCURVE",
"185 78 OFFCURVE",
"246 17 CURVE SMOOTH",
"306 -43 OFFCURVE",
"392 -80 OFFCURVE",
"480 -80 CURVE SMOOTH",
"525 -80 OFFCURVE",
"567 -71 OFFCURVE",
"608 -54 CURVE SMOOTH",
"647 -37 OFFCURVE",
"682 -14 OFFCURVE",
"713 17 CURVE SMOOTH",
"744 48 OFFCURVE",
"767 83 OFFCURVE",
"784 122 CURVE SMOOTH"
);
}
);
width = 960;
}
);
unicode = E02C;
},
{
glyphname = sf.checked.circle.o;
lastChange = "2014-08-08 15:40:38 +0000";
layers = (
{
layerId = "7BDE272C-C7FB-4166-8673-7B6B584E769E";
name = Regular;
paths = (
{
closed = 1;
nodes = (
"899 365 OFFCURVE",
"910 309 OFFCURVE",
"910 250 CURVE SMOOTH",
"910 133 OFFCURVE",
"864 25 OFFCURVE",
"784 -55 CURVE SMOOTH",
"705 -134 OFFCURVE",
"596 -180 OFFCURVE",
"480 -180 CURVE SMOOTH",
"363 -180 OFFCURVE",
"257 -135 OFFCURVE",
"176 -54 CURVE SMOOTH",
"97 25 OFFCURVE",
"50 131 OFFCURVE",
"50 250 CURVE SMOOTH",
"50 369 OFFCURVE",
"97 475 OFFCURVE",
"176 554 CURVE SMOOTH",
"257 635 OFFCURVE",
"363 680 OFFCURVE",
"480 680 CURVE SMOOTH",
"596 680 OFFCURVE",
"705 634 OFFCURVE",
"785 554 CURVE SMOOTH",
"825 514 OFFCURVE",
"855 468 OFFCURVE",
"876 417 CURVE SMOOTH"
);
},
{
closed = 1;
nodes = (
"801 163 OFFCURVE",
"810 205 OFFCURVE",
"810 250 CURVE SMOOTH",
"810 339 OFFCURVE",
"777 420 OFFCURVE",
"713 484 CURVE SMOOTH",
"654 543 OFFCURVE",
"568 580 OFFCURVE",
"480 580 CURVE SMOOTH",
"391 580 OFFCURVE",
"306 543 OFFCURVE",
"246 483 CURVE SMOOTH",
"187 424 OFFCURVE",
"150 339 OFFCURVE",
"150 250 CURVE SMOOTH",
"150 161 OFFCURVE",
"187 76 OFFCURVE",
"247 16 CURVE SMOOTH",
"306 -43 OFFCURVE",
"391 -80 OFFCURVE",
"480 -80 CURVE SMOOTH",
"568 -80 OFFCURVE",
"654 -43 OFFCURVE",
"714 17 CURVE SMOOTH",
"745 48 OFFCURVE",
"769 83 OFFCURVE",
"784 122 CURVE SMOOTH"
);
},
{
closed = 1;
nodes = (
"438 64 LINE SMOOTH",
"431 57 OFFCURVE",
"423 54 OFFCURVE",
"414 54 CURVE SMOOTH",
"405 54 OFFCURVE",
"397 57 OFFCURVE",
"391 64 CURVE",
"242 214 LINE SMOOTH",
"235 221 OFFCURVE",
"232 229 OFFCURVE",
"232 238 CURVE SMOOTH",
"232 247 OFFCURVE",
"235 255 OFFCURVE",
"242 261 CURVE",
"287 306 LINE SMOOTH",
"294 313 OFFCURVE",
"301 316 OFFCURVE",
"310 316 CURVE SMOOTH",
"318 316 OFFCURVE",
"326 313 OFFCURVE",
"334 306 CURVE",
"415 225 LINE",
"602 412 LINE",
"608 419 OFFCURVE",
"616 422 OFFCURVE",
"625 422 CURVE SMOOTH",
"634 422 OFFCURVE",
"642 419 OFFCURVE",
"649 412 CURVE SMOOTH",
"695 367 LINE",
"702 361 OFFCURVE",
"705 353 OFFCURVE",
"705 344 CURVE SMOOTH",
"705 335 OFFCURVE",
"702 327 OFFCURVE",
"695 320 CURVE SMOOTH"
);
}
);
width = 960;
}
);
unicode = E02E;
},
{
glyphname = sf.x.circle.o;
lastChange = "2014-08-08 15:40:38 +0000";
layers = (
{
layerId = "7BDE272C-C7FB-4166-8673-7B6B584E769E";
name = Regular;
paths = (
{
closed = 1;
nodes = (
"899 365 OFFCURVE",
"910 309 OFFCURVE",
"910 250 CURVE SMOOTH",
"910 133 OFFCURVE",
"864 25 OFFCURVE",
"784 -55 CURVE SMOOTH",
"744 -95 OFFCURVE",
"699 -125 OFFCURVE",
"648 -146 CURVE SMOOTH",
"595 -169 OFFCURVE",
"539 -180 OFFCURVE",
"480 -180 CURVE SMOOTH",
"421 -180 OFFCURVE",
"365 -169 OFFCURVE",
"313 -146 CURVE",
"210 -105 OFFCURVE",
"128 -21 OFFCURVE",
"84 83 CURVE SMOOTH",
"61 138 OFFCURVE",
"50 193 OFFCURVE",
"50 250 CURVE SMOOTH",
"50 363 OFFCURVE",
"97 475 OFFCURVE",
"176 554 CURVE SMOOTH",
"256 634 OFFCURVE",
"361 680 OFFCURVE",
"480 680 CURVE SMOOTH",
"539 680 OFFCURVE",
"595 669 OFFCURVE",
"648 646 CURVE SMOOTH",
"749 603 OFFCURVE",
"835 520 OFFCURVE",
"876 417 CURVE"
);
},
{
closed = 1;
nodes = (
"801 161 OFFCURVE",
"810 203 OFFCURVE",
"810 250 CURVE SMOOTH",
"810 342 OFFCURVE",
"775 422 OFFCURVE",
"714 483 CURVE SMOOTH",
"654 543 OFFCURVE",
"568 580 OFFCURVE",
"480 580 CURVE SMOOTH",
"437 580 OFFCURVE",
"394 571 OFFCURVE",
"352 554 CURVE SMOOTH",
"313 537 OFFCURVE",
"278 514 OFFCURVE",
"247 483 CURVE SMOOTH",
"186 422 OFFCURVE",
"150 339 OFFCURVE",
"150 250 CURVE SMOOTH",
"150 161 OFFCURVE",
"186 78 OFFCURVE",
"247 17 CURVE SMOOTH",
"278 -14 OFFCURVE",
"313 -37 OFFCURVE",
"352 -54 CURVE SMOOTH",
"394 -71 OFFCURVE",
"437 -80 OFFCURVE",
"480 -80 CURVE SMOOTH",
"568 -80 OFFCURVE",
"654 -43 OFFCURVE",
"714 17 CURVE SMOOTH",
"745 48 OFFCURVE",
"769 83 OFFCURVE",
"784 122 CURVE"
);
},
{
closed = 1;
nodes = (
"653 179 LINE SMOOTH",
"661 171 OFFCURVE",
"665 162 OFFCURVE",
"665 151 CURVE SMOOTH",
"665 140 OFFCURVE",
"661 130 OFFCURVE",
"653 123 CURVE",
"611 80 LINE",
"604 72 OFFCURVE",
"594 68 OFFCURVE",
"583 68 CURVE SMOOTH",
"572 68 OFFCURVE",
"562 72 OFFCURVE",
"554 80 CURVE SMOOTH",
"484 150 LINE",
"413 80 LINE SMOOTH",
"405 72 OFFCURVE",
"395 68 OFFCURVE",
"384 68 CURVE SMOOTH",
"373 68 OFFCURVE",
"364 72 OFFCURVE",
"357 80 CURVE",
"314 122 LINE",
"306 129 OFFCURVE",
"302 139 OFFCURVE",
"302 150 CURVE SMOOTH",
"302 161 OFFCURVE",
"306 171 OFFCURVE",
"314 179 CURVE SMOOTH",
"385 249 LINE",
"314 321 LINE SMOOTH",
"306 329 OFFCURVE",
"302 339 OFFCURVE",
"302 350 CURVE SMOOTH",
"302 361 OFFCURVE",
"306 370 OFFCURVE",
"314 377 CURVE",
"356 420 LINE",
"363 428 OFFCURVE",
"373 432 OFFCURVE",
"384 432 CURVE SMOOTH",
"395 432 OFFCURVE",
"405 428 OFFCURVE",
"413 420 CURVE SMOOTH",
"484 348 LINE",
"555 419 LINE",
"562 427 OFFCURVE",
"572 431 OFFCURVE",
"583 431 CURVE SMOOTH",
"594 431 OFFCURVE",
"603 427 OFFCURVE",
"611 419 CURVE SMOOTH",
"654 377 LINE",
"662 370 OFFCURVE",
"666 360 OFFCURVE",
"666 349 CURVE SMOOTH",
"666 338 OFFCURVE",
"662 328 OFFCURVE",
"654 320 CURVE SMOOTH",
"583 249 LINE"
);
}
);
width = 960;
}
);
unicode = E02F;
},
{
glyphname = sf.empty.square;
lastChange = "2014-08-08 15:40:38 +0000";
layers = (
{
layerId = "7BDE272C-C7FB-4166-8673-7B6B584E769E";
name = Regular;
paths = (
{
closed = 1;
nodes = (
"760 680 LINE SMOOTH",
"801 680 OFFCURVE",
"839 663 OFFCURVE",
"866 636 CURVE SMOOTH",
"893 609 OFFCURVE",
"910 571 OFFCURVE",
"910 530 CURVE SMOOTH",
"910 -30 LINE SMOOTH",
"910 -71 OFFCURVE",
"893 -109 OFFCURVE",
"866 -136 CURVE SMOOTH",
"839 -163 OFFCURVE",
"801 -180 OFFCURVE",
"760 -180 CURVE SMOOTH",
"200 -180 LINE SMOOTH",
"159 -180 OFFCURVE",
"121 -163 OFFCURVE",
"94 -136 CURVE SMOOTH",
"67 -109 OFFCURVE",
"50 -71 OFFCURVE",
"50 -30 CURVE SMOOTH",
"50 530 LINE SMOOTH",
"50 571 OFFCURVE",
"67 609 OFFCURVE",
"94 636 CURVE SMOOTH",
"121 663 OFFCURVE",
"159 680 OFFCURVE",
"200 680 CURVE SMOOTH"
);
}
);
width = 960;
}
);
unicode = E01C;
},
{
glyphname = sf.plus.square;
lastChange = "2014-08-08 15:40:38 +0000";
layers = (
{
layerId = "7BDE272C-C7FB-4166-8673-7B6B584E769E";
name = Regular;
paths = (
{
closed = 1;
nodes = (
"760 680 LINE SMOOTH",
"801 680 OFFCURVE",
"839 663 OFFCURVE",
"866 636 CURVE SMOOTH",
"893 609 OFFCURVE",
"910 571 OFFCURVE",
"910 530 CURVE SMOOTH",
"910 -30 LINE SMOOTH",
"910 -71 OFFCURVE",
"893 -109 OFFCURVE",
"866 -136 CURVE SMOOTH",
"839 -163 OFFCURVE",
"801 -180 OFFCURVE",
"760 -180 CURVE SMOOTH",
"200 -180 LINE SMOOTH",
"159 -180 OFFCURVE",
"121 -163 OFFCURVE",
"94 -136 CURVE SMOOTH",
"67 -109 OFFCURVE",
"50 -71 OFFCURVE",
"50 -30 CURVE SMOOTH",
"50 530 LINE SMOOTH",
"50 571 OFFCURVE",
"67 609 OFFCURVE",
"94 636 CURVE SMOOTH",
"121 663 OFFCURVE",
"159 680 OFFCURVE",
"200 680 CURVE SMOOTH"
);
},
{
closed = 1;
nodes = (
"770 280 LINE SMOOTH",
"770 303 OFFCURVE",
"753 320 OFFCURVE",
"730 320 CURVE SMOOTH",
"550 320 LINE",
"550 500 LINE SMOOTH",
"550 523 OFFCURVE",
"533 540 OFFCURVE",
"510 540 CURVE SMOOTH",
"450 540 LINE SMOOTH",
"427 540 OFFCURVE",
"410 523 OFFCURVE",
"410 500 CURVE SMOOTH",
"410 320 LINE",
"230 320 LINE SMOOTH",
"207 320 OFFCURVE",
"190 303 OFFCURVE",
"190 280 CURVE SMOOTH",
"190 220 LINE SMOOTH",
"190 197 OFFCURVE",
"207 180 OFFCURVE",
"230 180 CURVE SMOOTH",
"410 180 LINE",
"410 0 LINE SMOOTH",
"410 -23 OFFCURVE",
"427 -40 OFFCURVE",
"450 -40 CURVE SMOOTH",
"510 -40 LINE SMOOTH",
"533 -40 OFFCURVE",
"550 -23 OFFCURVE",
"550 0 CURVE SMOOTH",
"550 180 LINE",
"730 180 LINE SMOOTH",
"753 180 OFFCURVE",
"770 197 OFFCURVE",
"770 220 CURVE SMOOTH"
);
}
);
width = 960;
}
);
unicode = E01E;
},
{
glyphname = sf.minus.square;
lastChange = "2014-08-08 15:40:38 +0000";
layers = (
{
layerId = "7BDE272C-C7FB-4166-8673-7B6B584E769E";
name = Regular;
paths = (
{
closed = 1;
nodes = (
"760 680 LINE SMOOTH",
"801 680 OFFCURVE",
"839 663 OFFCURVE",
"866 636 CURVE SMOOTH",
"893 609 OFFCURVE",
"910 571 OFFCURVE",
"910 530 CURVE SMOOTH",
"910 -30 LINE SMOOTH",
"910 -71 OFFCURVE",
"893 -109 OFFCURVE",
"866 -136 CURVE SMOOTH",
"839 -163 OFFCURVE",
"801 -180 OFFCURVE",
"760 -180 CURVE SMOOTH",
"200 -180 LINE SMOOTH",
"159 -180 OFFCURVE",
"121 -163 OFFCURVE",
"94 -136 CURVE SMOOTH",
"67 -109 OFFCURVE",
"50 -71 OFFCURVE",
"50 -30 CURVE SMOOTH",
"50 530 LINE SMOOTH",
"50 571 OFFCURVE",
"67 609 OFFCURVE",
"94 636 CURVE SMOOTH",
"121 663 OFFCURVE",
"159 680 OFFCURVE",
"200 680 CURVE SMOOTH"
);
},
{
closed = 1;
nodes = (
"770 280 LINE SMOOTH",
"770 303 OFFCURVE",
"753 320 OFFCURVE",
"730 320 CURVE SMOOTH",
"230 320 LINE SMOOTH",
"207 320 OFFCURVE",
"190 303 OFFCURVE",
"190 280 CURVE SMOOTH",
"190 220 LINE SMOOTH",
"190 197 OFFCURVE",
"207 180 OFFCURVE",
"230 180 CURVE SMOOTH",
"730 180 LINE SMOOTH",
"753 180 OFFCURVE",
"770 197 OFFCURVE",
"770 220 CURVE SMOOTH"
);
}
);
width = 960;
}
);
unicode = E01F;
},
{
glyphname = sf.checked.square;
lastChange = "2014-08-08 15:40:38 +0000";
layers = (
{
layerId = "7BDE272C-C7FB-4166-8673-7B6B584E769E";
name = Regular;
paths = (
{
closed = 1;
nodes = (
"910 -30 LINE SMOOTH",
"910 -71 OFFCURVE",
"893 -109 OFFCURVE",
"866 -136 CURVE SMOOTH",
"839 -163 OFFCURVE",
"801 -180 OFFCURVE",
"760 -180 CURVE SMOOTH",
"200 -180 LINE SMOOTH",
"159 -180 OFFCURVE",
"121 -163 OFFCURVE",
"94 -136 CURVE SMOOTH",
"67 -109 OFFCURVE",
"50 -71 OFFCURVE",
"50 -30 CURVE SMOOTH",
"50 530 LINE SMOOTH",
"50 571 OFFCURVE",
"67 609 OFFCURVE",
"94 636 CURVE SMOOTH",
"121 663 OFFCURVE",
"159 680 OFFCURVE",
"200 680 CURVE SMOOTH",
"760 680 LINE SMOOTH",
"801 680 OFFCURVE",
"839 663 OFFCURVE",
"866 636 CURVE SMOOTH",
"893 609 OFFCURVE",
"910 571 OFFCURVE",
"910 530 CURVE SMOOTH"
);
},
{
closed = 1;
nodes = (
"761 371 LINE",
"768 379 OFFCURVE",
"771 387 OFFCURVE",
"771 395 CURVE SMOOTH",
"771 403 OFFCURVE",
"768 411 OFFCURVE",
"761 419 CURVE",
"715 464 LINE",
"707 471 OFFCURVE",
"699 474 OFFCURVE",
"691 474 CURVE SMOOTH",
"682 474 OFFCURVE",
"675 471 OFFCURVE",
"668 464 CURVE SMOOTH",
"401 197 LINE",
"292 306 LINE",
"284 313 OFFCURVE",
"276 316 OFFCURVE",
"268 316 CURVE SMOOTH",
"259 316 OFFCURVE",
"252 313 OFFCURVE",
"245 306 CURVE SMOOTH",
"199 260 LINE SMOOTH",
"192 253 OFFCURVE",
"189 246 OFFCURVE",
"189 237 CURVE SMOOTH",
"189 228 OFFCURVE",
"192 220 OFFCURVE",
"199 213 CURVE SMOOTH",
"377 35 LINE",
"383 28 OFFCURVE",
"391 25 OFFCURVE",
"400 25 CURVE SMOOTH",
"409 25 OFFCURVE",
"417 28 OFFCURVE",
"424 35 CURVE SMOOTH"
);
}
);
width = 960;
}
);
unicode = E01D;
},
{
glyphname = sf.x.square;
lastChange = "2014-08-08 15:40:38 +0000";
layers = (
{
layerId = "7BDE272C-C7FB-4166-8673-7B6B584E769E";
name = Regular;
paths = (
{
closed = 1;
nodes = (
"760 680 LINE SMOOTH",
"801 680 OFFCURVE",
"839 663 OFFCURVE",
"866 636 CURVE SMOOTH",
"893 608 OFFCURVE",
"910 571 OFFCURVE",
"910 530 CURVE SMOOTH",
"910 -30 LINE SMOOTH",
"910 -71 OFFCURVE",
"893 -109 OFFCURVE",
"866 -136 CURVE SMOOTH",
"839 -163 OFFCURVE",
"801 -180 OFFCURVE",
"760 -180 CURVE SMOOTH",
"200 -180 LINE SMOOTH",
"159 -180 OFFCURVE",
"121 -163 OFFCURVE",
"94 -136 CURVE SMOOTH",
"67 -109 OFFCURVE",
"50 -71 OFFCURVE",
"50 -30 CURVE SMOOTH",
"50 530 LINE SMOOTH",
"50 571 OFFCURVE",
"67 608 OFFCURVE",
"94 636 CURVE SMOOTH",
"121 663 OFFCURVE",
"159 680 OFFCURVE",
"200 680 CURVE SMOOTH"
);
},
{
closed = 1;
nodes = (
"579 249 LINE",
"707 377 LINE SMOOTH",
"714 384 OFFCURVE",
"718 394 OFFCURVE",
"718 405 CURVE SMOOTH",
"718 415 OFFCURVE",
"714 424 OFFCURVE",
"707 433 CURVE",
"664 476 LINE",
"655 483 OFFCURVE",
"646 487 OFFCURVE",
"636 487 CURVE SMOOTH",
"625 487 OFFCURVE",
"615 483 OFFCURVE",
"608 476 CURVE SMOOTH",
"480 348 LINE",
"352 476 LINE SMOOTH",
"344 484 OFFCURVE",
"335 488 OFFCURVE",
"324 488 CURVE SMOOTH",
"313 488 OFFCURVE",
"303 484 OFFCURVE",
"296 476 CURVE",
"253 434 LINE",
"245 427 OFFCURVE",
"241 417 OFFCURVE",
"241 406 CURVE SMOOTH",
"241 395 OFFCURVE",
"245 385 OFFCURVE",
"253 377 CURVE SMOOTH",
"381 249 LINE",
"254 122 LINE SMOOTH",
"246 114 OFFCURVE",
"242 104 OFFCURVE",
"242 93 CURVE SMOOTH",
"242 82 OFFCURVE",
"246 73 OFFCURVE",
"254 65 CURVE SMOOTH",
"297 23 LINE SMOOTH",
"305 15 OFFCURVE",
"314 11 OFFCURVE",
"325 11 CURVE SMOOTH",
"336 11 OFFCURVE",
"345 15 OFFCURVE",
"353 23 CURVE SMOOTH",
"480 150 LINE",
"607 24 LINE SMOOTH",
"615 16 OFFCURVE",
"624 12 OFFCURVE",
"635 12 CURVE SMOOTH",
"646 12 OFFCURVE",
"655 16 OFFCURVE",
"663 24 CURVE SMOOTH",
"706 66 LINE SMOOTH",
"714 74 OFFCURVE",
"718 83 OFFCURVE",
"718 94 CURVE SMOOTH",
"718 105 OFFCURVE",
"714 115 OFFCURVE",
"706 123 CURVE SMOOTH"
);
}
);
width = 960;
}
);
unicode = E020;
},
{
glyphname = sf.empty.square.o;
lastChange = "2014-08-08 15:40:38 +0000";
layers = (
{
hints = (
{
origin = "{0, 21}";
target = "{1, 7}";
},
{
origin = "{1, 0}";
target = "{0, 6}";
},
{
horizontal = 1;
origin = "{0, 14}";
target = "{1, 11}";
},
{
horizontal = 1;
origin = "{1, 4}";
target = "{0, 27}";
}
);
layerId = "7BDE272C-C7FB-4166-8673-7B6B584E769E";
name = Regular;
paths = (
{
closed = 1;
nodes = (
"739 680 LINE SMOOTH",
"786 680 OFFCURVE",
"828 661 OFFCURVE",
"860 630 CURVE SMOOTH",
"891 598 OFFCURVE",
"910 556 OFFCURVE",
"910 509 CURVE SMOOTH",
"910 -9 LINE SMOOTH",
"910 -56 OFFCURVE",
"891 -99 OFFCURVE",
"860 -130 CURVE SMOOTH",
"828 -161 OFFCURVE",
"786 -180 OFFCURVE",
"739 -180 CURVE SMOOTH",
"221 -180 LINE SMOOTH",
"174 -180 OFFCURVE",
"131 -161 OFFCURVE",
"100 -130 CURVE SMOOTH",
"69 -99 OFFCURVE",
"50 -56 OFFCURVE",
"50 -9 CURVE SMOOTH",
"50 509 LINE SMOOTH",
"50 556 OFFCURVE",
"69 598 OFFCURVE",
"100 630 CURVE SMOOTH",
"131 661 OFFCURVE",
"174 680 OFFCURVE",
"221 680 CURVE SMOOTH"
);
},
{
closed = 1;
nodes = (
"810 509 LINE SMOOTH",
"810 548 OFFCURVE",
"778 580 OFFCURVE",
"739 580 CURVE SMOOTH",
"221 580 LINE SMOOTH",
"182 580 OFFCURVE",
"150 548 OFFCURVE",
"150 509 CURVE SMOOTH",
"150 -9 LINE SMOOTH",
"150 -48 OFFCURVE",
"182 -80 OFFCURVE",
"221 -80 CURVE SMOOTH",
"739 -80 LINE SMOOTH",
"778 -80 OFFCURVE",
"810 -48 OFFCURVE",
"810 -9 CURVE SMOOTH"
);
}
);
width = 960;
}
);
unicode = E026;
},
{
glyphname = sf.plus.square.o;
lastChange = "2014-08-08 15:40:38 +0000";
layers = (
{
layerId = "7BDE272C-C7FB-4166-8673-7B6B584E769E";
name = Regular;
paths = (
{
closed = 1;
nodes = (
"739 680 LINE SMOOTH",
"786 680 OFFCURVE",
"828 661 OFFCURVE",
"860 630 CURVE SMOOTH",
"891 598 OFFCURVE",
"910 556 OFFCURVE",
"910 509 CURVE SMOOTH",
"910 -9 LINE SMOOTH",
"910 -56 OFFCURVE",
"891 -99 OFFCURVE",
"860 -130 CURVE SMOOTH",
"828 -161 OFFCURVE",
"786 -180 OFFCURVE",
"739 -180 CURVE SMOOTH",
"221 -180 LINE SMOOTH",
"174 -180 OFFCURVE",
"131 -161 OFFCURVE",
"100 -130 CURVE SMOOTH",
"69 -99 OFFCURVE",
"50 -56 OFFCURVE",
"50 -9 CURVE SMOOTH",
"50 509 LINE SMOOTH",
"50 556 OFFCURVE",
"69 598 OFFCURVE",
"100 630 CURVE SMOOTH",
"131 661 OFFCURVE",
"174 680 OFFCURVE",
"221 680 CURVE SMOOTH"
);
},
{
closed = 1;
nodes = (
"810 509 LINE SMOOTH",
"810 548 OFFCURVE",
"778 580 OFFCURVE",
"739 580 CURVE SMOOTH",
"221 580 LINE SMOOTH",
"182 580 OFFCURVE",
"150 548 OFFCURVE",
"150 509 CURVE SMOOTH",
"150 -9 LINE SMOOTH",
"150 -48 OFFCURVE",
"182 -80 OFFCURVE",
"221 -80 CURVE SMOOTH",
"739 -80 LINE SMOOTH",
"778 -80 OFFCURVE",
"810 -48 OFFCURVE",
"810 -9 CURVE SMOOTH"
);
},
{
closed = 1;
nodes = (
"649 320 LINE SMOOTH",
"672 320 OFFCURVE",
"689 303 OFFCURVE",
"689 280 CURVE SMOOTH",
"689 220 LINE SMOOTH",
"689 197 OFFCURVE",
"672 180 OFFCURVE",
"649 180 CURVE SMOOTH",
"550 180 LINE",
"550 80 LINE SMOOTH",
"550 57 OFFCURVE",
"533 40 OFFCURVE",
"510 40 CURVE SMOOTH",
"450 40 LINE SMOOTH",
"427 40 OFFCURVE",
"410 57 OFFCURVE",
"410 80 CURVE SMOOTH",
"410 180 LINE",
"309 180 LINE SMOOTH",
"286 180 OFFCURVE",
"269 197 OFFCURVE",
"269 220 CURVE SMOOTH",
"269 280 LINE SMOOTH",
"269 303 OFFCURVE",
"286 320 OFFCURVE",
"309 320 CURVE SMOOTH",
"410 320 LINE",
"410 420 LINE SMOOTH",
"410 443 OFFCURVE",
"427 460 OFFCURVE",
"450 460 CURVE SMOOTH",
"510 460 LINE SMOOTH",
"533 460 OFFCURVE",
"550 443 OFFCURVE",
"550 420 CURVE SMOOTH",
"550 320 LINE"
);
}
);
width = 960;
}
);
unicode = E027;
},
{
glyphname = sf.minus.square.o;
lastChange = "2014-08-08 15:40:38 +0000";
layers = (
{
layerId = "7BDE272C-C7FB-4166-8673-7B6B584E769E";
name = Regular;
paths = (
{
closed = 1;
nodes = (
"739 680 LINE SMOOTH",
"786 680 OFFCURVE",
"828 661 OFFCURVE",
"860 630 CURVE SMOOTH",
"891 598 OFFCURVE",
"910 556 OFFCURVE",
"910 509 CURVE SMOOTH",
"910 -9 LINE SMOOTH",
"910 -56 OFFCURVE",
"891 -99 OFFCURVE",
"860 -130 CURVE SMOOTH",
"828 -161 OFFCURVE",
"786 -180 OFFCURVE",
"739 -180 CURVE SMOOTH",
"221 -180 LINE SMOOTH",
"174 -180 OFFCURVE",
"131 -161 OFFCURVE",
"100 -130 CURVE SMOOTH",
"69 -99 OFFCURVE",
"50 -56 OFFCURVE",
"50 -9 CURVE SMOOTH",
"50 509 LINE SMOOTH",
"50 556 OFFCURVE",
"69 598 OFFCURVE",
"100 630 CURVE SMOOTH",
"131 661 OFFCURVE",
"174 680 OFFCURVE",
"221 680 CURVE SMOOTH"
);
},
{
closed = 1;
nodes = (
"810 509 LINE SMOOTH",
"810 548 OFFCURVE",
"778 580 OFFCURVE",
"739 580 CURVE SMOOTH",
"221 580 LINE SMOOTH",
"182 580 OFFCURVE",
"150 548 OFFCURVE",
"150 509 CURVE SMOOTH",
"150 -9 LINE SMOOTH",
"150 -48 OFFCURVE",
"182 -80 OFFCURVE",
"221 -80 CURVE SMOOTH",
"739 -80 LINE SMOOTH",
"778 -80 OFFCURVE",
"810 -48 OFFCURVE",
"810 -9 CURVE SMOOTH"
);
},
{
closed = 1;
nodes = (
"689 220 LINE SMOOTH",
"689 197 OFFCURVE",
"672 180 OFFCURVE",
"649 180 CURVE SMOOTH",
"309 180 LINE SMOOTH",
"286 180 OFFCURVE",
"269 197 OFFCURVE",
"269 220 CURVE SMOOTH",
"269 280 LINE SMOOTH",
"269 303 OFFCURVE",
"286 320 OFFCURVE",
"309 320 CURVE SMOOTH",
"649 320 LINE SMOOTH",
"672 320 OFFCURVE",
"689 303 OFFCURVE",
"689 280 CURVE SMOOTH"
);
}
);
width = 960;
}
);
unicode = E028;
},
{
glyphname = sf.checked.square.o;
lastChange = "2014-08-08 15:40:38 +0000";
layers = (
{
layerId = "7BDE272C-C7FB-4166-8673-7B6B584E769E";
name = Regular;
paths = (
{
closed = 1;
nodes = (
"739 680 LINE SMOOTH",
"786 680 OFFCURVE",
"828 661 OFFCURVE",
"860 630 CURVE SMOOTH",
"891 598 OFFCURVE",
"910 556 OFFCURVE",
"910 509 CURVE SMOOTH",
"910 -9 LINE SMOOTH",
"910 -56 OFFCURVE",
"891 -99 OFFCURVE",
"860 -130 CURVE SMOOTH",
"828 -161 OFFCURVE",
"786 -180 OFFCURVE",
"739 -180 CURVE SMOOTH",
"221 -180 LINE SMOOTH",
"174 -180 OFFCURVE",
"131 -161 OFFCURVE",
"100 -130 CURVE SMOOTH",
"69 -99 OFFCURVE",
"50 -56 OFFCURVE",
"50 -9 CURVE SMOOTH",
"50 509 LINE SMOOTH",
"50 556 OFFCURVE",
"69 598 OFFCURVE",
"100 630 CURVE SMOOTH",
"131 661 OFFCURVE",
"174 680 OFFCURVE",
"221 680 CURVE SMOOTH"
);
},
{
closed = 1;
nodes = (
"810 509 LINE SMOOTH",
"810 548 OFFCURVE",
"778 580 OFFCURVE",
"739 580 CURVE SMOOTH",
"221 580 LINE SMOOTH",
"182 580 OFFCURVE",
"150 548 OFFCURVE",
"150 509 CURVE SMOOTH",
"150 -9 LINE SMOOTH",
"150 -48 OFFCURVE",
"182 -80 OFFCURVE",
"221 -80 CURVE SMOOTH",
"739 -80 LINE SMOOTH",
"778 -80 OFFCURVE",
"810 -48 OFFCURVE",
"810 -9 CURVE SMOOTH"
);
},
{
closed = 1;
nodes = (
"438 64 LINE",
"432 57 OFFCURVE",
"424 54 OFFCURVE",
"415 54 CURVE SMOOTH",
"406 54 OFFCURVE",
"398 57 OFFCURVE",
"391 64 CURVE SMOOTH",
"242 214 LINE SMOOTH",
"235 221 OFFCURVE",
"232 229 OFFCURVE",
"232 238 CURVE SMOOTH",
"232 247 OFFCURVE",
"235 255 OFFCURVE",
"242 261 CURVE",
"287 306 LINE SMOOTH",
"294 313 OFFCURVE",
"301 316 OFFCURVE",
"310 316 CURVE SMOOTH",
"318 316 OFFCURVE",
"326 313 OFFCURVE",
"334 306 CURVE",
"415 226 LINE",
"626 436 LINE",
"634 443 OFFCURVE",
"642 446 OFFCURVE",
"650 446 CURVE SMOOTH",
"657 446 OFFCURVE",
"665 443 OFFCURVE",
"673 436 CURVE",
"718 391 LINE SMOOTH",
"725 384 OFFCURVE",
"728 376 OFFCURVE",
"728 367 CURVE SMOOTH",
"728 358 OFFCURVE",
"725 350 OFFCURVE",
"718 344 CURVE"
);
}
);
width = 960;
}
);
unicode = E029;
},
{
glyphname = sf.x.square.o;
lastChange = "2014-08-08 15:40:38 +0000";
layers = (
{
layerId = "7BDE272C-C7FB-4166-8673-7B6B584E769E";
name = Regular;
paths = (
{
closed = 1;
nodes = (
"739 680 LINE SMOOTH",
"787 680 OFFCURVE",
"829 661 OFFCURVE",
"860 630 CURVE SMOOTH",
"891 598 OFFCURVE",
"910 556 OFFCURVE",
"910 509 CURVE SMOOTH",
"910 -9 LINE SMOOTH",
"910 -56 OFFCURVE",
"891 -99 OFFCURVE",
"860 -130 CURVE SMOOTH",
"829 -161 OFFCURVE",
"787 -180 OFFCURVE",
"739 -180 CURVE SMOOTH",
"221 -180 LINE SMOOTH",
"174 -180 OFFCURVE",
"131 -161 OFFCURVE",
"100 -130 CURVE SMOOTH",
"69 -99 OFFCURVE",
"50 -56 OFFCURVE",
"50 -9 CURVE SMOOTH",
"50 509 LINE SMOOTH",
"50 556 OFFCURVE",
"69 598 OFFCURVE",
"100 630 CURVE SMOOTH",
"131 661 OFFCURVE",
"174 680 OFFCURVE",
"221 680 CURVE SMOOTH"
);
},
{
closed = 1;
nodes = (
"810 509 LINE SMOOTH",
"810 548 OFFCURVE",
"778 580 OFFCURVE",
"739 580 CURVE SMOOTH",
"221 580 LINE SMOOTH",
"182 580 OFFCURVE",
"150 548 OFFCURVE",
"150 509 CURVE SMOOTH",
"150 -9 LINE SMOOTH",
"150 -48 OFFCURVE",
"182 -80 OFFCURVE",
"221 -80 CURVE SMOOTH",
"739 -80 LINE SMOOTH",
"778 -80 OFFCURVE",
"810 -48 OFFCURVE",
"810 -9 CURVE SMOOTH"
);
},
{
closed = 1;
nodes = (
"650 180 LINE",
"657 171 OFFCURVE",
"661 162 OFFCURVE",
"661 151 CURVE SMOOTH",
"661 141 OFFCURVE",
"657 132 OFFCURVE",
"650 123 CURVE",
"607 81 LINE SMOOTH",
"599 73 OFFCURVE",
"589 69 OFFCURVE",
"578 69 CURVE SMOOTH",
"567 69 OFFCURVE",
"558 73 OFFCURVE",
"551 81 CURVE",
"481 151 LINE",
"410 80 LINE SMOOTH",
"402 72 OFFCURVE",
"392 68 OFFCURVE",
"381 68 CURVE SMOOTH",
"370 68 OFFCURVE",
"361 72 OFFCURVE",
"353 80 CURVE SMOOTH",
"311 122 LINE SMOOTH",
"303 130 OFFCURVE",
"299 139 OFFCURVE",
"299 150 CURVE SMOOTH",
"299 161 OFFCURVE",
"303 171 OFFCURVE",
"311 179 CURVE SMOOTH",
"382 250 LINE",
"310 321 LINE",
"302 328 OFFCURVE",
"298 338 OFFCURVE",
"298 349 CURVE SMOOTH",
"298 360 OFFCURVE",
"302 370 OFFCURVE",
"310 378 CURVE SMOOTH",
"353 420 LINE SMOOTH",
"361 428 OFFCURVE",
"371 432 OFFCURVE",
"382 432 CURVE SMOOTH",
"393 432 OFFCURVE",
"402 428 OFFCURVE",
"409 420 CURVE",
"481 349 LINE",
"551 419 LINE SMOOTH",
"559 427 OFFCURVE",
"568 431 OFFCURVE",
"579 431 CURVE SMOOTH",
"590 431 OFFCURVE",
"600 427 OFFCURVE",
"608 419 CURVE SMOOTH",
"650 377 LINE SMOOTH",
"658 369 OFFCURVE",
"662 359 OFFCURVE",
"662 348 CURVE SMOOTH",
"662 337 OFFCURVE",
"658 328 OFFCURVE",
"650 320 CURVE SMOOTH",
"580 250 LINE"
);
}
);
width = 960;
}
);
unicode = E02A;
},
{
glyphname = sf.calendar;
lastChange = "2014-08-08 15:40:38 +0000";
layers = (
{
layerId = "7BDE272C-C7FB-4166-8673-7B6B584E769E";
name = Regular;
paths = (
{
closed = 1;
nodes = (
"700 490 LINE SMOOTH",
"700 462 OFFCURVE",
"678 440 OFFCURVE",
"650 440 CURVE SMOOTH",
"622 440 OFFCURVE",
"600 462 OFFCURVE",
"600 490 CURVE SMOOTH",
"600 560 LINE SMOOTH",
"600 587 OFFCURVE",
"622 610 OFFCURVE",
"650 610 CURVE SMOOTH",
"678 610 OFFCURVE",
"700 587 OFFCURVE",
"700 560 CURVE SMOOTH"
);
},
{
closed = 1;
nodes = (
"360 560 LINE SMOOTH",
"360 587 OFFCURVE",
"338 610 OFFCURVE",
"310 610 CURVE SMOOTH",
"282 610 OFFCURVE",
"260 587 OFFCURVE",
"260 560 CURVE SMOOTH",
"260 490 LINE SMOOTH",
"260 462 OFFCURVE",
"282 440 OFFCURVE",
"310 440 CURVE SMOOTH",
"338 440 OFFCURVE",
"360 462 OFFCURVE",
"360 490 CURVE SMOOTH"
);
},
{
closed = 1;
nodes = (
"750 520 LINE",
"750 490 LINE SMOOTH",
"750 434 OFFCURVE",
"706 390 OFFCURVE",
"650 390 CURVE SMOOTH",
"594 390 OFFCURVE",
"550 434 OFFCURVE",
"550 490 CURVE SMOOTH",
"550 520 LINE",
"410 520 LINE",
"410 490 LINE SMOOTH",
"410 434 OFFCURVE",
"366 390 OFFCURVE",
"310 390 CURVE SMOOTH",
"254 390 OFFCURVE",
"210 434 OFFCURVE",
"210 490 CURVE SMOOTH",
"210 520 LINE",
"78 520 LINE SMOOTH",
"63 520 OFFCURVE",
"50 507 OFFCURVE",
"50 491 CURVE SMOOTH",
"50 -82 LINE SMOOTH",
"50 -98 OFFCURVE",
"63 -110 OFFCURVE",
"78 -110 CURVE SMOOTH",
"882 -110 LINE SMOOTH",
"897 -110 OFFCURVE",
"910 -98 OFFCURVE",
"910 -82 CURVE SMOOTH",
"910 491 LINE SMOOTH",
"910 507 OFFCURVE",
"897 520 OFFCURVE",
"882 520 CURVE SMOOTH"
);
},
{
closed = 1;
nodes = (
"239 285 LINE",
"339 285 LINE",
"339 185 LINE",
"239 185 LINE"
);
},
{
closed = 1;
nodes = (
"340 -5 LINE",
"240 -5 LINE",
"240 95 LINE",
"340 95 LINE"
);
},
{
closed = 1;
nodes = (
"430 285 LINE",
"530 285 LINE",
"530 185 LINE",
"430 185 LINE"
);
},
{
closed = 1;
nodes = (
"531 -5 LINE",
"431 -5 LINE",
"431 95 LINE",
"531 95 LINE"
);
},
{
closed = 1;
nodes = (
"619 285 LINE",
"719 285 LINE",
"719 185 LINE",
"619 185 LINE"
);
},
{
closed = 1;
nodes = (
"720 -5 LINE",
"620 -5 LINE",
"620 95 LINE",
"720 95 LINE"
);
}
);
width = 960;
}
);
unicode = E030;
},
{
glyphname = sf.calendar.day;
lastChange = "2014-08-08 15:40:38 +0000";
layers = (
{
layerId = "7BDE272C-C7FB-4166-8673-7B6B584E769E";
name = Regular;
paths = (
{
closed = 1;
nodes = (
"750 520 LINE",
"750 490 LINE SMOOTH",
"750 462 OFFCURVE",
"739 438 OFFCURVE",
"721 420 CURVE SMOOTH",
"703 402 OFFCURVE",
"678 390 OFFCURVE",
"650 390 CURVE SMOOTH",
"594 390 OFFCURVE",
"550 434 OFFCURVE",
"550 490 CURVE SMOOTH",
"550 520 LINE",
"410 520 LINE",
"410 490 LINE SMOOTH",
"410 462 OFFCURVE",
"399 438 OFFCURVE",
"381 420 CURVE SMOOTH",
"363 402 OFFCURVE",
"338 390 OFFCURVE",
"310 390 CURVE SMOOTH",
"254 390 OFFCURVE",
"210 434 OFFCURVE",
"210 490 CURVE SMOOTH",
"210 520 LINE",
"79 520 LINE SMOOTH",
"63 520 OFFCURVE",
"50 507 OFFCURVE",
"50 491 CURVE SMOOTH",
"50 -82 LINE SMOOTH",
"50 -98 OFFCURVE",
"63 -110 OFFCURVE",
"79 -110 CURVE SMOOTH",
"882 -110 LINE SMOOTH",
"898 -110 OFFCURVE",
"910 -98 OFFCURVE",
"910 -82 CURVE SMOOTH",
"910 491 LINE SMOOTH",
"910 507 OFFCURVE",
"898 520 OFFCURVE",
"882 520 CURVE SMOOTH"
);
},
{
closed = 1;
nodes = (
"566 218 LINE",
"515 162 OFFCURVE",
"503 112 OFFCURVE",
"495 41 CURVE SMOOTH",
"493 17 LINE",
"436 17 LINE",
"438 41 LINE SMOOTH",
"442 76 OFFCURVE",
"449 107 OFFCURVE",
"461 138 CURVE SMOOTH",
"473 168 OFFCURVE",
"490 195 OFFCURVE",
"511 218 CURVE",
"389 218 LINE",
"389 262 LINE",
"566 262 LINE"
);
},
{
closed = 1;
nodes = (
"700 490 LINE SMOOTH",
"700 462 OFFCURVE",
"678 440 OFFCURVE",
"650 440 CURVE SMOOTH",
"623 440 OFFCURVE",
"600 462 OFFCURVE",
"600 490 CURVE SMOOTH",
"600 560 LINE SMOOTH",
"600 587 OFFCURVE",
"623 610 OFFCURVE",
"650 610 CURVE SMOOTH",
"678 610 OFFCURVE",
"700 587 OFFCURVE",
"700 560 CURVE SMOOTH"
);
},
{
closed = 1;
nodes = (
"361 490 LINE SMOOTH",
"361 462 OFFCURVE",
"338 440 OFFCURVE",
"311 440 CURVE SMOOTH",
"283 440 OFFCURVE",
"261 462 OFFCURVE",
"261 490 CURVE SMOOTH",
"261 560 LINE SMOOTH",
"261 587 OFFCURVE",
"283 610 OFFCURVE",
"311 610 CURVE SMOOTH",
"338 610 OFFCURVE",
"361 587 OFFCURVE",
"361 560 CURVE SMOOTH"
);
}
);
width = 960;
}
);
unicode = E032;
},
{
glyphname = sf.calendar.day.o;
lastChange = "2014-08-08 15:40:38 +0000";
layers = (
{
layerId = "7BDE272C-C7FB-4166-8673-7B6B584E769E";
name = Regular;
paths = (
{
closed = 1;
nodes = (
"910 -82 LINE SMOOTH",
"910 -97 OFFCURVE",
"897 -110 OFFCURVE",
"882 -110 CURVE SMOOTH",
"78 -110 LINE SMOOTH",
"63 -110 OFFCURVE",
"50 -97 OFFCURVE",
"50 -82 CURVE SMOOTH",
"50 492 LINE SMOOTH",
"50 507 OFFCURVE",
"63 520 OFFCURVE",
"78 520 CURVE SMOOTH",
"122 520 LINE SMOOTH",
"137 520 OFFCURVE",
"150 507 OFFCURVE",
"150 492 CURVE SMOOTH",
"150 -10 LINE",
"810 -10 LINE",
"810 492 LINE SMOOTH",
"810 507 OFFCURVE",
"823 520 OFFCURVE",
"838 520 CURVE SMOOTH",
"882 520 LINE SMOOTH",
"897 520 OFFCURVE",
"910 507 OFFCURVE",
"910 492 CURVE SMOOTH"
);
},
{
closed = 1;
nodes = (
"360 490 LINE SMOOTH",
"360 462 OFFCURVE",
"338 440 OFFCURVE",
"310 440 CURVE SMOOTH",
"282 440 OFFCURVE",
"260 462 OFFCURVE",
"260 490 CURVE SMOOTH",
"260 560 LINE SMOOTH",
"260 588 OFFCURVE",
"282 610 OFFCURVE",
"310 610 CURVE SMOOTH",
"338 610 OFFCURVE",
"360 588 OFFCURVE",
"360 560 CURVE SMOOTH"
);
},
{
closed = 1;
nodes = (
"700 490 LINE SMOOTH",
"700 462 OFFCURVE",
"678 440 OFFCURVE",
"650 440 CURVE SMOOTH",
"622 440 OFFCURVE",
"600 462 OFFCURVE",
"600 490 CURVE SMOOTH",
"600 560 LINE SMOOTH",
"600 588 OFFCURVE",
"622 610 OFFCURVE",
"650 610 CURVE SMOOTH",
"678 610 OFFCURVE",
"700 588 OFFCURVE",
"700 560 CURVE SMOOTH"
);
},
{
closed = 1;
nodes = (
"578 299 LINE",
"554 272 OFFCURVE",
"537 245 OFFCURVE",
"528 218 CURVE",
"517 191 OFFCURVE",
"512 159 OFFCURVE",
"508 122 CURVE SMOOTH",
"506 98 LINE",
"449 98 LINE",
"451 122 LINE SMOOTH",
"456 191 OFFCURVE",
"481 252 OFFCURVE",
"524 299 CURVE",
"402 299 LINE",
"402 343 LINE",
"578 343 LINE"
);
}
);
width = 960;
}
);
unicode = E033;
},
{
glyphname = sf.calendar.o;
lastChange = "2014-08-08 15:40:38 +0000";
layers = (
{
layerId = "7BDE272C-C7FB-4166-8673-7B6B584E769E";
name = Regular;
paths = (
{
closed = 1;
nodes = (
"910 -82 LINE SMOOTH",
"910 -97 OFFCURVE",
"897 -110 OFFCURVE",
"882 -110 CURVE SMOOTH",
"78 -110 LINE SMOOTH",
"63 -110 OFFCURVE",
"50 -97 OFFCURVE",
"50 -82 CURVE SMOOTH",
"50 492 LINE SMOOTH",
"50 507 OFFCURVE",
"63 520 OFFCURVE",
"78 520 CURVE SMOOTH",
"122 520 LINE SMOOTH",
"137 520 OFFCURVE",
"150 507 OFFCURVE",
"150 492 CURVE SMOOTH",
"150 -10 LINE",
"810 -10 LINE",
"810 492 LINE SMOOTH",
"810 507 OFFCURVE",
"823 520 OFFCURVE",
"838 520 CURVE SMOOTH",
"882 520 LINE SMOOTH",
"897 520 OFFCURVE",
"910 507 OFFCURVE",
"910 492 CURVE SMOOTH"
);
},
{
closed = 1;
nodes = (
"360 490 LINE SMOOTH",
"360 462 OFFCURVE",
"338 440 OFFCURVE",
"310 440 CURVE SMOOTH",
"282 440 OFFCURVE",
"260 462 OFFCURVE",
"260 490 CURVE SMOOTH",
"260 560 LINE SMOOTH",
"260 588 OFFCURVE",
"282 610 OFFCURVE",
"310 610 CURVE SMOOTH",
"338 610 OFFCURVE",
"360 588 OFFCURVE",
"360 560 CURVE SMOOTH"
);
},
{
closed = 1;
nodes = (
"700 490 LINE SMOOTH",
"700 462 OFFCURVE",
"678 440 OFFCURVE",
"650 440 CURVE SMOOTH",
"622 440 OFFCURVE",
"600 462 OFFCURVE",
"600 490 CURVE SMOOTH",
"600 560 LINE SMOOTH",
"600 588 OFFCURVE",
"622 610 OFFCURVE",
"650 610 CURVE SMOOTH",
"678 610 OFFCURVE",
"700 588 OFFCURVE",
"700 560 CURVE SMOOTH"
);
},
{
closed = 1;
nodes = (
"339 270 LINE",
"239 270 LINE",
"239 370 LINE",
"339 370 LINE"
);
},
{
closed = 1;
nodes = (
"530 270 LINE",
"430 270 LINE",
"430 370 LINE",
"530 370 LINE"
);
},
{
closed = 1;
nodes = (
"719 270 LINE",
"619 270 LINE",
"619 370 LINE",
"719 370 LINE"
);
},
{
closed = 1;
nodes = (
"340 80 LINE",
"240 80 LINE",
"240 180 LINE",
"340 180 LINE"
);
},
{
closed = 1;
nodes = (
"531 80 LINE",
"431 80 LINE",
"431 180 LINE",
"531 180 LINE"
);
},
{
closed = 1;
nodes = (
"720 80 LINE",
"620 80 LINE",
"620 180 LINE",
"720 180 LINE"
);
}
);
width = 960;
}
);
unicode = E031;
},
{
glyphname = sf.alarm.clock;
lastChange = "2014-08-08 15:40:38 +0000";
layers = (
{
layerId = "7BDE272C-C7FB-4166-8673-7B6B584E769E";
name = Regular;
paths = (
{
closed = 1;
nodes = (
"864 344 OFFCURVE",
"874 293 OFFCURVE",
"874 238 CURVE SMOOTH",
"874 129 OFFCURVE",
"831 31 OFFCURVE",
"759 -41 CURVE SMOOTH",
"686 -114 OFFCURVE",
"588 -157 OFFCURVE",
"479 -157 CURVE SMOOTH",
"370 -157 OFFCURVE",
"272 -114 OFFCURVE",
"200 -42 CURVE SMOOTH",
"127 31 OFFCURVE",
"84 129 OFFCURVE",
"84 238 CURVE SMOOTH",
"84 347 OFFCURVE",
"127 445 OFFCURVE",
"199 517 CURVE SMOOTH",
"272 590 OFFCURVE",
"370 633 OFFCURVE",
"479 633 CURVE SMOOTH",
"588 633 OFFCURVE",
"686 590 OFFCURVE",
"758 518 CURVE SMOOTH",
"795 481 OFFCURVE",
"823 439 OFFCURVE",
"843 392 CURVE SMOOTH"
);
},
{
closed = 1;
nodes = (
"657 78 OFFCURVE",
"661 88 OFFCURVE",
"661 101 CURVE SMOOTH",
"661 114 OFFCURVE",
"657 125 OFFCURVE",
"648 134 CURVE SMOOTH",
"525 257 LINE",
"525 431 LINE SMOOTH",
"525 456 OFFCURVE",
"504 477 OFFCURVE",
"479 477 CURVE SMOOTH",
"454 477 OFFCURVE",
"433 456 OFFCURVE",
"433 431 CURVE SMOOTH",
"433 238 LINE SMOOTH",
"433 223 OFFCURVE",
"439 211 OFFCURVE",
"450 203 CURVE",
"583 69 LINE SMOOTH",
"592 60 OFFCURVE",
"603 55 OFFCURVE",
"615 55 CURVE SMOOTH",
"628 55 OFFCURVE",
"639 60 OFFCURVE",
"648 69 CURVE SMOOTH"
);
},
{
closed = 1;
nodes = (
"632 691 OFFCURVE",
"664 701 OFFCURVE",
"699 703 CURVE",
"708 703 LINE SMOOTH",
"761 703 OFFCURVE",
"810 683 OFFCURVE",
"846 649 CURVE SMOOTH",
"882 615 OFFCURVE",
"905 566 OFFCURVE",
"908 513 CURVE",
"908 501 LINE SMOOTH",
"908 470 OFFCURVE",
"901 441 OFFCURVE",
"888 413 CURVE",
"864 477 OFFCURVE",
"825 533 OFFCURVE",
"776 577 CURVE SMOOTH",
"727 621 OFFCURVE",
"667 655 OFFCURVE",
"602 672 CURVE"
);
},
{
closed = 1;
nodes = (
"291 655 OFFCURVE",
"231 621 OFFCURVE",
"182 577 CURVE SMOOTH",
"133 533 OFFCURVE",
"94 477 OFFCURVE",
"70 413 CURVE",
"57 441 OFFCURVE",
"50 470 OFFCURVE",
"50 501 CURVE SMOOTH",
"50 513 LINE",
"53 566 OFFCURVE",
"76 615 OFFCURVE",
"112 649 CURVE SMOOTH",
"148 683 OFFCURVE",
"197 703 OFFCURVE",
"250 703 CURVE SMOOTH",
"259 703 LINE",
"294 701 OFFCURVE",
"326 691 OFFCURVE",
"356 672 CURVE"
);
}
);
width = 958;
}
);
unicode = E038;
},
{
glyphname = sf.alarm.clock.o;
lastChange = "2014-08-08 15:40:38 +0000";
layers = (
{
layerId = "7BDE272C-C7FB-4166-8673-7B6B584E769E";
name = Regular;
paths = (
{
closed = 1;
nodes = (
"803 464 OFFCURVE",
"728 539 OFFCURVE",
"633 579 CURVE SMOOTH",
"585 600 OFFCURVE",
"534 610 OFFCURVE",
"479 610 CURVE SMOOTH",
"370 610 OFFCURVE",
"272 567 OFFCURVE",
"199 494 CURVE SMOOTH",
"127 422 OFFCURVE",
"84 324 OFFCURVE",
"84 215 CURVE SMOOTH",
"84 106 OFFCURVE",
"127 8 OFFCURVE",
"200 -65 CURVE SMOOTH",
"272 -137 OFFCURVE",
"370 -180 OFFCURVE",
"479 -180 CURVE SMOOTH",
"588 -180 OFFCURVE",
"686 -137 OFFCURVE",
"759 -64 CURVE SMOOTH",
"831 8 OFFCURVE",
"874 106 OFFCURVE",
"874 215 CURVE SMOOTH",
"874 270 OFFCURVE",
"864 321 OFFCURVE",
"843 369 CURVE SMOOTH"
);
},
{
closed = 1;
nodes = (
"729 26 OFFCURVE",
"668 -35 OFFCURVE",
"597 -64 CURVE SMOOTH",
"560 -80 OFFCURVE",
"520 -88 OFFCURVE",
"479 -88 CURVE SMOOTH",
"395 -88 OFFCURVE",
"322 -56 OFFCURVE",
"265 1 CURVE SMOOTH",
"208 58 OFFCURVE",
"176 131 OFFCURVE",
"176 215 CURVE SMOOTH",
"176 298 OFFCURVE",
"208 372 OFFCURVE",
"265 429 CURVE SMOOTH",
"322 486 OFFCURVE",
"395 518 OFFCURVE",
"479 518 CURVE SMOOTH",
"562 518 OFFCURVE",
"636 486 OFFCURVE",
"693 429 CURVE SMOOTH",
"750 372 OFFCURVE",
"782 298 OFFCURVE",
"782 215 CURVE SMOOTH",
"782 173 OFFCURVE",
"774 134 OFFCURVE",
"758 97 CURVE SMOOTH"
);
},
{
closed = 1;
nodes = (
"525 234 LINE",
"525 408 LINE SMOOTH",
"525 433 OFFCURVE",
"504 454 OFFCURVE",
"479 454 CURVE SMOOTH",
"454 454 OFFCURVE",
"433 433 OFFCURVE",
"433 408 CURVE SMOOTH",
"433 215 LINE SMOOTH",
"433 200 OFFCURVE",
"439 188 OFFCURVE",
"450 180 CURVE",
"583 46 LINE SMOOTH",
"592 37 OFFCURVE",
"603 32 OFFCURVE",
"615 32 CURVE SMOOTH",
"640 32 OFFCURVE",
"661 53 OFFCURVE",
"661 78 CURVE SMOOTH",
"661 91 OFFCURVE",
"657 102 OFFCURVE",
"648 111 CURVE SMOOTH"
);
},
{
closed = 1;
nodes = (
"632 668 OFFCURVE",
"664 678 OFFCURVE",
"699 680 CURVE",
"708 680 LINE SMOOTH",
"761 680 OFFCURVE",
"810 660 OFFCURVE",
"846 626 CURVE SMOOTH",
"882 592 OFFCURVE",
"905 543 OFFCURVE",
"908 490 CURVE",
"908 478 LINE SMOOTH",
"908 447 OFFCURVE",
"901 418 OFFCURVE",
"888 390 CURVE",
"864 454 OFFCURVE",
"825 510 OFFCURVE",
"776 554 CURVE SMOOTH",
"727 598 OFFCURVE",
"667 632 OFFCURVE",
"602 649 CURVE"
);
},
{
closed = 1;
nodes = (
"326 668 OFFCURVE",
"294 678 OFFCURVE",
"259 680 CURVE",
"250 680 LINE SMOOTH",
"197 680 OFFCURVE",
"148 660 OFFCURVE",
"112 626 CURVE SMOOTH",
"76 592 OFFCURVE",
"53 543 OFFCURVE",
"50 490 CURVE",
"50 478 LINE SMOOTH",
"50 447 OFFCURVE",
"57 418 OFFCURVE",
"70 390 CURVE",
"94 454 OFFCURVE",
"133 510 OFFCURVE",
"182 554 CURVE SMOOTH",
"231 598 OFFCURVE",
"291 632 OFFCURVE",
"356 649 CURVE"
);
}
);
width = 958;
}
);
unicode = E039;
},
{
glyphname = sf.clock;
lastChange = "2014-08-08 15:40:38 +0000";
layers = (
{
layerId = "7BDE272C-C7FB-4166-8673-7B6B584E769E";
name = Regular;
paths = (
{
closed = 1;
nodes = (
"899 365 OFFCURVE",
"910 309 OFFCURVE",
"910 250 CURVE SMOOTH",
"910 133 OFFCURVE",
"864 25 OFFCURVE",
"785 -54 CURVE SMOOTH",
"705 -134 OFFCURVE",
"596 -180 OFFCURVE",
"480 -180 CURVE SMOOTH",
"363 -180 OFFCURVE",
"255 -134 OFFCURVE",
"176 -55 CURVE SMOOTH",
"96 25 OFFCURVE",
"50 133 OFFCURVE",
"50 250 CURVE SMOOTH",
"50 366 OFFCURVE",
"96 475 OFFCURVE",
"175 554 CURVE SMOOTH",
"255 634 OFFCURVE",
"363 680 OFFCURVE",
"480 680 CURVE SMOOTH",
"596 680 OFFCURVE",
"705 634 OFFCURVE",
"784 555 CURVE SMOOTH",
"825 514 OFFCURVE",
"855 468 OFFCURVE",
"876 417 CURVE SMOOTH"
);
},
{
closed = 1;
nodes = (
"673 77 OFFCURVE",
"678 88 OFFCURVE",
"678 101 CURVE SMOOTH",
"678 114 OFFCURVE",
"673 126 OFFCURVE",
"664 137 CURVE",
"530 271 LINE",
"530 460 LINE SMOOTH",
"530 488 OFFCURVE",
"508 510 OFFCURVE",
"480 510 CURVE SMOOTH",
"452 510 OFFCURVE",
"430 488 OFFCURVE",
"430 460 CURVE SMOOTH",
"430 250 LINE SMOOTH",
"430 235 OFFCURVE",
"436 222 OFFCURVE",
"448 211 CURVE",
"593 66 LINE SMOOTH",
"602 57 OFFCURVE",
"614 52 OFFCURVE",
"628 52 CURVE SMOOTH",
"643 52 OFFCURVE",
"655 57 OFFCURVE",
"664 66 CURVE"
);
}
);
width = 960;
}
);
unicode = E034;
},
{
glyphname = sf.clock.o;
lastChange = "2014-08-08 15:40:38 +0000";
layers = (
{
layerId = "7BDE272C-C7FB-4166-8673-7B6B584E769E";
name = Regular;
paths = (
{
closed = 1;
nodes = (
"899 365 OFFCURVE",
"910 309 OFFCURVE",
"910 250 CURVE SMOOTH",
"910 133 OFFCURVE",
"864 25 OFFCURVE",
"785 -54 CURVE SMOOTH",
"705 -134 OFFCURVE",
"596 -180 OFFCURVE",
"480 -180 CURVE SMOOTH",
"363 -180 OFFCURVE",
"255 -134 OFFCURVE",
"176 -55 CURVE SMOOTH",
"96 25 OFFCURVE",
"50 133 OFFCURVE",
"50 250 CURVE SMOOTH",
"50 366 OFFCURVE",
"96 475 OFFCURVE",
"175 554 CURVE SMOOTH",
"255 634 OFFCURVE",
"363 680 OFFCURVE",
"480 680 CURVE SMOOTH",
"596 680 OFFCURVE",
"705 634 OFFCURVE",
"784 555 CURVE SMOOTH",
"825 514 OFFCURVE",
"855 468 OFFCURVE",
"876 417 CURVE SMOOTH"
);
},
{
closed = 1;
nodes = (
"801 163 OFFCURVE",
"810 205 OFFCURVE",
"810 250 CURVE SMOOTH",
"810 339 OFFCURVE",
"773 424 OFFCURVE",
"714 483 CURVE SMOOTH",
"654 543 OFFCURVE",
"569 580 OFFCURVE",
"480 580 CURVE SMOOTH",
"391 580 OFFCURVE",
"306 543 OFFCURVE",
"247 484 CURVE SMOOTH",
"187 424 OFFCURVE",
"150 339 OFFCURVE",
"150 250 CURVE SMOOTH",
"150 161 OFFCURVE",
"187 76 OFFCURVE",
"246 17 CURVE SMOOTH",
"306 -43 OFFCURVE",
"391 -80 OFFCURVE",
"480 -80 CURVE SMOOTH",
"569 -80 OFFCURVE",
"654 -43 OFFCURVE",
"713 16 CURVE SMOOTH",
"743 46 OFFCURVE",
"767 81 OFFCURVE",
"784 122 CURVE SMOOTH"
);
},
{
closed = 1;
nodes = (
"655 57 OFFCURVE",
"643 52 OFFCURVE",
"628 52 CURVE SMOOTH",
"614 52 OFFCURVE",
"602 57 OFFCURVE",
"593 66 CURVE SMOOTH",
"448 211 LINE",
"436 222 OFFCURVE",
"430 235 OFFCURVE",
"430 250 CURVE SMOOTH",
"430 460 LINE SMOOTH",
"430 488 OFFCURVE",
"452 510 OFFCURVE",
"480 510 CURVE SMOOTH",
"508 510 OFFCURVE",
"530 488 OFFCURVE",
"530 460 CURVE SMOOTH",
"530 271 LINE",
"664 137 LINE",
"673 126 OFFCURVE",
"678 114 OFFCURVE",
"678 101 CURVE SMOOTH",
"678 88 OFFCURVE",
"673 77 OFFCURVE",
"664 66 CURVE"
);
}
);
width = 960;
}
);
unicode = E035;
},
{
glyphname = sf.clock.reverse;
lastChange = "2014-08-08 15:40:38 +0000";
layers = (
{
layerId = "7BDE272C-C7FB-4166-8673-7B6B584E769E";
name = Regular;
paths = (
{
closed = 1;
nodes = (
"734 57 OFFCURVE",
"722 52 OFFCURVE",
"708 52 CURVE SMOOTH",
"693 52 OFFCURVE",
"682 57 OFFCURVE",
"673 66 CURVE SMOOTH",
"528 211 LINE",
"516 221 OFFCURVE",
"510 234 OFFCURVE",
"510 250 CURVE SMOOTH",
"510 460 LINE SMOOTH",
"510 488 OFFCURVE",
"532 510 OFFCURVE",
"560 510 CURVE SMOOTH",
"587 510 OFFCURVE",
"610 488 OFFCURVE",
"610 460 CURVE SMOOTH",
"610 271 LINE",
"743 137 LINE SMOOTH",
"753 127 OFFCURVE",
"758 115 OFFCURVE",
"758 101 CURVE SMOOTH",
"758 88 OFFCURVE",
"753 76 OFFCURVE",
"743 66 CURVE SMOOTH"
);
},
{
closed = 1;
nodes = (
"979 362 OFFCURVE",
"990 307 OFFCURVE",
"990 250 CURVE SMOOTH",
"990 137 OFFCURVE",
"943 25 OFFCURVE",
"864 -54 CURVE SMOOTH",
"783 -135 OFFCURVE",
"683 -176 OFFCURVE",
"572 -180 CURVE",
"565 -180 OFFCURVE",
"560 -175 OFFCURVE",
"560 -168 CURVE SMOOTH",
"560 -92 LINE SMOOTH",
"560 -84 OFFCURVE",
"564 -80 OFFCURVE",
"571 -80 CURVE SMOOTH",
"651 -79 OFFCURVE",
"733 -44 OFFCURVE",
"793 17 CURVE SMOOTH",
"853 77 OFFCURVE",
"890 162 OFFCURVE",
"890 250 CURVE SMOOTH",
"890 339 OFFCURVE",
"854 422 OFFCURVE",
"793 483 CURVE SMOOTH",
"762 514 OFFCURVE",
"727 537 OFFCURVE",
"688 554 CURVE SMOOTH",
"646 571 OFFCURVE",
"603 580 OFFCURVE",
"560 580 CURVE SMOOTH",
"472 580 OFFCURVE",
"386 543 OFFCURVE",
"326 483 CURVE SMOOTH",
"295 452 OFFCURVE",
"272 417 OFFCURVE",
"255 378 CURVE SMOOTH",
"238 338 OFFCURVE",
"230 294 OFFCURVE",
"230 250 CURVE",
"298 250 LINE SMOOTH",
"304 250 OFFCURVE",
"308 248 OFFCURVE",
"309 243 CURVE",
"310 242 OFFCURVE",
"310 240 OFFCURVE",
"310 238 CURVE SMOOTH",
"310 235 OFFCURVE",
"309 232 OFFCURVE",
"307 229 CURVE",
"189 111 LINE SMOOTH",
"187 109 OFFCURVE",
"184 108 OFFCURVE",
"180 108 CURVE SMOOTH",
"177 108 OFFCURVE",
"174 109 OFFCURVE",
"172 111 CURVE SMOOTH",
"54 229 LINE SMOOTH",
"51 232 OFFCURVE",
"50 235 OFFCURVE",
"50 238 CURVE SMOOTH",
"50 240 OFFCURVE",
"50 242 OFFCURVE",
"51 243 CURVE",
"53 248 OFFCURVE",
"57 250 OFFCURVE",
"62 250 CURVE SMOOTH",
"130 250 LINE",
"130 366 OFFCURVE",
"175 473 OFFCURVE",
"256 554 CURVE SMOOTH",
"295 593 OFFCURVE",
"341 624 OFFCURVE",
"392 646 CURVE SMOOTH",
"445 669 OFFCURVE",
"501 680 OFFCURVE",
"560 680 CURVE SMOOTH",
"679 680 OFFCURVE",
"784 633 OFFCURVE",
"863 554 CURVE SMOOTH",
"904 513 OFFCURVE",
"935 468 OFFCURVE",
"956 417 CURVE SMOOTH"
);
}
);
width = 1040;
}
);
unicode = E03A;
},
{
glyphname = sf.stopwatch;
lastChange = "2014-08-08 15:40:38 +0000";
layers = (
{
layerId = "7BDE272C-C7FB-4166-8673-7B6B584E769E";
name = Regular;
paths = (
{
closed = 1;
nodes = (
"395 630 LINE",
"395 658 OFFCURVE",
"417 680 OFFCURVE",
"445 680 CURVE SMOOTH",
"473 680 OFFCURVE",
"495 658 OFFCURVE",
"495 627 CURVE",
"479 629 OFFCURVE",
"462 630 OFFCURVE",
"445 630 CURVE SMOOTH"
);
},
{
closed = 1;
nodes = (
"612 595 OFFCURVE",
"597 602 OFFCURVE",
"581 607 CURVE",
"583 610 LINE",
"591 629 OFFCURVE",
"608 638 OFFCURVE",
"627 638 CURVE SMOOTH",
"643 638 OFFCURVE",
"661 630 OFFCURVE",
"671 615 CURVE SMOOTH",
"676 607 OFFCURVE",
"678 598 OFFCURVE",
"678 589 CURVE SMOOTH",
"678 581 OFFCURVE",
"676 573 OFFCURVE",
"672 565 CURVE",
"671 562 LINE",
"656 571 OFFCURVE",
"642 580 OFFCURVE",
"627 587 CURVE"
);
},
{
closed = 1;
nodes = (
"830 321 OFFCURVE",
"840 270 OFFCURVE",
"840 215 CURVE SMOOTH",
"840 106 OFFCURVE",
"797 8 OFFCURVE",
"725 -64 CURVE SMOOTH",
"652 -137 OFFCURVE",
"554 -180 OFFCURVE",
"445 -180 CURVE SMOOTH",
"336 -180 OFFCURVE",
"238 -137 OFFCURVE",
"166 -65 CURVE SMOOTH",
"93 8 OFFCURVE",
"50 106 OFFCURVE",
"50 215 CURVE SMOOTH",
"50 324 OFFCURVE",
"93 422 OFFCURVE",
"165 494 CURVE SMOOTH",
"238 567 OFFCURVE",
"336 610 OFFCURVE",
"445 610 CURVE SMOOTH",
"554 610 OFFCURVE",
"652 567 OFFCURVE",
"724 495 CURVE SMOOTH",
"761 458 OFFCURVE",
"789 416 OFFCURVE",
"809 369 CURVE SMOOTH"
);
},
{
closed = 1;
nodes = (
"491 408 LINE SMOOTH",
"491 433 OFFCURVE",
"470 454 OFFCURVE",
"445 454 CURVE SMOOTH",
"420 454 OFFCURVE",
"399 433 OFFCURVE",
"399 408 CURVE SMOOTH",
"399 238 LINE SMOOTH",
"399 213 OFFCURVE",
"420 192 OFFCURVE",
"445 192 CURVE SMOOTH",
"470 192 OFFCURVE",
"491 213 OFFCURVE",
"491 238 CURVE SMOOTH"
);
}
);
width = 890;
}
);
unicode = E036;
},
{
glyphname = sf.stopwatch.o;
lastChange = "2014-08-08 15:40:38 +0000";
layers = (
{
hints = (
{
origin = "{1, 14}";
target = "{2, 14}";
},
{
origin = "{2, 2}";
target = "{1, 2}";
},
{
horizontal = 1;
origin = "{1, 8}";
target = "{2, 20}";
},
{
horizontal = 1;
origin = "{2, 8}";
target = "{1, 20}";
},
{
origin = "{4, 9}";
target = "{4, 3}";
}
);
layerId = "7BDE272C-C7FB-4166-8673-7B6B584E769E";
name = Regular;
paths = (
{
closed = 1;
nodes = (
"395 630 LINE",
"395 658 OFFCURVE",
"417 680 OFFCURVE",
"445 680 CURVE SMOOTH",
"473 680 OFFCURVE",
"495 658 OFFCURVE",
"495 627 CURVE",
"479 629 OFFCURVE",
"462 630 OFFCURVE",
"445 630 CURVE SMOOTH"
);
},
{
closed = 1;
nodes = (
"830 321 OFFCURVE",
"840 270 OFFCURVE",
"840 215 CURVE SMOOTH",
"840 106 OFFCURVE",
"797 8 OFFCURVE",
"725 -64 CURVE SMOOTH",
"652 -137 OFFCURVE",
"554 -180 OFFCURVE",
"445 -180 CURVE SMOOTH",
"336 -180 OFFCURVE",
"238 -137 OFFCURVE",
"166 -65 CURVE SMOOTH",
"93 8 OFFCURVE",
"50 106 OFFCURVE",
"50 215 CURVE SMOOTH",
"50 324 OFFCURVE",
"93 422 OFFCURVE",
"165 494 CURVE SMOOTH",
"238 567 OFFCURVE",
"336 610 OFFCURVE",
"445 610 CURVE SMOOTH",
"554 610 OFFCURVE",
"652 567 OFFCURVE",
"724 495 CURVE SMOOTH",
"761 458 OFFCURVE",
"789 416 OFFCURVE",
"809 369 CURVE SMOOTH"
);
},
{
closed = 1;
nodes = (
"740 134 OFFCURVE",
"748 173 OFFCURVE",
"748 215 CURVE SMOOTH",
"748 298 OFFCURVE",
"716 372 OFFCURVE",
"659 429 CURVE SMOOTH",
"602 486 OFFCURVE",
"528 518 OFFCURVE",
"445 518 CURVE SMOOTH",
"361 518 OFFCURVE",
"288 486 OFFCURVE",
"231 429 CURVE SMOOTH",
"174 372 OFFCURVE",
"142 298 OFFCURVE",
"142 215 CURVE SMOOTH",
"142 131 OFFCURVE",
"174 58 OFFCURVE",
"231 1 CURVE SMOOTH",
"288 -56 OFFCURVE",
"361 -88 OFFCURVE",
"445 -88 CURVE SMOOTH",
"528 -88 OFFCURVE",
"602 -56 OFFCURVE",
"659 1 CURVE SMOOTH",
"688 30 OFFCURVE",
"709 62 OFFCURVE",
"724 97 CURVE SMOOTH"
);
},
{
closed = 1;
nodes = (
"612 595 OFFCURVE",
"597 602 OFFCURVE",
"581 607 CURVE",
"583 610 LINE",
"591 629 OFFCURVE",
"608 638 OFFCURVE",
"627 638 CURVE SMOOTH",
"643 638 OFFCURVE",
"661 630 OFFCURVE",
"671 615 CURVE SMOOTH",
"676 607 OFFCURVE",
"678 598 OFFCURVE",
"678 589 CURVE SMOOTH",
"678 581 OFFCURVE",
"676 573 OFFCURVE",
"672 565 CURVE",
"671 562 LINE",
"656 571 OFFCURVE",
"642 580 OFFCURVE",
"627 587 CURVE"
);
},
{
closed = 1;
nodes = (
"470 454 OFFCURVE",
"491 433 OFFCURVE",
"491 408 CURVE SMOOTH",
"491 238 LINE SMOOTH",
"491 213 OFFCURVE",
"470 192 OFFCURVE",
"445 192 CURVE SMOOTH",
"420 192 OFFCURVE",
"399 213 OFFCURVE",
"399 238 CURVE SMOOTH",
"399 408 LINE SMOOTH",
"399 433 OFFCURVE",
"420 454 OFFCURVE",
"445 454 CURVE SMOOTH"
);
}
);
width = 890;
}
);
unicode = E037;
},
{
glyphname = sf.dribbble;
lastChange = "2014-08-08 15:40:38 +0000";
layers = (
{
layerId = "7BDE272C-C7FB-4166-8673-7B6B584E769E";
name = Regular;
paths = (
{
closed = 1;
nodes = (
"50 652 OFFCURVE",
"78 680 OFFCURVE",
"113 680 CURVE SMOOTH",
"841 680 LINE SMOOTH",
"876 680 OFFCURVE",
"905 652 OFFCURVE",
"905 618 CURVE SMOOTH",
"905 -118 LINE SMOOTH",
"905 -152 OFFCURVE",
"876 -180 OFFCURVE",
"841 -180 CURVE SMOOTH",
"113 -180 LINE SMOOTH",
"78 -180 OFFCURVE",
"50 -152 OFFCURVE",
"50 -118 CURVE SMOOTH",
"50 618 LINE SMOOTH"
);
},
{
closed = 1;
nodes = (
"636 -37 OFFCURVE",
"765 91 OFFCURVE",
"765 250 CURVE SMOOTH",
"765 409 OFFCURVE",
"636 537 OFFCURVE",
"477 537 CURVE SMOOTH",
"319 537 OFFCURVE",
"189 409 OFFCURVE",
"189 250 CURVE SMOOTH",
"189 91 OFFCURVE",
"319 -37 OFFCURVE",
"477 -37 CURVE SMOOTH"
);
},
{
closed = 1;
nodes = (
"622 110 OFFCURVE",
"611 154 OFFCURVE",
"594 204 CURVE",
"602 205 OFFCURVE",
"610 205 OFFCURVE",
"618 205 CURVE SMOOTH",
"651 205 OFFCURVE",
"680 200 OFFCURVE",
"697 196 CURVE",
"686 152 OFFCURVE",
"662 112 OFFCURVE",
"628 82 CURVE"
);
},
{
closed = 1;
nodes = (
"432 24 OFFCURVE",
"390 37 OFFCURVE",
"353 62 CURVE",
"359 72 OFFCURVE",
"371 87 OFFCURVE",
"387 104 CURVE SMOOTH",
"420 138 OFFCURVE",
"461 165 OFFCURVE",
"509 184 CURVE",
"532 120 OFFCURVE",
"545 65 OFFCURVE",
"551 36 CURVE",
"527 28 OFFCURVE",
"503 24 OFFCURVE",
"477 24 CURVE SMOOTH"
);
},
{
closed = 1;
nodes = (
"268 154 OFFCURVE",
"254 195 OFFCURVE",
"252 237 CURVE",
"291 238 OFFCURVE",
"380 243 OFFCURVE",
"474 268 CURVE",
"475 266 OFFCURVE",
"476 264 OFFCURVE",
"477 262 CURVE",
"382 228 OFFCURVE",
"320 157 OFFCURVE",
"293 119 CURVE"
);
},
{
closed = 1;
nodes = (
"280 373 OFFCURVE",
"318 418 OFFCURVE",
"367 446 CURVE",
"381 426 OFFCURVE",
"407 388 OFFCURVE",
"433 343 CURVE",
"361 326 OFFCURVE",
"298 322 OFFCURVE",
"263 320 CURVE"
);
},
{
closed = 1;
nodes = (
"496 413 OFFCURVE",
"471 450 OFFCURVE",
"455 474 CURVE",
"462 475 OFFCURVE",
"470 475 OFFCURVE",
"477 475 CURVE SMOOTH",
"526 475 OFFCURVE",
"573 459 OFFCURVE",
"612 431 CURVE",
"597 415 OFFCURVE",
"568 390 OFFCURVE",
"520 370 CURVE"
);
},
{
closed = 1;
nodes = (
"680 279 OFFCURVE",
"646 283 OFFCURVE",
"609 283 CURVE SMOOTH",
"593 283 OFFCURVE",
"579 283 OFFCURVE",
"565 281 CURVE",
"562 287 OFFCURVE",
"560 292 OFFCURVE",
"557 298 CURVE",
"612 323 OFFCURVE",
"647 353 OFFCURVE",
"666 373 CURVE",
"685 344 OFFCURVE",
"697 311 OFFCURVE",
"702 276 CURVE"
);
}
);
width = 955;
}
);
unicode = E03C;
},
{
glyphname = sf.facebook;
lastChange = "2014-08-08 15:40:38 +0000";
layers = (
{
layerId = "7BDE272C-C7FB-4166-8673-7B6B584E769E";
name = Regular;
paths = (
{
closed = 1;
nodes = (
"114 680 LINE SMOOTH",
"78 680 OFFCURVE",
"50 652 OFFCURVE",
"50 618 CURVE SMOOTH",
"50 -118 LINE SMOOTH",
"50 -152 OFFCURVE",
"78 -180 OFFCURVE",
"114 -180 CURVE SMOOTH",
"530 -180 LINE",
"530 149 LINE",
"420 149 LINE",
"420 277 LINE",
"530 277 LINE",
"530 371 LINE SMOOTH",
"530 481 OFFCURVE",
"597 540 OFFCURVE",
"695 540 CURVE SMOOTH",
"742 540 OFFCURVE",
"782 537 OFFCURVE",
"794 535 CURVE",
"794 421 LINE",
"726 421 LINE SMOOTH",
"673 421 OFFCURVE",
"663 396 OFFCURVE",
"663 359 CURVE SMOOTH",
"663 277 LINE",
"789 277 LINE",
"773 149 LINE",
"663 149 LINE",
"663 -180 LINE",
"846 -180 LINE SMOOTH",
"882 -180 OFFCURVE",
"910 -152 OFFCURVE",
"910 -118 CURVE SMOOTH",
"910 618 LINE SMOOTH",
"910 652 OFFCURVE",
"882 680 OFFCURVE",
"846 680 CURVE SMOOTH"
);
}
);
width = 960;
}
);
unicode = E03D;
},
{
glyphname = sf.google.plus;
lastChange = "2014-08-08 15:40:38 +0000";
layers = (
{
hints = (
{
origin = "{4, 2}";
target = "{4, 1}";
},
{
horizontal = 1;
origin = "{4, 10}";
target = "{4, 11}";
},
{
horizontal = 1;
origin = "{0, 2}";
target = down;
type = TopGhost;
},
{
horizontal = 1;
origin = "{0, 11}";
target = up;
type = BottomGhost;
},
{
origin = "{1, 10}";
target = "{3, 4}";
},
{
origin = "{1, 25}";
target = "{1, 68}";
},
{
origin = "{2, 35}";
target = "{1, 56}";
},
{
origin = "{1, 43}";
target = "{2, 8}";
},
{
origin = "{1, 49}";
target = "{2, 2}";
},
{
horizontal = 1;
origin = "{1, 95}";
target = "{1, 0}";
}
);
layerId = "7BDE272C-C7FB-4166-8673-7B6B584E769E";
name = Regular;
paths = (
{
closed = 1;
nodes = (
"50 652 OFFCURVE",
"78 680 OFFCURVE",
"113 680 CURVE SMOOTH",
"841 680 LINE SMOOTH",
"876 680 OFFCURVE",
"905 652 OFFCURVE",
"905 618 CURVE SMOOTH",
"905 -118 LINE SMOOTH",
"905 -152 OFFCURVE",
"876 -180 OFFCURVE",
"841 -180 CURVE SMOOTH",
"113 -180 LINE SMOOTH",
"78 -180 OFFCURVE",
"50 -152 OFFCURVE",
"50 -118 CURVE SMOOTH",
"50 618 LINE SMOOTH"
);
},
{
closed = 1;
nodes = (
"587 542 LINE",
"432 542 LINE SMOOTH",
"412 542 OFFCURVE",
"390 540 OFFCURVE",
"366 535 CURVE SMOOTH",
"343 529 OFFCURVE",
"320 517 OFFCURVE",
"298 499 CURVE",
"266 468 OFFCURVE",
"249 434 OFFCURVE",
"249 396 CURVE SMOOTH",
"249 364 OFFCURVE",
"261 337 OFFCURVE",
"283 313 CURVE",
"305 288 OFFCURVE",
"337 275 OFFCURVE",
"378 274 CURVE SMOOTH",
"386 274 OFFCURVE",
"394 275 OFFCURVE",
"403 276 CURVE",
"401 272 OFFCURVE",
"400 267 OFFCURVE",
"398 262 CURVE",
"396 258 OFFCURVE",
"395 252 OFFCURVE",
"395 245 CURVE SMOOTH",
"395 234 OFFCURVE",
"398 224 OFFCURVE",
"403 216 CURVE",
"407 208 OFFCURVE",
"412 200 OFFCURVE",
"418 192 CURVE",
"400 192 OFFCURVE",
"377 190 OFFCURVE",
"349 186 CURVE SMOOTH",
"322 181 OFFCURVE",
"295 171 OFFCURVE",
"270 157 CURVE SMOOTH",
"248 144 OFFCURVE",
"233 128 OFFCURVE",
"224 110 CURVE SMOOTH",
"215 93 OFFCURVE",
"211 77 OFFCURVE",
"211 63 CURVE SMOOTH",
"211 33 OFFCURVE",
"224 8 OFFCURVE",
"251 -13 CURVE",
"278 -36 OFFCURVE",
"319 -48 OFFCURVE",
"373 -48 CURVE SMOOTH",
"438 -47 OFFCURVE",
"487 -32 OFFCURVE",
"522 -2 CURVE SMOOTH",
"555 27 OFFCURVE",
"572 61 OFFCURVE",
"572 98 CURVE",
"571 125 OFFCURVE",
"565 146 OFFCURVE",
"553 163 CURVE",
"541 179 OFFCURVE",
"527 193 OFFCURVE",
"510 207 CURVE SMOOTH",
"484 228 LINE",
"480 232 OFFCURVE",
"476 236 OFFCURVE",
"472 242 CURVE",
"468 247 OFFCURVE",
"465 254 OFFCURVE",
"465 262 CURVE SMOOTH",
"465 270 OFFCURVE",
"468 277 OFFCURVE",
"472 283 CURVE",
"476 290 OFFCURVE",
"480 295 OFFCURVE",
"485 300 CURVE",
"493 307 OFFCURVE",
"501 314 OFFCURVE",
"508 321 CURVE",
"514 327 OFFCURVE",
"521 335 OFFCURVE",
"526 343 CURVE SMOOTH",
"538 359 OFFCURVE",
"544 382 OFFCURVE",
"545 409 CURVE SMOOTH",
"545 425 OFFCURVE",
"543 438 OFFCURVE",
"540 449 CURVE",
"535 460 OFFCURVE",
"531 470 OFFCURVE",
"525 479 CURVE SMOOTH",
"520 487 OFFCURVE",
"514 495 OFFCURVE",
"508 501 CURVE",
"502 507 OFFCURVE",
"497 511 OFFCURVE",
"492 514 CURVE",
"540 514 LINE"
);
},
{
closed = 1;
nodes = (
"474 -7 OFFCURVE",
"446 -15 OFFCURVE",
"410 -16 CURVE SMOOTH",
"369 -15 OFFCURVE",
"337 -6 OFFCURVE",
"314 12 CURVE SMOOTH",
"289 29 OFFCURVE",
"277 52 OFFCURVE",
"277 79 CURVE SMOOTH",
"277 93 OFFCURVE",
"279 105 OFFCURVE",
"285 114 CURVE",
"290 124 OFFCURVE",
"296 132 OFFCURVE",
"303 138 CURVE",
"311 144 OFFCURVE",
"318 149 OFFCURVE",
"325 152 CURVE SMOOTH",
"332 155 OFFCURVE",
"338 157 OFFCURVE",
"342 159 CURVE",
"359 164 OFFCURVE",
"375 167 OFFCURVE",
"391 170 CURVE",
"407 171 OFFCURVE",
"417 172 OFFCURVE",
"421 171 CURVE",
"428 171 OFFCURVE",
"434 171 OFFCURVE",
"439 170 CURVE",
"468 150 OFFCURVE",
"489 133 OFFCURVE",
"502 119 CURVE",
"515 105 OFFCURVE",
"522 88 OFFCURVE",
"522 68 CURVE SMOOTH",
"522 44 OFFCURVE",
"512 24 OFFCURVE",
"494 9 CURVE SMOOTH"
);
},
{
closed = 1;
nodes = (
"358 320 OFFCURVE",
"348 332 OFFCURVE",
"340 346 CURVE SMOOTH",
"323 376 OFFCURVE",
"315 405 OFFCURVE",
"315 433 CURVE",
"315 455 OFFCURVE",
"320 474 OFFCURVE",
"332 491 CURVE",
"346 507 OFFCURVE",
"363 516 OFFCURVE",
"384 516 CURVE",
"400 516 OFFCURVE",
"414 511 OFFCURVE",
"427 502 CURVE",
"439 493 OFFCURVE",
"448 481 OFFCURVE",
"456 466 CURVE SMOOTH",
"471 435 OFFCURVE",
"479 404 OFFCURVE",
"479 374 CURVE SMOOTH",
"479 366 OFFCURVE",
"478 358 OFFCURVE",
"477 347 CURVE",
"475 337 OFFCURVE",
"471 327 OFFCURVE",
"465 317 CURVE",
"451 303 OFFCURVE",
"434 296 OFFCURVE",
"414 295 CURVE",
"397 295 OFFCURVE",
"383 300 OFFCURVE",
"371 310 CURVE SMOOTH"
);
},
{
closed = 1;
nodes = (
"737 306 LINE",
"737 387 LINE",
"677 387 LINE",
"677 306 LINE",
"595 306 LINE",
"595 246 LINE",
"677 246 LINE",
"677 165 LINE",
"737 165 LINE",
"737 246 LINE",
"818 246 LINE",
"818 306 LINE"
);
}
);
width = 955;
}
);
unicode = E055;
},
{
glyphname = sf.linkedin;
lastChange = "2014-08-08 15:40:38 +0000";
layers = (
{
layerId = "7BDE272C-C7FB-4166-8673-7B6B584E769E";
name = Regular;
paths = (
{
closed = 1;
nodes = (
"50 652 OFFCURVE",
"78 680 OFFCURVE",
"113 680 CURVE SMOOTH",
"841 680 LINE SMOOTH",
"876 680 OFFCURVE",
"904 652 OFFCURVE",
"904 618 CURVE SMOOTH",
"904 -118 LINE SMOOTH",
"904 -152 OFFCURVE",
"876 -180 OFFCURVE",
"841 -180 CURVE SMOOTH",
"113 -180 LINE SMOOTH",
"78 -180 OFFCURVE",
"50 -152 OFFCURVE",
"50 -118 CURVE SMOOTH",
"50 618 LINE SMOOTH"
);
},
{
closed = 1;
nodes = (
"308 349 LINE",
"178 349 LINE",
"178 -42 LINE",
"308 -42 LINE"
);
},
{
closed = 1;
nodes = (
"288 402 OFFCURVE",
"316 432 OFFCURVE",
"316 470 CURVE",
"315 508 OFFCURVE",
"288 537 OFFCURVE",
"244 537 CURVE SMOOTH",
"199 537 OFFCURVE",
"170 508 OFFCURVE",
"170 470 CURVE SMOOTH",
"170 432 OFFCURVE",
"198 402 OFFCURVE",
"242 402 CURVE SMOOTH",
"243 402 LINE SMOOTH"
);
},
{
closed = 1;
nodes = (
"509 -42 LINE",
"509 176 LINE SMOOTH",
"509 188 OFFCURVE",
"510 200 OFFCURVE",
"514 208 CURVE SMOOTH",
"523 232 OFFCURVE",
"544 256 OFFCURVE",
"580 256 CURVE SMOOTH",
"627 256 OFFCURVE",
"646 220 OFFCURVE",
"646 167 CURVE SMOOTH",
"646 -42 LINE",
"776 -42 LINE",
"776 182 LINE SMOOTH",
"776 302 OFFCURVE",
"712 358 OFFCURVE",
"627 358 CURVE SMOOTH",
"556 358 OFFCURVE",
"526 319 OFFCURVE",
"509 292 CURVE",
"509 292 LINE",
"509 349 LINE",
"380 349 LINE",
"381 312 OFFCURVE",
"380 -42 OFFCURVE",
"380 -42 CURVE"
);
}
);
width = 954;
}
);
unicode = E03B;
},
{
glyphname = sf.twitter;
lastChange = "2014-08-08 15:40:38 +0000";
layers = (
{
layerId = "7BDE272C-C7FB-4166-8673-7B6B584E769E";
name = Regular;
paths = (
{
closed = 1;
nodes = (
"50 652 OFFCURVE",
"78 680 OFFCURVE",
"113 680 CURVE SMOOTH",
"841 680 LINE SMOOTH",
"876 680 OFFCURVE",
"905 652 OFFCURVE",
"905 618 CURVE SMOOTH",
"905 -118 LINE SMOOTH",
"905 -152 OFFCURVE",
"876 -180 OFFCURVE",
"841 -180 CURVE SMOOTH",
"113 -180 LINE SMOOTH",
"78 -180 OFFCURVE",
"50 -152 OFFCURVE",
"50 -118 CURVE SMOOTH",
"50 618 LINE SMOOTH"
);
},
{
closed = 1;
nodes = (
"747 421 OFFCURVE",
"724 414 OFFCURVE",
"699 411 CURVE",
"724 426 OFFCURVE",
"743 450 OFFCURVE",
"752 477 CURVE",
"729 464 OFFCURVE",
"703 454 OFFCURVE",
"676 449 CURVE",
"654 472 OFFCURVE",
"623 486 OFFCURVE",
"589 486 CURVE SMOOTH",
"523 486 OFFCURVE",
"470 433 OFFCURVE",
"470 367 CURVE SMOOTH",
"470 358 OFFCURVE",
"471 348 OFFCURVE",
"473 340 CURVE",
"374 345 OFFCURVE",
"286 392 OFFCURVE",
"227 464 CURVE",
"217 447 OFFCURVE",
"211 426 OFFCURVE",
"211 404 CURVE SMOOTH",
"211 363 OFFCURVE",
"232 327 OFFCURVE",
"264 305 CURVE",
"245 306 OFFCURVE",
"226 311 OFFCURVE",
"210 320 CURVE",
"210 320 OFFCURVE",
"210 319 OFFCURVE",
"210 319 CURVE SMOOTH",
"210 261 OFFCURVE",
"251 213 OFFCURVE",
"306 202 CURVE",
"296 199 OFFCURVE",
"285 197 OFFCURVE",
"274 197 CURVE SMOOTH",
"267 197 OFFCURVE",
"259 198 OFFCURVE",
"252 200 CURVE",
"267 152 OFFCURVE",
"311 118 OFFCURVE",
"363 117 CURVE",
"322 85 OFFCURVE",
"271 66 OFFCURVE",
"215 66 CURVE SMOOTH",
"206 66 OFFCURVE",
"196 66 OFFCURVE",
"187 67 CURVE",
"239 34 OFFCURVE",
"302 14 OFFCURVE",
"369 14 CURVE SMOOTH",
"589 14 OFFCURVE",
"709 196 OFFCURVE",
"709 353 CURVE SMOOTH",
"709 358 OFFCURVE",
"709 363 OFFCURVE",
"708 369 CURVE",
"732 385 OFFCURVE",
"752 406 OFFCURVE",
"768 430 CURVE"
);
}
);
width = 955;
}
);
unicode = E03E;
},
{
glyphname = sf.comment;
lastChange = "2014-08-08 15:40:38 +0000";
layers = (
{
layerId = "7BDE272C-C7FB-4166-8673-7B6B584E769E";
name = Regular;
paths = (
{
closed = 1;
nodes = (
"239 -130 OFFCURVE",
"233 -128 OFFCURVE",
"226 -125 CURVE",
"216 -117 OFFCURVE",
"211 -108 OFFCURVE",
"211 -98 CURVE SMOOTH",
"211 -95 OFFCURVE",
"211 -92 OFFCURVE",
"212 -91 CURVE",
"246 1 LINE",
"217 1 LINE SMOOTH",
"173 1 OFFCURVE",
"131 18 OFFCURVE",
"99 50 CURVE SMOOTH",
"68 81 OFFCURVE",
"50 123 OFFCURVE",
"50 167 CURVE SMOOTH",
"50 466 LINE SMOOTH",
"50 511 OFFCURVE",
"69 553 OFFCURVE",
"99 582 CURVE SMOOTH",
"129 611 OFFCURVE",
"169 630 OFFCURVE",
"216 630 CURVE SMOOTH",
"744 630 LINE SMOOTH",
"788 630 OFFCURVE",
"830 613 OFFCURVE",
"861 582 CURVE SMOOTH",
"892 551 OFFCURVE",
"910 510 OFFCURVE",
"910 466 CURVE SMOOTH",
"910 166 LINE SMOOTH",
"910 121 OFFCURVE",
"892 80 OFFCURVE",
"862 50 CURVE SMOOTH",
"832 20 OFFCURVE",
"790 1 OFFCURVE",
"745 1 CURVE SMOOTH",
"411 1 LINE",
"263 -124 LINE SMOOTH",
"258 -128 OFFCURVE",
"252 -130 OFFCURVE",
"245 -130 CURVE SMOOTH"
);
}
);
width = 960;
}
);
unicode = E03F;
},
{
glyphname = sf.comment.o;
lastChange = "2014-08-08 15:40:38 +0000";
layers = (
{
layerId = "7BDE272C-C7FB-4166-8673-7B6B584E769E";
name = Regular;
paths = (
{
closed = 1;
nodes = (
"239 -130 OFFCURVE",
"233 -128 OFFCURVE",
"226 -125 CURVE",
"216 -117 OFFCURVE",
"211 -108 OFFCURVE",
"211 -98 CURVE SMOOTH",
"211 -95 OFFCURVE",
"211 -92 OFFCURVE",
"212 -91 CURVE",
"246 1 LINE",
"217 1 LINE SMOOTH",
"173 1 OFFCURVE",
"131 18 OFFCURVE",
"99 50 CURVE SMOOTH",
"68 81 OFFCURVE",
"50 123 OFFCURVE",
"50 167 CURVE SMOOTH",
"50 466 LINE SMOOTH",
"50 511 OFFCURVE",
"69 553 OFFCURVE",
"99 582 CURVE SMOOTH",
"129 611 OFFCURVE",
"171 630 OFFCURVE",
"216 630 CURVE SMOOTH",
"744 630 LINE SMOOTH",
"788 630 OFFCURVE",
"830 613 OFFCURVE",
"861 582 CURVE SMOOTH",
"892 551 OFFCURVE",
"910 510 OFFCURVE",
"910 466 CURVE SMOOTH",
"910 166 LINE SMOOTH",
"910 121 OFFCURVE",
"892 80 OFFCURVE",
"862 50 CURVE SMOOTH",
"832 20 OFFCURVE",
"790 1 OFFCURVE",
"745 1 CURVE SMOOTH",
"411 1 LINE",
"263 -124 LINE SMOOTH",
"258 -128 OFFCURVE",
"252 -130 OFFCURVE",
"245 -130 CURVE SMOOTH"
);
},
{
closed = 1;
nodes = (
"745 81 LINE SMOOTH",
"792 81 OFFCURVE",
"830 119 OFFCURVE",
"830 166 CURVE SMOOTH",
"830 466 LINE SMOOTH",
"830 487 OFFCURVE",
"821 509 OFFCURVE",
"804 525 CURVE SMOOTH",
"787 542 OFFCURVE",
"767 550 OFFCURVE",
"744 550 CURVE SMOOTH",
"216 550 LINE SMOOTH",
"192 550 OFFCURVE",
"171 541 OFFCURVE",
"156 526 CURVE SMOOTH",
"140 510 OFFCURVE",
"130 489 OFFCURVE",
"130 466 CURVE SMOOTH",
"130 167 LINE SMOOTH",
"130 119 OFFCURVE",
"170 81 OFFCURVE",
"217 81 CURVE SMOOTH"
);
}
);
width = 960;
}
);
unicode = E040;
},
{
glyphname = sf.reply;
lastChange = "2014-08-08 15:40:38 +0000";
layers = (
{
layerId = "7BDE272C-C7FB-4166-8673-7B6B584E769E";
name = Regular;
paths = (
{
closed = 1;
nodes = (
"486 347 LINE SMOOTH",
"462 347 OFFCURVE",
"441 337 OFFCURVE",
"426 322 CURVE SMOOTH",
"410 306 OFFCURVE",
"400 284 OFFCURVE",
"400 260 CURVE SMOOTH",
"400 79 LINE SMOOTH",
"400 72 OFFCURVE",
"397 69 OFFCURVE",
"390 69 CURVE SMOOTH",
"355 69 LINE",
"233 -34 LINE",
"228 -37 OFFCURVE",
"222 -39 OFFCURVE",
"217 -39 CURVE SMOOTH",
"214 -39 OFFCURVE",
"209 -38 OFFCURVE",
"202 -35 CURVE",
"193 -28 OFFCURVE",
"189 -21 OFFCURVE",
"189 -12 CURVE SMOOTH",
"189 -9 OFFCURVE",
"189 -7 OFFCURVE",
"190 -6 CURVE",
"218 69 LINE",
"180 69 LINE SMOOTH",
"144 69 OFFCURVE",
"112 84 OFFCURVE",
"88 108 CURVE SMOOTH",
"64 131 OFFCURVE",
"50 163 OFFCURVE",
"50 199 CURVE SMOOTH",
"50 496 LINE SMOOTH",
"50 532 OFFCURVE",
"64 564 OFFCURVE",
"88 588 CURVE SMOOTH",
"112 612 OFFCURVE",
"144 626 OFFCURVE",
"180 626 CURVE SMOOTH",
"681 626 LINE SMOOTH",
"717 626 OFFCURVE",
"749 612 OFFCURVE",
"773 588 CURVE SMOOTH",
"797 564 OFFCURVE",
"811 532 OFFCURVE",
"811 496 CURVE SMOOTH",
"811 357 LINE SMOOTH",
"811 350 OFFCURVE",
"808 347 OFFCURVE",
"801 347 CURVE SMOOTH"
);
},
{
closed = 1;
nodes = (
"540 267 LINE SMOOTH",
"507 267 OFFCURVE",
"480 240 OFFCURVE",
"480 207 CURVE SMOOTH",
"480 26 LINE SMOOTH",
"480 -7 OFFCURVE",
"507 -34 OFFCURVE",
"540 -34 CURVE SMOOTH",
"702 -34 LINE",
"805 -121 LINE",
"810 -124 OFFCURVE",
"816 -126 OFFCURVE",
"821 -126 CURVE SMOOTH",
"826 -126 OFFCURVE",
"831 -125 OFFCURVE",
"836 -122 CURVE",
"845 -115 OFFCURVE",
"849 -108 OFFCURVE",
"849 -99 CURVE SMOOTH",
"849 -96 OFFCURVE",
"849 -94 OFFCURVE",
"848 -93 CURVE",
"827 -34 LINE",
"850 -34 LINE SMOOTH",
"883 -34 OFFCURVE",
"910 -7 OFFCURVE",
"910 26 CURVE SMOOTH",
"910 207 LINE SMOOTH",
"910 240 OFFCURVE",
"883 267 OFFCURVE",
"850 267 CURVE SMOOTH"
);
}
);
width = 960;
}
);
unicode = E041;
},
{
glyphname = sf.reply.o;
lastChange = "2014-08-08 15:40:38 +0000";
layers = (
{
layerId = "7BDE272C-C7FB-4166-8673-7B6B584E769E";
name = Regular;
paths = (
{
closed = 1;
nodes = (
"540 267 LINE SMOOTH",
"507 267 OFFCURVE",
"480 240 OFFCURVE",
"480 207 CURVE SMOOTH",
"480 26 LINE SMOOTH",
"480 -7 OFFCURVE",
"507 -34 OFFCURVE",
"540 -34 CURVE SMOOTH",
"702 -34 LINE",
"805 -121 LINE",
"810 -124 OFFCURVE",
"816 -126 OFFCURVE",
"821 -126 CURVE SMOOTH",
"826 -126 OFFCURVE",
"831 -125 OFFCURVE",
"836 -122 CURVE",
"845 -115 OFFCURVE",
"849 -108 OFFCURVE",
"849 -99 CURVE SMOOTH",
"849 -96 OFFCURVE",
"849 -94 OFFCURVE",
"848 -93 CURVE",
"827 -34 LINE",
"850 -34 LINE SMOOTH",
"883 -34 OFFCURVE",
"910 -7 OFFCURVE",
"910 26 CURVE SMOOTH",
"910 207 LINE SMOOTH",
"910 240 OFFCURVE",
"883 267 OFFCURVE",
"850 267 CURVE SMOOTH"
);
},
{
closed = 1;
nodes = (
"811 357 LINE SMOOTH",
"811 350 OFFCURVE",
"808 347 OFFCURVE",
"801 347 CURVE SMOOTH",
"741 347 LINE SMOOTH",
"734 347 OFFCURVE",
"731 350 OFFCURVE",
"731 357 CURVE SMOOTH",
"731 496 LINE SMOOTH",
"731 523 OFFCURVE",
"709 546 OFFCURVE",
"681 546 CURVE SMOOTH",
"180 546 LINE SMOOTH",
"152 546 OFFCURVE",
"130 523 OFFCURVE",
"130 496 CURVE SMOOTH",
"130 199 LINE SMOOTH",
"130 172 OFFCURVE",
"152 149 OFFCURVE",
"180 149 CURVE SMOOTH",
"390 149 LINE SMOOTH",
"397 149 OFFCURVE",
"400 146 OFFCURVE",
"400 139 CURVE SMOOTH",
"400 79 LINE SMOOTH",
"400 72 OFFCURVE",
"397 69 OFFCURVE",
"390 69 CURVE SMOOTH",
"355 69 LINE",
"233 -34 LINE",
"228 -37 OFFCURVE",
"222 -39 OFFCURVE",
"217 -39 CURVE SMOOTH",
"214 -39 OFFCURVE",
"209 -38 OFFCURVE",
"202 -35 CURVE",
"193 -28 OFFCURVE",
"189 -21 OFFCURVE",
"189 -12 CURVE SMOOTH",
"189 -9 OFFCURVE",
"189 -7 OFFCURVE",
"190 -6 CURVE",
"218 69 LINE",
"180 69 LINE SMOOTH",
"144 69 OFFCURVE",
"112 84 OFFCURVE",
"88 108 CURVE SMOOTH",
"64 131 OFFCURVE",
"50 163 OFFCURVE",
"50 199 CURVE SMOOTH",
"50 496 LINE SMOOTH",
"50 532 OFFCURVE",
"64 564 OFFCURVE",
"88 588 CURVE SMOOTH",
"112 612 OFFCURVE",
"144 626 OFFCURVE",
"180 626 CURVE SMOOTH",
"681 626 LINE SMOOTH",
"717 626 OFFCURVE",
"749 612 OFFCURVE",
"773 588 CURVE SMOOTH",
"797 564 OFFCURVE",
"811 532 OFFCURVE",
"811 496 CURVE SMOOTH"
);
}
);
width = 960;
}
);
unicode = E042;
},
{
glyphname = sf.compass;
lastChange = "2014-08-08 15:40:38 +0000";
layers = (
{
hints = (
{
horizontal = 1;
origin = "{2, 0}";
target = "{1, 1}";
},
{
origin = "{1, 0}";
target = "{2, 1}";
},
{
horizontal = 1;
origin = "{0, 8}";
target = down;
type = TopGhost;
},
{
horizontal = 1;
origin = "{0, 32}";
target = up;
type = BottomGhost;
}
);
layerId = "7BDE272C-C7FB-4166-8673-7B6B584E769E";
name = Regular;
paths = (
{
closed = 1;
nodes = (
"855 469 OFFCURVE",
"824 515 OFFCURVE",
"784 554 CURVE SMOOTH",
"745 594 OFFCURVE",
"699 625 OFFCURVE",
"647 646 CURVE SMOOTH",
"594 669 OFFCURVE",
"538 680 OFFCURVE",
"480 680 CURVE SMOOTH",
"422 680 OFFCURVE",
"366 669 OFFCURVE",
"313 646 CURVE SMOOTH",
"261 625 OFFCURVE",
"215 594 OFFCURVE",
"176 554 CURVE SMOOTH",
"136 515 OFFCURVE",
"105 469 OFFCURVE",
"84 417 CURVE SMOOTH",
"61 364 OFFCURVE",
"50 308 OFFCURVE",
"50 250 CURVE SMOOTH",
"50 192 OFFCURVE",
"61 136 OFFCURVE",
"84 83 CURVE SMOOTH",
"105 31 OFFCURVE",
"136 -15 OFFCURVE",
"176 -54 CURVE SMOOTH",
"215 -94 OFFCURVE",
"261 -125 OFFCURVE",
"313 -146 CURVE SMOOTH",
"366 -169 OFFCURVE",
"422 -180 OFFCURVE",
"480 -180 CURVE SMOOTH",
"538 -180 OFFCURVE",
"594 -169 OFFCURVE",
"647 -146 CURVE SMOOTH",
"699 -125 OFFCURVE",
"745 -94 OFFCURVE",
"784 -54 CURVE SMOOTH",
"824 -15 OFFCURVE",
"855 31 OFFCURVE",
"876 83 CURVE SMOOTH",
"899 136 OFFCURVE",
"910 192 OFFCURVE",
"910 250 CURVE SMOOTH",
"910 308 OFFCURVE",
"899 364 OFFCURVE",
"876 417 CURVE SMOOTH"
);
},
{
closed = 1;
nodes = (
"296 66 LINE",
"431 299 LINE",
"664 434 LINE",
"529 201 LINE"
);
},
{
closed = 1;
nodes = (
"444 286 LINE",
"346 116 LINE",
"516 214 LINE"
);
}
);
width = 960;
}
);
unicode = E043;
},
{
glyphname = sf.compass.o;
lastChange = "2014-08-08 15:40:38 +0000";
layers = (
{
layerId = "7BDE272C-C7FB-4166-8673-7B6B584E769E";
name = Regular;
paths = (
{
closed = 1;
nodes = (
"855 469 OFFCURVE",
"824 515 OFFCURVE",
"784 554 CURVE SMOOTH",
"745 594 OFFCURVE",
"699 625 OFFCURVE",
"647 646 CURVE SMOOTH",
"594 669 OFFCURVE",
"538 680 OFFCURVE",
"480 680 CURVE SMOOTH",
"422 680 OFFCURVE",
"366 669 OFFCURVE",
"313 646 CURVE SMOOTH",
"261 625 OFFCURVE",
"215 594 OFFCURVE",
"176 554 CURVE SMOOTH",
"136 515 OFFCURVE",
"105 469 OFFCURVE",
"84 417 CURVE SMOOTH",
"61 364 OFFCURVE",
"50 308 OFFCURVE",
"50 250 CURVE SMOOTH",
"50 192 OFFCURVE",
"61 136 OFFCURVE",
"84 83 CURVE SMOOTH",
"105 31 OFFCURVE",
"136 -15 OFFCURVE",
"176 -54 CURVE SMOOTH",
"215 -94 OFFCURVE",
"261 -125 OFFCURVE",
"313 -146 CURVE SMOOTH",
"366 -169 OFFCURVE",
"422 -180 OFFCURVE",
"480 -180 CURVE SMOOTH",
"538 -180 OFFCURVE",
"594 -169 OFFCURVE",
"647 -146 CURVE SMOOTH",
"699 -125 OFFCURVE",
"745 -94 OFFCURVE",
"784 -54 CURVE SMOOTH",
"824 -15 OFFCURVE",
"855 31 OFFCURVE",
"876 83 CURVE SMOOTH",
"899 136 OFFCURVE",
"910 192 OFFCURVE",
"910 250 CURVE SMOOTH",
"910 308 OFFCURVE",
"899 364 OFFCURVE",
"876 417 CURVE SMOOTH"
);
},
{
closed = 1;
nodes = (
"767 82 OFFCURVE",
"744 47 OFFCURVE",
"713 17 CURVE SMOOTH",
"683 -14 OFFCURVE",
"648 -37 OFFCURVE",
"608 -54 CURVE SMOOTH",
"568 -71 OFFCURVE",
"525 -80 OFFCURVE",
"480 -80 CURVE SMOOTH",
"435 -80 OFFCURVE",
"392 -71 OFFCURVE",
"352 -54 CURVE SMOOTH",
"312 -37 OFFCURVE",
"277 -14 OFFCURVE",
"247 17 CURVE SMOOTH",
"216 47 OFFCURVE",
"193 82 OFFCURVE",
"176 122 CURVE SMOOTH",
"159 162 OFFCURVE",
"150 205 OFFCURVE",
"150 250 CURVE SMOOTH",
"150 295 OFFCURVE",
"159 338 OFFCURVE",
"176 378 CURVE SMOOTH",
"193 418 OFFCURVE",
"216 453 OFFCURVE",
"247 483 CURVE SMOOTH",
"277 514 OFFCURVE",
"312 537 OFFCURVE",
"352 554 CURVE SMOOTH",
"392 571 OFFCURVE",
"435 580 OFFCURVE",
"480 580 CURVE SMOOTH",
"525 580 OFFCURVE",
"568 571 OFFCURVE",
"608 554 CURVE SMOOTH",
"648 537 OFFCURVE",
"683 514 OFFCURVE",
"713 483 CURVE SMOOTH",
"744 453 OFFCURVE",
"767 418 OFFCURVE",
"784 378 CURVE SMOOTH",
"801 338 OFFCURVE",
"810 295 OFFCURVE",
"810 250 CURVE SMOOTH",
"810 205 OFFCURVE",
"801 162 OFFCURVE",
"784 122 CURVE SMOOTH"
);
},
{
closed = 1;
nodes = (
"501 229 LINE",
"401 171 LINE",
"459 271 LINE",
"431 299 LINE",
"296 66 LINE",
"529 201 LINE"
);
},
{
closed = 1;
nodes = (
"664 434 LINE",
"431 299 LINE",
"529 201 LINE"
);
}
);
width = 960;
}
);
unicode = E044;
},
{
glyphname = sf.direction;
lastChange = "2014-08-08 15:40:38 +0000";
layers = (
{
layerId = "7BDE272C-C7FB-4166-8673-7B6B584E769E";
name = Regular;
paths = (
{
closed = 1;
nodes = (
"912 656 OFFCURVE",
"910 666 OFFCURVE",
"903 673 CURVE SMOOTH",
"897 680 OFFCURVE",
"886 682 OFFCURVE",
"878 677 CURVE SMOOTH",
"62 271 LINE SMOOTH",
"53 266 OFFCURVE",
"48 256 OFFCURVE",
"50 246 CURVE SMOOTH",
"53 236 OFFCURVE",
"62 229 OFFCURVE",
"72 229 CURVE SMOOTH",
"437 229 LINE SMOOTH",
"449 229 OFFCURVE",
"459 219 OFFCURVE",
"459 207 CURVE SMOOTH",
"459 -158 LINE SMOOTH",
"459 -168 OFFCURVE",
"466 -177 OFFCURVE",
"476 -180 CURVE SMOOTH",
"486 -182 OFFCURVE",
"496 -177 OFFCURVE",
"501 -168 CURVE SMOOTH",
"907 648 LINE SMOOTH"
);
}
);
width = 959.777;
}
);
unicode = E045;
},
{
glyphname = sf.direction.o;
lastChange = "2014-08-08 15:40:38 +0000";
layers = (
{
layerId = "7BDE272C-C7FB-4166-8673-7B6B584E769E";
name = Regular;
paths = (
{
closed = 1;
nodes = (
"912 681 OFFCURVE",
"910 691 OFFCURVE",
"903 698 CURVE SMOOTH",
"897 705 OFFCURVE",
"886 707 OFFCURVE",
"878 702 CURVE SMOOTH",
"62 296 LINE SMOOTH",
"53 291 OFFCURVE",
"48 281 OFFCURVE",
"50 271 CURVE SMOOTH",
"53 261 OFFCURVE",
"62 254 OFFCURVE",
"72 254 CURVE SMOOTH",
"437 254 LINE SMOOTH",
"449 254 OFFCURVE",
"459 244 OFFCURVE",
"459 232 CURVE SMOOTH",
"459 -133 LINE SMOOTH",
"459 -143 OFFCURVE",
"466 -152 OFFCURVE",
"476 -155 CURVE SMOOTH",
"486 -157 OFFCURVE",
"496 -152 OFFCURVE",
"501 -143 CURVE SMOOTH",
"907 673 LINE SMOOTH"
);
},
{
closed = 1;
nodes = (
"764 559 LINE",
"537 103 LINE",
"537 309 LINE SMOOTH",
"537 322 OFFCURVE",
"527 332 OFFCURVE",
"514 332 CURVE SMOOTH",
"308 332 LINE"
);
}
);
width = 959.777;
}
);
unicode = E046;
},
{
glyphname = sf.poi;
lastChange = "2014-08-08 15:40:38 +0000";
layers = (
{
layerId = "7BDE272C-C7FB-4166-8673-7B6B584E769E";
name = Regular;
paths = (
{
closed = 1;
nodes = (
"540 571 OFFCURVE",
"430 680 OFFCURVE",
"295 680 CURVE SMOOTH",
"160 680 OFFCURVE",
"50 571 OFFCURVE",
"50 435 CURVE SMOOTH",
"50 418 OFFCURVE",
"52 401 OFFCURVE",
"55 384 CURVE",
"69 342 LINE",
"70 339 OFFCURVE",
"71 336 OFFCURVE",
"72 333 CURVE",
"276 -168 LINE SMOOTH",
"280 -175 OFFCURVE",
"287 -180 OFFCURVE",
"295 -180 CURVE SMOOTH",
"303 -180 OFFCURVE",
"310 -175 OFFCURVE",
"314 -168 CURVE SMOOTH",
"518 333 LINE",
"519 336 OFFCURVE",
"520 339 OFFCURVE",
"521 342 CURVE",
"535 384 LINE",
"538 401 OFFCURVE",
"540 418 OFFCURVE",
"540 435 CURVE SMOOTH"
);
},
{
closed = 1;
nodes = (
"215 290 OFFCURVE",
"150 355 OFFCURVE",
"150 435 CURVE SMOOTH",
"150 515 OFFCURVE",
"215 580 OFFCURVE",
"295 580 CURVE SMOOTH",
"375 580 OFFCURVE",
"440 515 OFFCURVE",
"440 435 CURVE SMOOTH",
"440 355 OFFCURVE",
"375 290 OFFCURVE",
"295 290 CURVE SMOOTH"
);
}
);
width = 590;
}
);
unicode = E047;
},
{
glyphname = sf.poi.o;
lastChange = "2014-08-08 15:40:38 +0000";
layers = (
{
layerId = "7BDE272C-C7FB-4166-8673-7B6B584E769E";
name = Regular;
paths = (
{
closed = 1;
nodes = (
"311 -175 OFFCURVE",
"303 -180 OFFCURVE",
"295 -180 CURVE SMOOTH",
"287 -180 OFFCURVE",
"280 -175 OFFCURVE",
"277 -168 CURVE SMOOTH",
"72 333 LINE",
"71 336 OFFCURVE",
"70 339 OFFCURVE",
"69 341 CURVE SMOOTH",
"68 343 LINE",
"56 382 LINE",
"55 384 LINE SMOOTH",
"52 401 OFFCURVE",
"50 418 OFFCURVE",
"50 435 CURVE SMOOTH",
"50 500 OFFCURVE",
"76 562 OFFCURVE",
"122 608 CURVE SMOOTH",
"168 655 OFFCURVE",
"230 680 OFFCURVE",
"295 680 CURVE SMOOTH",
"361 680 OFFCURVE",
"422 655 OFFCURVE",
"469 608 CURVE SMOOTH",
"515 562 OFFCURVE",
"540 500 OFFCURVE",
"540 435 CURVE SMOOTH",
"540 418 OFFCURVE",
"539 401 OFFCURVE",
"535 384 CURVE SMOOTH",
"535 382 LINE",
"523 343 LINE",
"522 341 LINE SMOOTH",
"521 338 OFFCURVE",
"520 336 OFFCURVE",
"518 333 CURVE",
"314 -168 LINE SMOOTH"
);
},
{
closed = 1;
nodes = (
"147 370 OFFCURVE",
"147 369 OFFCURVE",
"148 368 CURVE SMOOTH",
"148 367 LINE",
"295 -4 LINE",
"443 367 LINE",
"443 368 LINE SMOOTH",
"443 369 OFFCURVE",
"444 370 OFFCURVE",
"444 371 CURVE",
"454 403 LINE",
"456 413 OFFCURVE",
"457 424 OFFCURVE",
"457 435 CURVE SMOOTH",
"457 524 OFFCURVE",
"385 597 OFFCURVE",
"295 597 CURVE SMOOTH",
"206 597 OFFCURVE",
"133 524 OFFCURVE",
"133 435 CURVE SMOOTH",
"133 424 OFFCURVE",
"134 413 OFFCURVE",
"136 403 CURVE",
"146 371 LINE"
);
},
{
closed = 1;
nodes = (
"380 389 OFFCURVE",
"342 351 OFFCURVE",
"295 351 CURVE SMOOTH",
"248 351 OFFCURVE",
"210 389 OFFCURVE",
"210 436 CURVE SMOOTH",
"210 483 OFFCURVE",
"248 521 OFFCURVE",
"295 521 CURVE SMOOTH",
"342 521 OFFCURVE",
"380 483 OFFCURVE",
"380 436 CURVE SMOOTH"
);
}
);
width = 590;
}
);
unicode = E048;
},
{
glyphname = sf.star;
lastChange = "2014-08-08 15:40:38 +0000";
layers = (
{
layerId = "7BDE272C-C7FB-4166-8673-7B6B584E769E";
name = Regular;
paths = (
{
closed = 1;
nodes = (
"223 -180 LINE",
"276 131 LINE",
"50 352 LINE",
"362 397 LINE",
"502 680 LINE",
"642 397 LINE",
"954 352 LINE",
"728 131 LINE",
"782 -180 LINE",
"502 -33 LINE"
);
}
);
width = 1004;
}
);
unicode = E049;
},
{
glyphname = sf.star.o;
lastChange = "2014-08-08 15:40:38 +0000";
layers = (
{
layerId = "7BDE272C-C7FB-4166-8673-7B6B584E769E";
name = Regular;
paths = (
{
closed = 1;
nodes = (
"642 397 LINE",
"502 680 LINE",
"362 397 LINE",
"50 352 LINE",
"276 131 LINE",
"223 -180 LINE",
"502 -33 LINE",
"782 -180 LINE",
"728 131 LINE",
"954 352 LINE"
);
},
{
closed = 1;
nodes = (
"356 3 LINE",
"384 166 LINE",
"265 282 LINE",
"429 306 LINE",
"502 454 LINE",
"575 306 LINE",
"739 282 LINE",
"621 166 LINE",
"649 3 LINE",
"502 80 LINE"
);
}
);
width = 1004;
}
);
unicode = E04A;
},
{
glyphname = sf.half.star;
lastChange = "2014-08-08 15:40:38 +0000";
layers = (
{
layerId = "7BDE272C-C7FB-4166-8673-7B6B584E769E";
name = Regular;
paths = (
{
closed = 1;
nodes = (
"502 680 LINE",
"362 397 LINE",
"50 352 LINE",
"276 131 LINE",
"223 -180 LINE",
"502 -33 LINE"
);
}
);
width = 552;
}
);
unicode = E04B;
},
{
glyphname = sf.half.star.o;
lastChange = "2014-08-08 15:40:38 +0000";
layers = (
{
layerId = "7BDE272C-C7FB-4166-8673-7B6B584E769E";
name = Regular;
paths = (
{
closed = 1;
nodes = (
"642 397 LINE",
"502 680 LINE",
"362 397 LINE",
"50 352 LINE",
"276 131 LINE",
"223 -180 LINE",
"502 -33 LINE",
"782 -180 LINE",
"728 131 LINE",
"954 352 LINE"
);
},
{
closed = 1;
nodes = (
"502 454 LINE",
"575 306 LINE",
"739 282 LINE",
"621 166 LINE",
"649 3 LINE",
"502 80 LINE"
);
}
);
width = 1004;
}
);
unicode = E04C;
},
{
glyphname = sf.reorder;
lastChange = "2014-08-08 15:40:38 +0000";
layers = (
{
hints = (
{
horizontal = 1;
origin = "{0, 12}";
target = "{0, 3}";
},
{
horizontal = 1;
origin = "{1, 12}";
target = "{1, 3}";
},
{
horizontal = 1;
origin = "{2, 12}";
target = "{2, 3}";
}
);
layerId = "7BDE272C-C7FB-4166-8673-7B6B584E769E";
name = Regular;
paths = (
{
closed = 1;
nodes = (
"50 4 LINE SMOOTH",
"50 24 OFFCURVE",
"66 40 OFFCURVE",
"86 40 CURVE SMOOTH",
"873 40 LINE SMOOTH",
"893 40 OFFCURVE",
"909 24 OFFCURVE",
"909 4 CURVE SMOOTH",
"909 -64 LINE SMOOTH",
"909 -84 OFFCURVE",
"893 -100 OFFCURVE",
"873 -100 CURVE SMOOTH",
"86 -100 LINE SMOOTH",
"66 -100 OFFCURVE",
"50 -84 OFFCURVE",
"50 -64 CURVE SMOOTH"
);
},
{
closed = 1;
nodes = (
"50 285 LINE SMOOTH",
"50 304 OFFCURVE",
"66 320 OFFCURVE",
"86 320 CURVE SMOOTH",
"873 320 LINE SMOOTH",
"893 320 OFFCURVE",
"909 304 OFFCURVE",
"909 285 CURVE SMOOTH",
"909 215 LINE SMOOTH",
"909 196 OFFCURVE",
"893 180 OFFCURVE",
"873 180 CURVE SMOOTH",
"86 180 LINE SMOOTH",
"66 180 OFFCURVE",
"50 196 OFFCURVE",
"50 215 CURVE SMOOTH"
);
},
{
closed = 1;
nodes = (
"50 564 LINE SMOOTH",
"50 584 OFFCURVE",
"66 600 OFFCURVE",
"86 600 CURVE",
"873 600 LINE SMOOTH",
"893 600 OFFCURVE",
"909 584 OFFCURVE",
"909 564 CURVE SMOOTH",
"909 496 LINE SMOOTH",
"909 476 OFFCURVE",
"893 460 OFFCURVE",
"873 460 CURVE SMOOTH",
"86 460 LINE SMOOTH",
"66 460 OFFCURVE",
"50 476 OFFCURVE",
"50 496 CURVE SMOOTH"
);
}
);
width = 959;
}
);
unicode = E04D;
},
{
glyphname = sf.tag;
lastChange = "2014-08-08 15:40:38 +0000";
layers = (
{
layerId = "7BDE272C-C7FB-4166-8673-7B6B584E769E";
name = Regular;
paths = (
{
closed = 1;
nodes = (
"769 518 LINE SMOOTH",
"771 543 OFFCURVE",
"761 568 OFFCURVE",
"744 586 CURVE SMOOTH",
"726 603 OFFCURVE",
"701 613 OFFCURVE",
"676 611 CURVE SMOOTH",
"430 595 LINE SMOOTH",
"409 593 OFFCURVE",
"389 584 OFFCURVE",
"374 569 CURVE SMOOTH",
"63 259 LINE SMOOTH",
"46 242 OFFCURVE",
"46 214 OFFCURVE",
"63 197 CURVE SMOOTH",
"355 -95 LINE SMOOTH",
"372 -112 OFFCURVE",
"400 -112 OFFCURVE",
"417 -95 CURVE SMOOTH",
"727 216 LINE SMOOTH",
"742 231 OFFCURVE",
"751 251 OFFCURVE",
"753 272 CURVE SMOOTH"
);
},
{
closed = 1;
nodes = (
"540 413 OFFCURVE",
"540 439 OFFCURVE",
"556 454 CURVE SMOOTH",
"571 470 OFFCURVE",
"597 470 OFFCURVE",
"612 454 CURVE SMOOTH",
"628 439 OFFCURVE",
"628 413 OFFCURVE",
"612 398 CURVE SMOOTH",
"597 382 OFFCURVE",
"571 382 OFFCURVE",
"556 398 CURVE SMOOTH"
);
}
);
width = 819.253;
}
);
unicode = E051;
},
{
glyphname = sf.tag.o;
lastChange = "2014-08-08 15:40:38 +0000";
layers = (
{
layerId = "7BDE272C-C7FB-4166-8673-7B6B584E769E";
name = Regular;
paths = (
{
closed = 1;
nodes = (
"769 518 LINE SMOOTH",
"770 543 OFFCURVE",
"761 568 OFFCURVE",
"743 586 CURVE SMOOTH",
"725 603 OFFCURVE",
"701 613 OFFCURVE",
"676 611 CURVE SMOOTH",
"429 595 LINE SMOOTH",
"408 593 OFFCURVE",
"388 584 OFFCURVE",
"373 569 CURVE SMOOTH",
"62 259 LINE SMOOTH",
"46 242 OFFCURVE",
"46 214 OFFCURVE",
"62 197 CURVE SMOOTH",
"355 -95 LINE SMOOTH",
"372 -112 OFFCURVE",
"399 -112 OFFCURVE",
"416 -95 CURVE SMOOTH",
"727 216 LINE SMOOTH",
"742 231 OFFCURVE",
"751 251 OFFCURVE",
"752 272 CURVE SMOOTH"
);
},
{
closed = 1;
nodes = (
"131 228 LINE",
"423 520 LINE SMOOTH",
"426 523 OFFCURVE",
"430 525 OFFCURVE",
"434 525 CURVE SMOOTH",
"680 541 LINE SMOOTH",
"685 542 OFFCURVE",
"690 540 OFFCURVE",
"694 536 CURVE SMOOTH",
"697 533 OFFCURVE",
"699 528 OFFCURVE",
"699 523 CURVE SMOOTH",
"682 276 LINE SMOOTH",
"682 272 OFFCURVE",
"680 268 OFFCURVE",
"677 265 CURVE SMOOTH",
"385 -27 LINE"
);
},
{
closed = 1;
nodes = (
"596 382 OFFCURVE",
"571 382 OFFCURVE",
"555 398 CURVE SMOOTH",
"540 413 OFFCURVE",
"540 439 OFFCURVE",
"555 454 CURVE SMOOTH",
"571 470 OFFCURVE",
"596 470 OFFCURVE",
"612 454 CURVE SMOOTH",
"628 439 OFFCURVE",
"628 413 OFFCURVE",
"612 398 CURVE SMOOTH"
);
}
);
width = 819.075;
}
);
unicode = E052;
},
{
glyphname = sf.ticket;
lastChange = "2014-08-08 15:40:38 +0000";
layers = (
{
layerId = "7BDE272C-C7FB-4166-8673-7B6B584E769E";
name = Regular;
paths = (
{
closed = 1;
nodes = (
"808 468 OFFCURVE",
"766 468 OFFCURVE",
"741 494 CURVE SMOOTH",
"716 519 OFFCURVE",
"716 560 OFFCURVE",
"741 586 CURVE",
"631 696 LINE SMOOTH",
"620 707 OFFCURVE",
"601 707 OFFCURVE",
"590 696 CURVE SMOOTH",
"59 165 LINE SMOOTH",
"47 154 OFFCURVE",
"47 135 OFFCURVE",
"59 124 CURVE SMOOTH",
"169 13 LINE",
"194 39 OFFCURVE",
"236 39 OFFCURVE",
"261 13 CURVE SMOOTH",
"286 -12 OFFCURVE",
"286 -53 OFFCURVE",
"261 -78 CURVE",
"371 -189 LINE SMOOTH",
"382 -200 OFFCURVE",
"401 -200 OFFCURVE",
"412 -189 CURVE SMOOTH",
"943 342 LINE SMOOTH",
"955 354 OFFCURVE",
"955 372 OFFCURVE",
"943 383 CURVE SMOOTH",
"833 494 LINE"
);
}
);
width = 1002;
}
);
unicode = E04F;
},
{
glyphname = sf.ticket.o;
lastChange = "2014-08-08 15:40:38 +0000";
layers = (
{
layerId = "7BDE272C-C7FB-4166-8673-7B6B584E769E";
name = Regular;
paths = (
{
closed = 1;
nodes = (
"954 372 OFFCURVE",
"954 354 OFFCURVE",
"943 342 CURVE SMOOTH",
"412 -189 LINE SMOOTH",
"401 -200 OFFCURVE",
"382 -200 OFFCURVE",
"371 -189 CURVE SMOOTH",
"261 -78 LINE",
"286 -53 OFFCURVE",
"286 -12 OFFCURVE",
"261 13 CURVE SMOOTH",
"235 39 OFFCURVE",
"194 39 OFFCURVE",
"169 13 CURVE",
"59 124 LINE SMOOTH",
"47 135 OFFCURVE",
"47 154 OFFCURVE",
"59 165 CURVE SMOOTH",
"589 696 LINE SMOOTH",
"601 707 OFFCURVE",
"619 707 OFFCURVE",
"631 696 CURVE SMOOTH",
"741 586 LINE",
"715 560 OFFCURVE",
"715 519 OFFCURVE",
"741 494 CURVE SMOOTH",
"766 468 OFFCURVE",
"807 468 OFFCURVE",
"833 494 CURVE",
"943 383 LINE SMOOTH"
);
},
{
closed = 1;
nodes = (
"864 363 LINE",
"819 408 LINE",
"775 398 OFFCURVE",
"726 410 OFFCURVE",
"691 444 CURVE SMOOTH",
"657 479 OFFCURVE",
"645 527 OFFCURVE",
"656 572 CURVE",
"610 617 LINE",
"137 144 LINE",
"183 99 LINE",
"227 109 OFFCURVE",
"276 98 OFFCURVE",
"310 63 CURVE SMOOTH",
"345 28 OFFCURVE",
"357 -20 OFFCURVE",
"346 -65 CURVE",
"391 -110 LINE"
);
}
);
width = 1001.25;
}
);
unicode = E050;
},
{
glyphname = sf.ul;
lastChange = "2014-08-08 15:40:38 +0000";
layers = (
{
layerId = "7BDE272C-C7FB-4166-8673-7B6B584E769E";
name = Regular;
paths = (
{
closed = 1;
nodes = (
"300 4 LINE SMOOTH",
"300 24 OFFCURVE",
"316 40 OFFCURVE",
"336 40 CURVE SMOOTH",
"874 40 LINE SMOOTH",
"894 40 OFFCURVE",
"910 24 OFFCURVE",
"910 4 CURVE SMOOTH",
"910 -64 LINE SMOOTH",
"910 -84 OFFCURVE",
"894 -100 OFFCURVE",
"874 -100 CURVE SMOOTH",
"336 -100 LINE SMOOTH",
"316 -100 OFFCURVE",
"300 -84 OFFCURVE",
"300 -64 CURVE SMOOTH"
);
},
{
closed = 1;
nodes = (
"300 285 LINE SMOOTH",
"300 304 OFFCURVE",
"316 320 OFFCURVE",
"336 320 CURVE SMOOTH",
"874 320 LINE SMOOTH",
"894 320 OFFCURVE",
"910 304 OFFCURVE",
"910 285 CURVE SMOOTH",
"910 215 LINE SMOOTH",
"910 196 OFFCURVE",
"894 180 OFFCURVE",
"874 180 CURVE SMOOTH",
"336 180 LINE SMOOTH",
"316 180 OFFCURVE",
"300 196 OFFCURVE",
"300 215 CURVE SMOOTH"
);
},
{
closed = 1;
nodes = (
"300 564 LINE SMOOTH",
"300 584 OFFCURVE",
"316 600 OFFCURVE",
"336 600 CURVE SMOOTH",
"874 600 LINE SMOOTH",
"894 600 OFFCURVE",
"910 584 OFFCURVE",
"910 564 CURVE SMOOTH",
"910 496 LINE SMOOTH",
"910 476 OFFCURVE",
"894 460 OFFCURVE",
"874 460 CURVE SMOOTH",
"336 460 LINE SMOOTH",
"316 460 OFFCURVE",
"300 476 OFFCURVE",
"300 496 CURVE SMOOTH"
);
},
{
closed = 1;
nodes = (
"50 285 LINE SMOOTH",
"50 304 OFFCURVE",
"65 320 OFFCURVE",
"82 320 CURVE SMOOTH",
"157 320 LINE SMOOTH",
"176 320 OFFCURVE",
"190 304 OFFCURVE",
"190 285 CURVE SMOOTH",
"190 215 LINE SMOOTH",
"190 196 OFFCURVE",
"176 180 OFFCURVE",
"157 180 CURVE SMOOTH",
"82 180 LINE SMOOTH",
"65 180 OFFCURVE",
"50 196 OFFCURVE",
"50 215 CURVE SMOOTH"
);
},
{
closed = 1;
nodes = (
"50 4 LINE SMOOTH",
"50 24 OFFCURVE",
"65 40 OFFCURVE",
"82 40 CURVE SMOOTH",
"157 40 LINE SMOOTH",
"176 40 OFFCURVE",
"190 24 OFFCURVE",
"190 4 CURVE SMOOTH",
"190 -64 LINE SMOOTH",
"190 -84 OFFCURVE",
"176 -100 OFFCURVE",
"157 -100 CURVE SMOOTH",
"82 -100 LINE SMOOTH",
"65 -100 OFFCURVE",
"50 -84 OFFCURVE",
"50 -64 CURVE SMOOTH"
);
},
{
closed = 1;
nodes = (
"50 564 LINE SMOOTH",
"50 584 OFFCURVE",
"65 600 OFFCURVE",
"82 600 CURVE SMOOTH",
"157 600 LINE SMOOTH",
"176 600 OFFCURVE",
"190 584 OFFCURVE",
"190 564 CURVE SMOOTH",
"190 496 LINE SMOOTH",
"190 476 OFFCURVE",
"176 460 OFFCURVE",
"157 460 CURVE SMOOTH",
"82 460 LINE SMOOTH",
"65 460 OFFCURVE",
"50 476 OFFCURVE",
"50 496 CURVE SMOOTH"
);
}
);
width = 960;
}
);
unicode = E04E;
},
{
glyphname = sf.tasks;
lastChange = "2014-08-08 15:40:38 +0000";
layers = (
{
layerId = "7BDE272C-C7FB-4166-8673-7B6B584E769E";
name = Regular;
paths = (
{
closed = 1;
nodes = (
"50 615 LINE",
"50 442 LINE",
"1000 442 LINE",
"1000 615 LINE"
);
},
{
closed = 1;
nodes = (
"565 491 LINE",
"565 567 LINE",
"964 567 LINE",
"964 491 LINE"
);
},
{
closed = 1;
nodes = (
"50 344 LINE",
"50 171 LINE",
"1000 171 LINE",
"1000 344 LINE"
);
},
{
closed = 1;
nodes = (
"262 219 LINE",
"262 296 LINE",
"964 296 LINE",
"964 219 LINE"
);
},
{
closed = 1;
nodes = (
"50 62 LINE",
"50 -111 LINE",
"1000 -111 LINE",
"1000 62 LINE"
);
},
{
closed = 1;
nodes = (
"444 -63 LINE",
"444 13 LINE",
"964 13 LINE",
"964 -63 LINE"
);
}
);
width = 1050;
}
);
unicode = E054;
},
{
glyphname = sf.power.off;
lastChange = "2014-08-08 15:40:38 +0000";
layers = (
{
layerId = "7BDE272C-C7FB-4166-8673-7B6B584E769E";
name = Regular;
paths = (
{
closed = 1;
nodes = (
"745 492 OFFCURVE",
"690 541 OFFCURVE",
"624 574 CURVE",
"624 574 OFFCURVE",
"624 574 OFFCURVE",
"624 574 CURVE",
"619 576 OFFCURVE",
"614 576 OFFCURVE",
"609 573 CURVE SMOOTH",
"605 570 OFFCURVE",
"602 565 OFFCURVE",
"602 560 CURVE SMOOTH",
"602 486 LINE SMOOTH",
"602 477 OFFCURVE",
"606 470 OFFCURVE",
"613 465 CURVE SMOOTH",
"696 410 OFFCURVE",
"746 318 OFFCURVE",
"746 217 CURVE SMOOTH",
"746 53 OFFCURVE",
"612 -80 OFFCURVE",
"448 -80 CURVE SMOOTH",
"284 -80 OFFCURVE",
"150 53 OFFCURVE",
"150 217 CURVE SMOOTH",
"150 320 OFFCURVE",
"204 416 OFFCURVE",
"290 470 CURVE SMOOTH",
"298 474 OFFCURVE",
"302 482 OFFCURVE",
"302 491 CURVE SMOOTH",
"302 565 LINE SMOOTH",
"302 570 OFFCURVE",
"299 575 OFFCURVE",
"295 577 CURVE SMOOTH",
"291 580 OFFCURVE",
"286 580 OFFCURVE",
"281 578 CURVE",
"281 578 OFFCURVE",
"281 578 OFFCURVE",
"281 578 CURVE",
"213 547 OFFCURVE",
"156 497 OFFCURVE",
"115 434 CURVE SMOOTH",
"73 370 OFFCURVE",
"50 295 OFFCURVE",
"50 217 CURVE SMOOTH",
"50 164 OFFCURVE",
"61 112 OFFCURVE",
"82 63 CURVE SMOOTH",
"102 15 OFFCURVE",
"130 -27 OFFCURVE",
"167 -64 CURVE SMOOTH",
"203 -100 OFFCURVE",
"246 -129 OFFCURVE",
"293 -149 CURVE SMOOTH",
"342 -169 OFFCURVE",
"394 -180 OFFCURVE",
"448 -180 CURVE SMOOTH",
"502 -180 OFFCURVE",
"554 -169 OFFCURVE",
"603 -149 CURVE SMOOTH",
"650 -129 OFFCURVE",
"693 -100 OFFCURVE",
"729 -64 CURVE SMOOTH",
"766 -27 OFFCURVE",
"794 15 OFFCURVE",
"814 63 CURVE SMOOTH",
"835 112 OFFCURVE",
"846 164 OFFCURVE",
"846 217 CURVE SMOOTH",
"846 293 OFFCURVE",
"824 366 OFFCURVE",
"784 430 CURVE SMOOTH"
);
},
{
closed = 1;
nodes = (
"498 391 OFFCURVE",
"487 380 OFFCURVE",
"473 380 CURVE SMOOTH",
"423 380 LINE SMOOTH",
"409 380 OFFCURVE",
"398 391 OFFCURVE",
"398 405 CURVE SMOOTH",
"398 655 LINE SMOOTH",
"398 669 OFFCURVE",
"409 680 OFFCURVE",
"423 680 CURVE SMOOTH",
"473 680 LINE SMOOTH",
"487 680 OFFCURVE",
"498 669 OFFCURVE",
"498 655 CURVE SMOOTH",
"498 405 LINE SMOOTH"
);
}
);
width = 896;
}
);
unicode = E056;
},
{
glyphname = sf.search;
lastChange = "2014-08-08 15:40:38 +0000";
layers = (
{
hints = (
{
origin = "{0, 30}";
target = "{1, 2}";
},
{
origin = "{1, 8}";
target = "{0, 6}";
},
{
horizontal = 1;
origin = "{0, 42}";
target = "{1, 11}";
},
{
horizontal = 1;
origin = "{1, 5}";
target = "{0, 18}";
}
);
layerId = "7BDE272C-C7FB-4166-8673-7B6B584E769E";
name = Regular;
paths = (
{
closed = 1;
nodes = (
"687 128 LINE",
"701 148 OFFCURVE",
"713 170 OFFCURVE",
"723 193 CURVE SMOOTH",
"741 237 OFFCURVE",
"751 282 OFFCURVE",
"751 330 CURVE SMOOTH",
"751 377 OFFCURVE",
"741 423 OFFCURVE",
"723 466 CURVE SMOOTH",
"705 508 OFFCURVE",
"680 545 OFFCURVE",
"648 577 CURVE SMOOTH",
"616 610 OFFCURVE",
"578 635 OFFCURVE",
"537 652 CURVE SMOOTH",
"493 671 OFFCURVE",
"448 680 OFFCURVE",
"400 680 CURVE SMOOTH",
"353 680 OFFCURVE",
"307 671 OFFCURVE",
"264 652 CURVE SMOOTH",
"222 635 OFFCURVE",
"185 610 OFFCURVE",
"153 577 CURVE SMOOTH",
"120 545 OFFCURVE",
"95 508 OFFCURVE",
"78 466 CURVE SMOOTH",
"59 423 OFFCURVE",
"50 377 OFFCURVE",
"50 330 CURVE SMOOTH",
"50 282 OFFCURVE",
"59 237 OFFCURVE",
"78 193 CURVE SMOOTH",
"95 152 OFFCURVE",
"120 114 OFFCURVE",
"153 82 CURVE SMOOTH",
"185 50 OFFCURVE",
"222 25 OFFCURVE",
"264 7 CURVE SMOOTH",
"307 -11 OFFCURVE",
"353 -21 OFFCURVE",
"400 -21 CURVE SMOOTH",
"448 -21 OFFCURVE",
"493 -11 OFFCURVE",
"537 7 CURVE SMOOTH",
"560 17 OFFCURVE",
"582 29 OFFCURVE",
"602 43 CURVE",
"808 -162 LINE SMOOTH",
"819 -174 OFFCURVE",
"835 -180 OFFCURVE",
"850 -180 CURVE SMOOTH",
"865 -180 OFFCURVE",
"881 -174 OFFCURVE",
"892 -162 CURVE SMOOTH",
"916 -139 OFFCURVE",
"916 -101 OFFCURVE",
"892 -78 CURVE SMOOTH"
);
},
{
closed = 1;
nodes = (
"273 99 OFFCURVE",
"170 203 OFFCURVE",
"170 330 CURVE SMOOTH",
"170 457 OFFCURVE",
"273 560 OFFCURVE",
"400 560 CURVE SMOOTH",
"527 560 OFFCURVE",
"631 457 OFFCURVE",
"631 330 CURVE SMOOTH",
"631 203 OFFCURVE",
"527 99 OFFCURVE",
"400 99 CURVE SMOOTH"
);
}
);
width = 960;
}
);
unicode = E057;
},
{
glyphname = sf.mail;
lastChange = "2014-08-08 15:40:38 +0000";
layers = (
{
layerId = "7BDE272C-C7FB-4166-8673-7B6B584E769E";
name = Regular;
paths = (
{
closed = 1;
nodes = (
"79 560 LINE SMOOTH",
"63 560 OFFCURVE",
"50 547 OFFCURVE",
"50 532 CURVE SMOOTH",
"50 -31 LINE SMOOTH",
"50 -46 OFFCURVE",
"63 -59 OFFCURVE",
"79 -59 CURVE SMOOTH",
"882 -59 LINE SMOOTH",
"898 -59 OFFCURVE",
"910 -46 OFFCURVE",
"910 -31 CURVE SMOOTH",
"910 532 LINE SMOOTH",
"910 547 OFFCURVE",
"898 560 OFFCURVE",
"882 560 CURVE SMOOTH"
);
},
{
closed = 1;
nodes = (
"481 263 LINE",
"254 460 LINE",
"707 460 LINE"
);
},
{
closed = 1;
nodes = (
"150 418 LINE",
"429 175 LINE SMOOTH",
"444 162 OFFCURVE",
"462 156 OFFCURVE",
"481 156 CURVE SMOOTH",
"499 156 OFFCURVE",
"517 162 OFFCURVE",
"532 175 CURVE SMOOTH",
"810 418 LINE",
"810 41 LINE",
"150 41 LINE"
);
},
{
closed = 1;
nodes = (
"79 560 LINE SMOOTH",
"63 560 OFFCURVE",
"50 547 OFFCURVE",
"50 531 CURVE SMOOTH",
"50 -31 LINE SMOOTH",
"50 -47 OFFCURVE",
"63 -60 OFFCURVE",
"79 -60 CURVE SMOOTH",
"882 -60 LINE SMOOTH",
"898 -60 OFFCURVE",
"910 -47 OFFCURVE",
"910 -31 CURVE SMOOTH",
"910 531 LINE SMOOTH",
"910 547 OFFCURVE",
"898 560 OFFCURVE",
"882 560 CURVE SMOOTH"
);
},
{
closed = 1;
nodes = (
"481 263 LINE",
"254 460 LINE",
"707 460 LINE"
);
},
{
closed = 1;
nodes = (
"150 418 LINE",
"429 174 LINE SMOOTH",
"444 162 OFFCURVE",
"462 155 OFFCURVE",
"481 155 CURVE SMOOTH",
"499 155 OFFCURVE",
"517 162 OFFCURVE",
"532 174 CURVE SMOOTH",
"810 417 LINE",
"810 40 LINE",
"150 40 LINE"
);
}
);
width = 960;
}
);
unicode = E058;
},
{
glyphname = sf.test.tube;
lastChange = "2014-08-08 15:40:38 +0000";
layers = (
{
layerId = "7BDE272C-C7FB-4166-8673-7B6B584E769E";
name = Regular;
paths = (
{
closed = 1;
nodes = (
"270 62 LINE SMOOTH",
"270 62 OFFCURVE",
"270 62 OFFCURVE",
"270 62 CURVE SMOOTH",
"270 39 OFFCURVE",
"279 18 OFFCURVE",
"295 2 CURVE SMOOTH",
"311 -13 OFFCURVE",
"332 -22 OFFCURVE",
"354 -22 CURVE SMOOTH",
"377 -22 OFFCURVE",
"398 -13 OFFCURVE",
"413 2 CURVE SMOOTH",
"429 18 OFFCURVE",
"438 39 OFFCURVE",
"438 61 CURVE SMOOTH",
"438 62 OFFCURVE",
"438 62 OFFCURVE",
"438 62 CURVE SMOOTH",
"438 124 LINE",
"438 206 LINE SMOOTH",
"438 217 OFFCURVE",
"432 226 OFFCURVE",
"422 230 CURVE SMOOTH",
"305 276 LINE SMOOTH",
"297 279 OFFCURVE",
"288 278 OFFCURVE",
"281 274 CURVE SMOOTH",
"274 269 OFFCURVE",
"270 261 OFFCURVE",
"270 253 CURVE SMOOTH",
"270 124 LINE"
);
},
{
closed = 1;
nodes = (
"317 350 OFFCURVE",
"335 332 OFFCURVE",
"357 332 CURVE SMOOTH",
"379 332 OFFCURVE",
"397 350 OFFCURVE",
"397 372 CURVE SMOOTH",
"397 394 OFFCURVE",
"379 412 OFFCURVE",
"357 412 CURVE SMOOTH",
"335 412 OFFCURVE",
"317 394 OFFCURVE",
"317 372 CURVE SMOOTH"
);
},
{
closed = 1;
nodes = (
"334 440 OFFCURVE",
"347 453 OFFCURVE",
"347 470 CURVE SMOOTH",
"347 487 OFFCURVE",
"334 500 OFFCURVE",
"317 500 CURVE SMOOTH",
"300 500 OFFCURVE",
"287 487 OFFCURVE",
"287 470 CURVE SMOOTH",
"287 453 OFFCURVE",
"300 440 OFFCURVE",
"317 440 CURVE SMOOTH"
);
},
{
closed = 1;
nodes = (
"426 410 OFFCURVE",
"435 419 OFFCURVE",
"435 430 CURVE SMOOTH",
"435 441 OFFCURVE",
"426 450 OFFCURVE",
"415 450 CURVE SMOOTH",
"404 450 OFFCURVE",
"395 441 OFFCURVE",
"395 430 CURVE SMOOTH",
"395 419 OFFCURVE",
"404 410 OFFCURVE",
"415 410 CURVE SMOOTH"
);
},
{
closed = 1;
nodes = (
"588 680 LINE",
"120 680 LINE",
"100 680 LINE SMOOTH",
"72 680 OFFCURVE",
"50 658 OFFCURVE",
"50 630 CURVE SMOOTH",
"50 602 OFFCURVE",
"72 580 OFFCURVE",
"100 580 CURVE SMOOTH",
"120 580 LINE",
"120 54 LINE",
"120 54 LINE",
"120 54 OFFCURVE",
"120 54 OFFCURVE",
"120 54 CURVE SMOOTH",
"120 -75 OFFCURVE",
"225 -180 OFFCURVE",
"354 -180 CURVE SMOOTH",
"483 -180 OFFCURVE",
"588 -75 OFFCURVE",
"588 54 CURVE SMOOTH",
"588 54 OFFCURVE",
"588 54 OFFCURVE",
"588 54 CURVE SMOOTH",
"588 54 LINE",
"588 580 LINE",
"608 580 LINE SMOOTH",
"636 580 OFFCURVE",
"658 602 OFFCURVE",
"658 630 CURVE SMOOTH",
"658 658 OFFCURVE",
"636 680 OFFCURVE",
"608 680 CURVE SMOOTH"
);
},
{
closed = 1;
nodes = (
"488 18 OFFCURVE",
"474 -16 OFFCURVE",
"449 -41 CURVE SMOOTH",
"424 -66 OFFCURVE",
"390 -80 OFFCURVE",
"354 -80 CURVE SMOOTH",
"318 -80 OFFCURVE",
"285 -66 OFFCURVE",
"259 -41 CURVE SMOOTH",
"234 -16 OFFCURVE",
"220 18 OFFCURVE",
"220 53 CURVE",
"220 54 OFFCURVE",
"220 54 OFFCURVE",
"220 54 CURVE SMOOTH",
"220 154 LINE",
"220 580 LINE",
"488 580 LINE",
"488 154 LINE",
"488 54 LINE SMOOTH",
"488 54 OFFCURVE",
"488 54 OFFCURVE",
"488 53 CURVE SMOOTH"
);
}
);
width = 708;
}
);
unicode = E059;
},
{
glyphname = sf.thumbs.up;
lastChange = "2014-08-08 15:40:38 +0000";
layers = (
{
layerId = "7BDE272C-C7FB-4166-8673-7B6B584E769E";
name = Regular;
paths = (
{
closed = 1;
nodes = (
"891 385 OFFCURVE",
"797 392 OFFCURVE",
"758 393 CURVE",
"705 396 OFFCURVE",
"625 393 OFFCURVE",
"625 393 CURVE",
"625 393 OFFCURVE",
"652 489 OFFCURVE",
"654 530 CURVE",
"657 573 OFFCURVE",
"660 620 OFFCURVE",
"635 651 CURVE",
"610 683 OFFCURVE",
"584 709 OFFCURVE",
"544 688 CURVE SMOOTH",
"516 685 OFFCURVE",
"549 568 OFFCURVE",
"512 507 CURVE SMOOTH",
"510 500 OFFCURVE",
"478 430 OFFCURVE",
"451 393 CURVE",
"424 356 OFFCURVE",
"363 295 OFFCURVE",
"342 279 CURVE",
"332 272 OFFCURVE",
"318 267 OFFCURVE",
"305 263 CURVE",
"289 258 OFFCURVE",
"277 243 OFFCURVE",
"277 226 CURVE",
"277 -84 LINE",
"277 -103 OFFCURVE",
"291 -119 OFFCURVE",
"309 -122 CURVE",
"490 -154 OFFCURVE",
"604 -180 OFFCURVE",
"747 -153 CURVE",
"924 -121 OFFCURVE",
"891 42 OFFCURVE",
"891 279 CURVE SMOOTH"
);
},
{
closed = 1;
nodes = (
"234 -116 OFFCURVE",
"217 -133 OFFCURVE",
"195 -133 CURVE",
"89 -133 LINE",
"67 -133 OFFCURVE",
"50 -116 OFFCURVE",
"50 -94 CURVE",
"50 249 LINE",
"50 270 OFFCURVE",
"67 288 OFFCURVE",
"89 288 CURVE",
"195 288 LINE",
"217 288 OFFCURVE",
"234 270 OFFCURVE",
"234 249 CURVE",
"234 -94 LINE"
);
},
{
closed = 1;
nodes = (
"122 237 OFFCURVE",
"107 222 OFFCURVE",
"107 202 CURVE",
"107 183 OFFCURVE",
"122 167 OFFCURVE",
"142 167 CURVE",
"162 167 OFFCURVE",
"177 183 OFFCURVE",
"177 202 CURVE",
"177 222 OFFCURVE",
"162 237 OFFCURVE",
"142 237 CURVE"
);
}
);
width = 943.434;
}
);
unicode = E05A;
},
{
glyphname = sf.thumbs.down;
lastChange = "2014-08-08 15:40:38 +0000";
layers = (
{
layerId = "7BDE272C-C7FB-4166-8673-7B6B584E769E";
name = Regular;
paths = (
{
closed = 1;
nodes = (
"891 487 OFFCURVE",
"924 650 OFFCURVE",
"747 682 CURVE",
"604 709 OFFCURVE",
"490 683 OFFCURVE",
"309 651 CURVE",
"291 648 OFFCURVE",
"277 632 OFFCURVE",
"277 613 CURVE",
"277 303 LINE",
"277 286 OFFCURVE",
"289 271 OFFCURVE",
"305 266 CURVE",
"318 262 OFFCURVE",
"332 257 OFFCURVE",
"342 250 CURVE",
"363 234 OFFCURVE",
"424 173 OFFCURVE",
"451 136 CURVE",
"478 99 OFFCURVE",
"510 29 OFFCURVE",
"512 22 CURVE SMOOTH",
"549 -39 OFFCURVE",
"516 -156 OFFCURVE",
"544 -159 CURVE SMOOTH",
"584 -180 OFFCURVE",
"610 -154 OFFCURVE",
"635 -122 CURVE",
"660 -91 OFFCURVE",
"657 -44 OFFCURVE",
"654 -1 CURVE",
"652 40 OFFCURVE",
"625 136 OFFCURVE",
"625 136 CURVE",
"625 136 OFFCURVE",
"705 133 OFFCURVE",
"758 136 CURVE",
"797 137 OFFCURVE",
"891 144 OFFCURVE",
"891 250 CURVE SMOOTH"
);
},
{
closed = 1;
nodes = (
"234 280 LINE",
"234 259 OFFCURVE",
"217 241 OFFCURVE",
"195 241 CURVE",
"89 241 LINE",
"67 241 OFFCURVE",
"50 259 OFFCURVE",
"50 280 CURVE",
"50 623 LINE",
"50 645 OFFCURVE",
"67 662 OFFCURVE",
"89 662 CURVE",
"195 662 LINE",
"217 662 OFFCURVE",
"234 645 OFFCURVE",
"234 623 CURVE"
);
},
{
closed = 1;
nodes = (
"162 292 OFFCURVE",
"177 307 OFFCURVE",
"177 327 CURVE",
"177 346 OFFCURVE",
"162 362 OFFCURVE",
"142 362 CURVE",
"122 362 OFFCURVE",
"107 346 OFFCURVE",
"107 327 CURVE",
"107 307 OFFCURVE",
"122 292 OFFCURVE",
"142 292 CURVE"
);
}
);
width = 943.434;
}
);
unicode = E05B;
},
{
glyphname = sf.player.play;
lastChange = "2014-08-08 15:40:38 +0000";
layers = (
{
layerId = "7BDE272C-C7FB-4166-8673-7B6B584E769E";
name = Regular;
paths = (
{
closed = 1;
nodes = (
"50 537 OFFCURVE",
"52 540 OFFCURVE",
"55 542 CURVE SMOOTH",
"58 544 OFFCURVE",
"62 544 OFFCURVE",
"65 542 CURVE SMOOTH",
"608 259 LINE SMOOTH",
"611 257 OFFCURVE",
"614 254 OFFCURVE",
"614 250 CURVE SMOOTH",
"614 246 OFFCURVE",
"611 243 OFFCURVE",
"608 241 CURVE SMOOTH",
"65 -42 LINE SMOOTH",
"62 -44 OFFCURVE",
"58 -44 OFFCURVE",
"55 -42 CURVE SMOOTH",
"52 -40 OFFCURVE",
"50 -37 OFFCURVE",
"50 -34 CURVE SMOOTH",
"50 533 LINE SMOOTH"
);
}
);
width = 664;
}
);
unicode = E05C;
},
{
glyphname = sf.player.pause;
lastChange = "2014-08-08 15:40:38 +0000";
layers = (
{
layerId = "7BDE272C-C7FB-4166-8673-7B6B584E769E";
name = Regular;
paths = (
{
closed = 1;
nodes = (
"200 -46 OFFCURVE",
"196 -50 OFFCURVE",
"190 -50 CURVE SMOOTH",
"60 -50 LINE SMOOTH",
"54 -50 OFFCURVE",
"50 -46 OFFCURVE",
"50 -40 CURVE SMOOTH",
"50 540 LINE SMOOTH",
"50 546 OFFCURVE",
"54 550 OFFCURVE",
"60 550 CURVE SMOOTH",
"190 550 LINE SMOOTH",
"196 550 OFFCURVE",
"200 546 OFFCURVE",
"200 540 CURVE SMOOTH",
"200 -40 LINE SMOOTH"
);
},
{
closed = 1;
nodes = (
"450 -46 OFFCURVE",
"446 -50 OFFCURVE",
"440 -50 CURVE SMOOTH",
"310 -50 LINE SMOOTH",
"304 -50 OFFCURVE",
"300 -46 OFFCURVE",
"300 -40 CURVE SMOOTH",
"300 540 LINE SMOOTH",
"300 546 OFFCURVE",
"304 550 OFFCURVE",
"310 550 CURVE SMOOTH",
"440 550 LINE SMOOTH",
"446 550 OFFCURVE",
"450 546 OFFCURVE",
"450 540 CURVE SMOOTH",
"450 -40 LINE SMOOTH"
);
}
);
width = 500;
}
);
unicode = E05D;
},
{
glyphname = sf.player.stop;
lastChange = "2014-08-08 15:40:38 +0000";
layers = (
{
layerId = "7BDE272C-C7FB-4166-8673-7B6B584E769E";
name = Regular;
paths = (
{
closed = 1;
nodes = (
"650 -46 OFFCURVE",
"646 -50 OFFCURVE",
"640 -50 CURVE SMOOTH",
"60 -50 LINE SMOOTH",
"54 -50 OFFCURVE",
"50 -46 OFFCURVE",
"50 -40 CURVE SMOOTH",
"50 540 LINE SMOOTH",
"50 546 OFFCURVE",
"54 550 OFFCURVE",
"60 550 CURVE SMOOTH",
"640 550 LINE SMOOTH",
"646 550 OFFCURVE",
"650 546 OFFCURVE",
"650 540 CURVE SMOOTH",
"650 -40 LINE SMOOTH"
);
}
);
width = 700;
}
);
unicode = E05E;
},
{
glyphname = sf.player.rw;
lastChange = "2014-08-08 15:40:38 +0000";
layers = (
{
layerId = "7BDE272C-C7FB-4166-8673-7B6B584E769E";
name = Regular;
paths = (
{
closed = 1;
nodes = (
"835 499 OFFCURVE",
"833 502 OFFCURVE",
"830 504 CURVE SMOOTH",
"827 506 OFFCURVE",
"823 506 OFFCURVE",
"820 504 CURVE SMOOTH",
"351 259 LINE SMOOTH",
"348 257 OFFCURVE",
"346 254 OFFCURVE",
"346 250 CURVE SMOOTH",
"346 247 OFFCURVE",
"348 243 OFFCURVE",
"351 241 CURVE SMOOTH",
"820 -3 LINE SMOOTH",
"823 -5 OFFCURVE",
"827 -5 OFFCURVE",
"830 -3 CURVE SMOOTH",
"833 -1 OFFCURVE",
"835 2 OFFCURVE",
"835 5 CURVE SMOOTH",
"835 495 LINE SMOOTH"
);
},
{
closed = 1;
nodes = (
"539 499 OFFCURVE",
"537 502 OFFCURVE",
"534 504 CURVE SMOOTH",
"531 506 OFFCURVE",
"527 506 OFFCURVE",
"524 504 CURVE SMOOTH",
"55 259 LINE SMOOTH",
"52 257 OFFCURVE",
"50 254 OFFCURVE",
"50 250 CURVE SMOOTH",
"50 247 OFFCURVE",
"52 243 OFFCURVE",
"55 241 CURVE SMOOTH",
"524 -3 LINE SMOOTH",
"527 -5 OFFCURVE",
"531 -5 OFFCURVE",
"534 -3 CURVE SMOOTH",
"537 -1 OFFCURVE",
"539 2 OFFCURVE",
"539 5 CURVE SMOOTH",
"539 495 LINE SMOOTH"
);
}
);
width = 885;
}
);
unicode = E05F;
},
{
glyphname = sf.player.ff;
lastChange = "2014-08-08 15:40:38 +0000";
layers = (
{
layerId = "7BDE272C-C7FB-4166-8673-7B6B584E769E";
name = Regular;
paths = (
{
closed = 1;
nodes = (
"50 499 OFFCURVE",
"52 502 OFFCURVE",
"55 504 CURVE SMOOTH",
"58 506 OFFCURVE",
"62 506 OFFCURVE",
"65 504 CURVE SMOOTH",
"534 259 LINE SMOOTH",
"537 257 OFFCURVE",
"539 254 OFFCURVE",
"539 250 CURVE SMOOTH",
"539 247 OFFCURVE",
"537 243 OFFCURVE",
"534 241 CURVE SMOOTH",
"65 -3 LINE SMOOTH",
"62 -5 OFFCURVE",
"58 -5 OFFCURVE",
"55 -3 CURVE SMOOTH",
"52 -1 OFFCURVE",
"50 2 OFFCURVE",
"50 5 CURVE SMOOTH",
"50 495 LINE SMOOTH"
);
},
{
closed = 1;
nodes = (
"346 499 OFFCURVE",
"348 502 OFFCURVE",
"351 504 CURVE SMOOTH",
"354 506 OFFCURVE",
"358 506 OFFCURVE",
"361 504 CURVE SMOOTH",
"830 259 LINE SMOOTH",
"833 257 OFFCURVE",
"835 254 OFFCURVE",
"835 250 CURVE SMOOTH",
"835 247 OFFCURVE",
"833 243 OFFCURVE",
"830 241 CURVE SMOOTH",
"361 -3 LINE SMOOTH",
"358 -5 OFFCURVE",
"354 -5 OFFCURVE",
"351 -3 CURVE SMOOTH",
"348 -1 OFFCURVE",
"346 2 OFFCURVE",
"346 5 CURVE SMOOTH",
"346 495 LINE SMOOTH"
);
}
);
width = 885;
}
);
unicode = E060;
},
{
glyphname = sf.player.previous;
lastChange = "2014-08-08 15:40:38 +0000";
layers = (
{
layerId = "7BDE272C-C7FB-4166-8673-7B6B584E769E";
name = Regular;
paths = (
{
closed = 1;
nodes = (
"850 498 OFFCURVE",
"848 502 OFFCURVE",
"845 503 CURVE SMOOTH",
"842 505 OFFCURVE",
"838 505 OFFCURVE",
"835 504 CURVE SMOOTH",
"366 259 LINE SMOOTH",
"363 257 OFFCURVE",
"361 254 OFFCURVE",
"361 250 CURVE SMOOTH",
"361 246 OFFCURVE",
"363 243 OFFCURVE",
"366 241 CURVE SMOOTH",
"835 -4 LINE SMOOTH",
"838 -5 OFFCURVE",
"842 -5 OFFCURVE",
"845 -3 CURVE SMOOTH",
"848 -2 OFFCURVE",
"850 2 OFFCURVE",
"850 5 CURVE SMOOTH",
"850 495 LINE SMOOTH"
);
},
{
closed = 1;
nodes = (
"554 498 OFFCURVE",
"552 502 OFFCURVE",
"549 503 CURVE SMOOTH",
"546 505 OFFCURVE",
"542 505 OFFCURVE",
"539 504 CURVE SMOOTH",
"70 259 LINE SMOOTH",
"67 257 OFFCURVE",
"65 254 OFFCURVE",
"65 250 CURVE SMOOTH",
"65 246 OFFCURVE",
"67 243 OFFCURVE",
"70 241 CURVE SMOOTH",
"539 -4 LINE SMOOTH",
"542 -5 OFFCURVE",
"546 -5 OFFCURVE",
"549 -3 CURVE SMOOTH",
"552 -2 OFFCURVE",
"554 2 OFFCURVE",
"554 5 CURVE SMOOTH",
"554 495 LINE SMOOTH"
);
},
{
closed = 1;
nodes = (
"50 -7 OFFCURVE",
"54 -11 OFFCURVE",
"60 -11 CURVE SMOOTH",
"140 -11 LINE SMOOTH",
"146 -11 OFFCURVE",
"150 -7 OFFCURVE",
"150 -1 CURVE SMOOTH",
"150 501 LINE SMOOTH",
"150 507 OFFCURVE",
"146 511 OFFCURVE",
"140 511 CURVE SMOOTH",
"60 511 LINE SMOOTH",
"54 511 OFFCURVE",
"50 507 OFFCURVE",
"50 501 CURVE SMOOTH",
"50 -1 LINE SMOOTH"
);
}
);
width = 900;
}
);
unicode = E061;
},
{
glyphname = sf.player.next;
lastChange = "2014-08-08 15:40:38 +0000";
layers = (
{
layerId = "7BDE272C-C7FB-4166-8673-7B6B584E769E";
name = Regular;
paths = (
{
closed = 1;
nodes = (
"50 498 OFFCURVE",
"52 502 OFFCURVE",
"55 503 CURVE SMOOTH",
"58 505 OFFCURVE",
"62 505 OFFCURVE",
"65 504 CURVE SMOOTH",
"534 259 LINE SMOOTH",
"537 257 OFFCURVE",
"539 254 OFFCURVE",
"539 250 CURVE SMOOTH",
"539 246 OFFCURVE",
"537 243 OFFCURVE",
"534 241 CURVE SMOOTH",
"65 -4 LINE SMOOTH",
"62 -5 OFFCURVE",
"58 -5 OFFCURVE",
"55 -3 CURVE SMOOTH",
"52 -2 OFFCURVE",
"50 2 OFFCURVE",
"50 5 CURVE SMOOTH",
"50 495 LINE SMOOTH"
);
},
{
closed = 1;
nodes = (
"346 498 OFFCURVE",
"348 502 OFFCURVE",
"351 503 CURVE SMOOTH",
"354 505 OFFCURVE",
"358 505 OFFCURVE",
"361 504 CURVE SMOOTH",
"830 259 LINE SMOOTH",
"833 257 OFFCURVE",
"835 254 OFFCURVE",
"835 250 CURVE SMOOTH",
"835 246 OFFCURVE",
"833 243 OFFCURVE",
"830 241 CURVE SMOOTH",
"361 -4 LINE SMOOTH",
"358 -5 OFFCURVE",
"354 -5 OFFCURVE",
"351 -3 CURVE SMOOTH",
"348 -2 OFFCURVE",
"346 2 OFFCURVE",
"346 5 CURVE SMOOTH",
"346 495 LINE SMOOTH"
);
},
{
closed = 1;
nodes = (
"850 -7 OFFCURVE",
"846 -11 OFFCURVE",
"840 -11 CURVE SMOOTH",
"760 -11 LINE SMOOTH",
"754 -11 OFFCURVE",
"750 -7 OFFCURVE",
"750 -1 CURVE SMOOTH",
"750 501 LINE SMOOTH",
"750 507 OFFCURVE",
"754 511 OFFCURVE",
"760 511 CURVE SMOOTH",
"840 511 LINE SMOOTH",
"846 511 OFFCURVE",
"850 507 OFFCURVE",
"850 501 CURVE SMOOTH",
"850 -1 LINE SMOOTH"
);
}
);
width = 900;
}
);
unicode = E062;
},
{
glyphname = sf.player.replay;
lastChange = "2014-08-08 15:40:38 +0000";
layers = (
{
layerId = "7BDE272C-C7FB-4166-8673-7B6B584E769E";
name = Regular;
paths = (
{
closed = 1;
nodes = (
"632 467 LINE SMOOTH",
"636 470 OFFCURVE",
"637 475 OFFCURVE",
"636 480 CURVE SMOOTH",
"635 485 OFFCURVE",
"631 489 OFFCURVE",
"626 489 CURVE SMOOTH",
"467 515 LINE SMOOTH",
"463 515 OFFCURVE",
"460 514 OFFCURVE",
"457 512 CURVE SMOOTH",
"454 510 OFFCURVE",
"452 506 OFFCURVE",
"452 502 CURVE SMOOTH",
"450 342 LINE SMOOTH",
"450 337 OFFCURVE",
"453 332 OFFCURVE",
"457 330 CURVE SMOOTH",
"462 328 OFFCURVE",
"467 329 OFFCURVE",
"471 332 CURVE SMOOTH",
"513 367 LINE",
"537 333 OFFCURVE",
"550 293 OFFCURVE",
"550 251 CURVE SMOOTH",
"550 198 OFFCURVE",
"529 147 OFFCURVE",
"492 109 CURVE SMOOTH",
"454 71 OFFCURVE",
"404 51 OFFCURVE",
"351 50 CURVE SMOOTH",
"297 50 OFFCURVE",
"247 71 OFFCURVE",
"209 109 CURVE SMOOTH",
"171 146 OFFCURVE",
"150 196 OFFCURVE",
"150 250 CURVE SMOOTH",
"150 303 OFFCURVE",
"171 354 OFFCURVE",
"208 391 CURVE SMOOTH",
"244 427 OFFCURVE",
"290 448 OFFCURVE",
"340 450 CURVE SMOOTH",
"345 450 OFFCURVE",
"349 455 OFFCURVE",
"349 460 CURVE SMOOTH",
"349 540 LINE SMOOTH",
"349 543 OFFCURVE",
"348 546 OFFCURVE",
"346 547 CURVE SMOOTH",
"344 549 OFFCURVE",
"342 550 OFFCURVE",
"339 550 CURVE SMOOTH",
"178 544 OFFCURVE",
"50 412 OFFCURVE",
"50 250 CURVE SMOOTH",
"50 84 OFFCURVE",
"185 -50 OFFCURVE",
"351 -50 CURVE SMOOTH",
"516 -49 OFFCURVE",
"650 86 OFFCURVE",
"650 251 CURVE SMOOTH",
"650 319 OFFCURVE",
"627 381 OFFCURVE",
"589 431 CURVE"
);
}
);
width = 700;
}
);
unicode = E063;
},
{
glyphname = sf.player.shuffle;
lastChange = "2014-08-08 16:02:15 +0000";
layers = (
{
layerId = "7BDE272C-C7FB-4166-8673-7B6B584E769E";
name = Regular;
paths = (
{
closed = 1;
nodes = (
"808 406 LINE",
"808 351 LINE SMOOTH",
"808 346 OFFCURVE",
"811 341 OFFCURVE",
"816 339 CURVE SMOOTH",
"820 337 OFFCURVE",
"825 338 OFFCURVE",
"829 341 CURVE SMOOTH",
"951 446 LINE SMOOTH",
"954 449 OFFCURVE",
"955 452 OFFCURVE",
"955 456 CURVE SMOOTH",
"955 460 OFFCURVE",
"954 463 OFFCURVE",
"951 466 CURVE SMOOTH",
"829 571 LINE SMOOTH",
"826 574 OFFCURVE",
"820 575 OFFCURVE",
"816 573 CURVE SMOOTH",
"811 571 OFFCURVE",
"808 566 OFFCURVE",
"808 561 CURVE SMOOTH",
"808 506 LINE",
"625 506 LINE SMOOTH",
"622 506 OFFCURVE",
"619 505 OFFCURVE",
"618 502 CURVE SMOOTH",
"275 98 LINE SMOOTH",
"273 95 OFFCURVE",
"270 94 OFFCURVE",
"267 94 CURVE SMOOTH",
"60 94 LINE SMOOTH",
"54 94 OFFCURVE",
"50 90 OFFCURVE",
"50 84 CURVE SMOOTH",
"50 4 LINE SMOOTH",
"50 -2 OFFCURVE",
"54 -6 OFFCURVE",
"60 -6 CURVE SMOOTH",
"314 -6 LINE SMOOTH",
"316 -6 OFFCURVE",
"319 -5 OFFCURVE",
"321 -2 CURVE SMOOTH",
"664 402 LINE SMOOTH",
"666 405 OFFCURVE",
"669 406 OFFCURVE",
"672 406 CURVE SMOOTH"
);
},
{
closed = 1;
nodes = (
"829 159 LINE SMOOTH",
"826 162 OFFCURVE",
"820 163 OFFCURVE",
"816 161 CURVE SMOOTH",
"811 159 OFFCURVE",
"808 154 OFFCURVE",
"808 149 CURVE SMOOTH",
"808 94 LINE",
"672 94 LINE SMOOTH",
"669 94 OFFCURVE",
"666 95 OFFCURVE",
"664 98 CURVE SMOOTH",
"567 212 LINE",
"502 134 LINE",
"618 -2 LINE SMOOTH",
"619 -5 OFFCURVE",
"622 -6 OFFCURVE",
"625 -6 CURVE SMOOTH",
"808 -6 LINE",
"808 -61 LINE SMOOTH",
"808 -66 OFFCURVE",
"811 -71 OFFCURVE",
"816 -73 CURVE SMOOTH",
"820 -75 OFFCURVE",
"825 -74 OFFCURVE",
"829 -71 CURVE SMOOTH",
"951 34 LINE SMOOTH",
"954 37 OFFCURVE",
"955 40 OFFCURVE",
"955 44 CURVE SMOOTH",
"955 48 OFFCURVE",
"954 51 OFFCURVE",
"951 54 CURVE SMOOTH"
);
},
{
closed = 1;
nodes = (
"267 406 LINE SMOOTH",
"270 406 OFFCURVE",
"273 405 OFFCURVE",
"275 402 CURVE SMOOTH",
"371 289 LINE",
"437 366 LINE",
"321 502 LINE SMOOTH",
"319 505 OFFCURVE",
"316 506 OFFCURVE",
"314 506 CURVE SMOOTH",
"60 506 LINE SMOOTH",
"54 506 OFFCURVE",
"50 502 OFFCURVE",
"50 496 CURVE SMOOTH",
"50 416 LINE SMOOTH",
"50 410 OFFCURVE",
"54 406 OFFCURVE",
"60 406 CURVE SMOOTH"
);
}
);
width = 1005;
}
);
unicode = E064;
},
{
glyphname = sf.player.repeat;
lastChange = "2014-08-08 15:40:38 +0000";
layers = (
{
layerId = "7BDE272C-C7FB-4166-8673-7B6B584E769E";
name = Regular;
paths = (
{
closed = 1;
nodes = (
"537 546 LINE SMOOTH",
"533 549 OFFCURVE",
"527 550 OFFCURVE",
"523 548 CURVE SMOOTH",
"518 546 OFFCURVE",
"516 541 OFFCURVE",
"516 536 CURVE SMOOTH",
"516 481 LINE",
"315 481 LINE SMOOTH",
"176 481 OFFCURVE",
"63 371 OFFCURVE",
"58 234 CURVE SMOOTH",
"58 232 OFFCURVE",
"59 229 OFFCURVE",
"61 227 CURVE SMOOTH",
"63 225 OFFCURVE",
"65 224 OFFCURVE",
"68 224 CURVE SMOOTH",
"148 224 LINE SMOOTH",
"153 224 OFFCURVE",
"158 228 OFFCURVE",
"158 233 CURVE SMOOTH",
"163 315 OFFCURVE",
"231 381 OFFCURVE",
"315 381 CURVE SMOOTH",
"516 381 LINE",
"516 326 LINE SMOOTH",
"516 321 OFFCURVE",
"519 316 OFFCURVE",
"523 314 CURVE SMOOTH",
"528 312 OFFCURVE",
"533 313 OFFCURVE",
"537 316 CURVE SMOOTH",
"658 421 LINE SMOOTH",
"661 424 OFFCURVE",
"663 427 OFFCURVE",
"663 431 CURVE SMOOTH",
"663 435 OFFCURVE",
"661 438 OFFCURVE",
"658 441 CURVE SMOOTH"
);
},
{
closed = 1;
nodes = (
"176 -46 LINE SMOOTH",
"180 -49 OFFCURVE",
"185 -50 OFFCURVE",
"190 -48 CURVE SMOOTH",
"194 -46 OFFCURVE",
"197 -41 OFFCURVE",
"197 -36 CURVE SMOOTH",
"197 19 LINE",
"398 19 LINE SMOOTH",
"536 19 OFFCURVE",
"649 128 OFFCURVE",
"655 265 CURVE SMOOTH",
"655 268 OFFCURVE",
"654 271 OFFCURVE",
"652 273 CURVE SMOOTH",
"650 275 OFFCURVE",
"647 276 OFFCURVE",
"645 276 CURVE SMOOTH",
"565 276 LINE SMOOTH",
"559 276 OFFCURVE",
"555 272 OFFCURVE",
"555 266 CURVE SMOOTH",
"550 184 OFFCURVE",
"482 119 OFFCURVE",
"398 119 CURVE SMOOTH",
"197 119 LINE",
"197 174 LINE SMOOTH",
"197 179 OFFCURVE",
"194 184 OFFCURVE",
"189 186 CURVE SMOOTH",
"185 188 OFFCURVE",
"180 187 OFFCURVE",
"176 184 CURVE SMOOTH",
"54 78 LINE SMOOTH",
"52 76 OFFCURVE",
"50 72 OFFCURVE",
"50 69 CURVE SMOOTH",
"50 65 OFFCURVE",
"52 62 OFFCURVE",
"54 59 CURVE SMOOTH"
);
}
);
width = 713;
}
);
unicode = E065;
},
{
export = 0;
glyphname = sf.sapo;
lastChange = "2014-08-08 15:40:38 +0000";
layers = (
{
layerId = "7BDE272C-C7FB-4166-8673-7B6B584E769E";
name = Regular;
paths = (
{
closed = 1;
nodes = (
"910 425 OFFCURVE",
"927 442 OFFCURVE",
"948 442 CURVE SMOOTH",
"969 442 OFFCURVE",
"986 425 OFFCURVE",
"986 404 CURVE SMOOTH",
"986 383 OFFCURVE",
"969 366 OFFCURVE",
"948 366 CURVE SMOOTH",
"927 366 OFFCURVE",
"910 383 OFFCURVE",
"910 404 CURVE SMOOTH"
);
},
{
closed = 1;
nodes = (
"1193 352 LINE",
"486 -103 LINE",
"932 603 LINE"
);
},
{
closed = 1;
nodes = (
"1025 446 OFFCURVE",
"992 480 OFFCURVE",
"949 480 CURVE SMOOTH",
"906 481 OFFCURVE",
"872 448 OFFCURVE",
"872 405 CURVE SMOOTH",
"871 362 OFFCURVE",
"904 328 OFFCURVE",
"947 328 CURVE SMOOTH",
"990 327 OFFCURVE",
"1023 360 OFFCURVE",
"1024 403 CURVE SMOOTH"
);
},
{
closed = 1;
nodes = (
"272 140 LINE",
"932 603 LINE",
"486 -103 LINE"
);
},
{
closed = 1;
nodes = (
"486 -103 LINE",
"136 -103 LINE",
"50 173 LINE"
);
},
{
closed = 1;
nodes = (
"1193 352 LINE",
"890 -103 LINE",
"486 -103 LINE"
);
},
{
closed = 1;
nodes = (
"139 304 LINE",
"486 -103 LINE",
"50 173 LINE"
);
}
);
width = 1243;
}
);
unicode = E053;
},
